NotoSerifMyanmar-Bold.ufo
<glyph name="question" format="2">
  <advance width="671"/>
  <unicode hex="003F"/>
  <guideline x="349" y="359" angle="0"/>
  <outline>
    <contour>
      <point x="357" y="359" type="line"/>
      <point x="428" y="451"/>
      <point x="626" y="482"/>
      <point x="626" y="725" type="curve" smooth="yes"/>
      <point x="626" y="891"/>
      <point x="517" y="998"/>
      <point x="343" y="998" type="curve" smooth="yes"/>
      <point x="161" y="998"/>
      <point x="61" y="895"/>
      <point x="61" y="731" type="curve" smooth="yes"/>
      <point x="61" y="712"/>
      <point x="63" y="691"/>
      <point x="65" y="676" type="curve"/>
      <point x="152" y="676" type="line"/>
      <point x="152" y="682" type="line" smooth="yes"/>
      <point x="152" y="786"/>
      <point x="244" y="807"/>
      <point x="332" y="807" type="curve" smooth="yes"/>
      <point x="433" y="807"/>
      <point x="501" y="776"/>
      <point x="501" y="684" type="curve" smooth="yes"/>
      <point x="501" y="529"/>
      <point x="251" y="470"/>
      <point x="258" y="359" type="curve"/>
    </contour>
    <contour>
      <point x="309" y="-4" type="curve" smooth="yes"/>
      <point x="391" y="-4"/>
      <point x="443" y="47"/>
      <point x="443" y="126" type="curve" smooth="yes"/>
      <point x="443" y="207"/>
      <point x="391" y="258"/>
      <point x="309" y="258" type="curve"/>
      <point x="227" y="258"/>
      <point x="175" y="207"/>
      <point x="175" y="126" type="curve" smooth="yes"/>
      <point x="175" y="47"/>
      <point x="227" y="-4"/>
    </contour>
    <contour>
      <point x="309" y="82" type="curve" smooth="yes"/>
      <point x="257" y="82"/>
      <point x="235" y="100"/>
      <point x="235" y="126" type="curve" smooth="yes"/>
      <point x="235" y="153"/>
      <point x="257" y="172"/>
      <point x="309" y="172" type="curve" smooth="yes"/>
      <point x="361" y="172"/>
      <point x="383" y="153"/>
      <point x="383" y="126" type="curve" smooth="yes"/>
      <point x="383" y="100"/>
      <point x="361" y="82"/>
    </contour>
  </outline>
</glyph>
<glyph name="ka" format="2">
  <advance width="1029"/>
  <unicode hex="1000"/>
  <outline>
    <contour>
      <point x="351" y="-10" type="line"/>
      <point x="422" y="-6"/>
      <point x="483" y="24"/>
      <point x="524" y="73" type="curve" smooth="yes"/>
      <point x="569" y="127"/>
      <point x="583" y="199"/>
      <point x="583" y="274" type="curve" smooth="yes"/>
      <point x="583" y="343"/>
      <point x="571" y="418"/>
      <point x="525" y="473" type="curve" smooth="yes"/>
      <point x="483" y="523"/>
      <point x="415" y="556"/>
      <point x="325" y="556" type="curve" smooth="yes"/>
      <point x="303" y="556" type="line" smooth="yes"/>
      <point x="213" y="556"/>
      <point x="145" y="523"/>
      <point x="103" y="473" type="curve" smooth="yes"/>
      <point x="57" y="418"/>
      <point x="45" y="343"/>
      <point x="45" y="274" type="curve" smooth="yes"/>
      <point x="45" y="199"/>
      <point x="59" y="127"/>
      <point x="104" y="73" type="curve" smooth="yes"/>
      <point x="147" y="21"/>
      <point x="212" y="-7"/>
      <point x="277" y="-10" type="curve"/>
      <point x="277" y="182" type="line"/>
      <point x="199" y="185"/>
      <point x="126" y="206"/>
      <point x="126" y="270" type="curve" smooth="yes"/>
      <point x="126" y="276" type="line" smooth="yes"/>
      <point x="126" y="349"/>
      <point x="218" y="365"/>
      <point x="314" y="365" type="curve" smooth="yes"/>
      <point x="410" y="365"/>
      <point x="502" y="349"/>
      <point x="502" y="276" type="curve" smooth="yes"/>
      <point x="502" y="270" type="line" smooth="yes"/>
      <point x="502" y="206"/>
      <point x="429" y="185"/>
      <point x="351" y="182" type="curve"/>
    </contour>
    <contour>
      <point x="504" y="473" type="curve"/>
      <point x="567" y="340" type="line"/>
      <point x="603" y="359"/>
      <point x="658" y="365"/>
      <point x="715" y="365" type="curve" smooth="yes"/>
      <point x="811" y="365"/>
      <point x="903" y="349"/>
      <point x="903" y="276" type="curve" smooth="yes"/>
      <point x="903" y="270" type="line" smooth="yes"/>
      <point x="903" y="197"/>
      <point x="811" y="181"/>
      <point x="715" y="181" type="curve" smooth="yes"/>
      <point x="673" y="181" type="line"/>
      <point x="673" y="-6" type="line"/>
      <point x="691" y="-10"/>
      <point x="709" y="-10"/>
      <point x="726" y="-10" type="curve" smooth="yes"/>
      <point x="817" y="-10"/>
      <point x="887" y="25"/>
      <point x="930" y="78" type="curve" smooth="yes"/>
      <point x="968" y="126"/>
      <point x="984" y="188"/>
      <point x="984" y="273" type="curve" smooth="yes"/>
      <point x="984" y="358"/>
      <point x="968" y="420"/>
      <point x="930" y="468" type="curve" smooth="yes"/>
      <point x="887" y="521"/>
      <point x="817" y="556"/>
      <point x="726" y="556" type="curve" smooth="yes"/>
      <point x="704" y="556" type="line" smooth="yes"/>
      <point x="613" y="556"/>
      <point x="543" y="521"/>
    </contour>
  </outline>
</glyph>
<glyph name="nga" format="2">
  <advance width="628"/>
  <unicode hex="1004"/>
  <outline>
    <contour>
      <point x="497" y="243" type="line"/>
      <point x="481" y="201"/>
      <point x="418" y="181"/>
      <point x="314" y="181" type="curve" smooth="yes"/>
      <point x="218" y="181"/>
      <point x="126" y="197"/>
      <point x="126" y="270" type="curve" smooth="yes"/>
      <point x="126" y="276" type="line" smooth="yes"/>
      <point x="126" y="349"/>
      <point x="218" y="365"/>
      <point x="314" y="365" type="curve" smooth="yes"/>
      <point x="418" y="365"/>
      <point x="483" y="345"/>
      <point x="497" y="303" type="curve"/>
      <point x="581" y="303" type="line"/>
      <point x="578" y="461"/>
      <point x="480" y="556"/>
      <point x="325" y="556" type="curve" smooth="yes"/>
      <point x="303" y="556" type="line" smooth="yes"/>
      <point x="214" y="556"/>
      <point x="147" y="527"/>
      <point x="103" y="473" type="curve" smooth="yes"/>
      <point x="65" y="425"/>
      <point x="45" y="358"/>
      <point x="45" y="273" type="curve" smooth="yes"/>
      <point x="45" y="189"/>
      <point x="65" y="122"/>
      <point x="103" y="73" type="curve" smooth="yes"/>
      <point x="147" y="19"/>
      <point x="214" y="-10"/>
      <point x="303" y="-10" type="curve" smooth="yes"/>
      <point x="325" y="-10" type="line" smooth="yes"/>
      <point x="478" y="-10"/>
      <point x="578" y="83"/>
      <point x="581" y="243" type="curve"/>
    </contour>
  </outline>
</glyph>
<glyph name="ca" format="2">
  <advance width="628"/>
  <unicode hex="1005"/>
  <note>
ca
</note>
  <outline>
    <contour>
      <point x="215" y="183" type="curve" smooth="yes"/>
      <point x="349" y="183"/>
      <point x="378" y="216"/>
      <point x="378" y="273" type="curve" smooth="yes"/>
      <point x="378" y="330"/>
      <point x="349" y="364"/>
      <point x="215" y="364" type="curve" smooth="yes"/>
      <point x="116" y="364"/>
      <point x="69" y="323"/>
      <point x="69" y="273" type="curve" smooth="yes"/>
      <point x="69" y="223"/>
      <point x="116" y="183"/>
    </contour>
    <contour>
      <point x="188" y="237" type="curve" smooth="yes"/>
      <point x="134" y="237"/>
      <point x="111" y="250"/>
      <point x="111" y="274" type="curve" smooth="yes"/>
      <point x="111" y="297"/>
      <point x="134" y="309"/>
      <point x="188" y="309" type="curve" smooth="yes"/>
      <point x="242" y="309"/>
      <point x="264" y="297"/>
      <point x="264" y="274" type="curve" smooth="yes"/>
      <point x="264" y="250"/>
      <point x="242" y="237"/>
    </contour>
    <contour>
      <point x="303" y="556" type="line" smooth="yes"/>
      <point x="212" y="556"/>
      <point x="142" y="521"/>
      <point x="99" y="469" type="curve" smooth="yes"/>
      <point x="60" y="420"/>
      <point x="45" y="358"/>
      <point x="45" y="273" type="curve" smooth="yes"/>
      <point x="45" y="188"/>
      <point x="61" y="126"/>
      <point x="99" y="78" type="curve" smooth="yes"/>
      <point x="142" y="25"/>
      <point x="212" y="-10"/>
      <point x="303" y="-10" type="curve" smooth="yes"/>
      <point x="325" y="-10" type="line" smooth="yes"/>
      <point x="416" y="-10"/>
      <point x="486" y="25"/>
      <point x="529" y="77" type="curve" smooth="yes"/>
      <point x="568" y="126"/>
      <point x="583" y="188"/>
      <point x="583" y="273" type="curve" smooth="yes"/>
      <point x="583" y="358"/>
      <point x="567" y="420"/>
      <point x="529" y="468" type="curve" smooth="yes"/>
      <point x="486" y="521"/>
      <point x="416" y="556"/>
      <point x="325" y="556" type="curve" smooth="yes"/>
    </contour>
    <contour>
      <point x="301" y="154" type="curve" smooth="yes"/>
      <point x="198" y="154"/>
      <point x="100" y="175"/>
      <point x="100" y="269" type="curve" smooth="yes"/>
      <point x="100" y="277" type="line" smooth="yes"/>
      <point x="100" y="371"/>
      <point x="198" y="392"/>
      <point x="301" y="392" type="curve" smooth="yes"/>
      <point x="404" y="392"/>
      <point x="502" y="371"/>
      <point x="502" y="277" type="curve" smooth="yes"/>
      <point x="502" y="269" type="line" smooth="yes"/>
      <point x="502" y="175"/>
      <point x="404" y="154"/>
    </contour>
  </outline>
</glyph>
<glyph name="cha" format="2">
  <advance width="1024"/>
  <unicode hex="1006"/>
  <note>
cha
</note>
  <outline>
    <contour>
      <point x="563" y="206" type="curve"/>
      <point x="499" y="73" type="line"/>
      <point x="538" y="25"/>
      <point x="608" y="-10"/>
      <point x="699" y="-10" type="curve" smooth="yes"/>
      <point x="721" y="-10" type="line" smooth="yes"/>
      <point x="812" y="-10"/>
      <point x="882" y="25"/>
      <point x="925" y="77" type="curve" smooth="yes"/>
      <point x="964" y="126"/>
      <point x="979" y="188"/>
      <point x="979" y="273" type="curve" smooth="yes"/>
      <point x="979" y="358"/>
      <point x="963" y="420"/>
      <point x="925" y="468" type="curve" smooth="yes"/>
      <point x="882" y="521"/>
      <point x="812" y="556"/>
      <point x="721" y="556" type="curve" smooth="yes"/>
      <point x="699" y="556" type="line" smooth="yes"/>
      <point x="608" y="556"/>
      <point x="538" y="521"/>
      <point x="499" y="473" type="curve"/>
      <point x="563" y="340" type="line"/>
      <point x="599" y="360"/>
      <point x="654" y="365"/>
      <point x="710" y="365" type="curve" smooth="yes"/>
      <point x="806" y="365"/>
      <point x="898" y="349"/>
      <point x="898" y="276" type="curve" smooth="yes"/>
      <point x="898" y="270" type="line" smooth="yes"/>
      <point x="898" y="197"/>
      <point x="806" y="181"/>
      <point x="710" y="181" type="curve" smooth="yes"/>
      <point x="654" y="181"/>
      <point x="598" y="187"/>
    </contour>
    <component base="kha"/>
  </outline>
</glyph>
<glyph name="ja" format="2">
  <advance width="692"/>
  <unicode hex="1007"/>
  <note>
ja
</note>
  <outline>
    <contour>
      <point x="299" y="365" type="curve"/>
      <point x="296" y="502" type="line"/>
      <point x="251" y="469"/>
      <point x="226" y="421"/>
      <point x="226" y="367" type="curve" smooth="yes"/>
      <point x="226" y="301"/>
      <point x="251" y="239"/>
      <point x="403" y="239" type="curve" smooth="yes"/>
      <point x="555" y="239"/>
      <point x="580" y="301"/>
      <point x="580" y="367" type="curve" smooth="yes"/>
      <point x="580" y="475"/>
      <point x="480" y="556"/>
      <point x="325" y="556" type="curve" smooth="yes"/>
      <point x="318" y="556" type="line" smooth="yes"/>
      <point x="222" y="556"/>
      <point x="147" y="527"/>
      <point x="100" y="467" type="curve" smooth="yes"/>
      <point x="64" y="421"/>
      <point x="45" y="356"/>
      <point x="45" y="273" type="curve" smooth="yes"/>
      <point x="45" y="191"/>
      <point x="64" y="125"/>
      <point x="100" y="77" type="curve" smooth="yes"/>
      <point x="143" y="20"/>
      <point x="211" y="-10"/>
      <point x="303" y="-10" type="curve" smooth="yes"/>
      <point x="325" y="-10" type="line" smooth="yes"/>
      <point x="476" y="-10"/>
      <point x="570" y="78"/>
      <point x="580" y="214" type="curve"/>
      <point x="496" y="214" type="line"/>
      <point x="481" y="189"/>
      <point x="417" y="181"/>
      <point x="314" y="181" type="curve"/>
      <point x="218" y="181"/>
      <point x="126" y="197"/>
      <point x="126" y="270" type="curve" smooth="yes"/>
      <point x="126" y="276" type="line" smooth="yes"/>
      <point x="126" y="349"/>
      <point x="203" y="365"/>
    </contour>
    <contour>
      <point x="400" y="365" type="curve" smooth="yes"/>
      <point x="470" y="365"/>
      <point x="502" y="356"/>
      <point x="502" y="336" type="curve" smooth="yes"/>
      <point x="502" y="310"/>
      <point x="473" y="305"/>
      <point x="431" y="305" type="curve" smooth="yes"/>
      <point x="374" y="305" type="line" smooth="yes"/>
      <point x="332" y="305"/>
      <point x="303" y="310"/>
      <point x="303" y="336" type="curve" smooth="yes"/>
      <point x="303" y="356"/>
      <point x="335" y="365"/>
    </contour>
    <contour>
      <point x="680" y="289" type="line"/>
      <point x="633" y="290"/>
      <point x="571" y="295"/>
      <point x="571" y="377" type="curve"/>
      <point x="512" y="355" type="line"/>
      <point x="512" y="253"/>
      <point x="595" y="219"/>
      <point x="680" y="223" type="curve"/>
    </contour>
  </outline>
</glyph>
<glyph name="jha" format="2">
  <advance width="822"/>
  <unicode hex="1008"/>
  <outline>
    <contour>
      <point x="772" y="546" type="line"/>
      <point x="678" y="546" type="line"/>
      <point x="678" y="-287" type="line" smooth="yes"/>
      <point x="678" y="-349"/>
      <point x="645" y="-373"/>
      <point x="575" y="-373" type="curve" smooth="yes"/>
      <point x="505" y="-373"/>
      <point x="471" y="-351"/>
      <point x="471" y="-287" type="curve" smooth="yes"/>
      <point x="471" y="103" type="line"/>
      <point x="377" y="103" type="line"/>
      <point x="377" y="-346" type="line" smooth="yes"/>
      <point x="377" y="-486"/>
      <point x="432" y="-552"/>
      <point x="575" y="-552" type="curve" smooth="yes"/>
      <point x="718" y="-552"/>
      <point x="772" y="-486"/>
      <point x="772" y="-346" type="curve" smooth="yes"/>
    </contour>
    <component base="ca"/>
  </outline>
</glyph>
<glyph name="nnya" format="2">
  <advance width="1021"/>
  <unicode hex="100A"/>
  <outline>
    <contour>
      <point x="976" y="-236" type="line"/>
      <point x="894" y="-236" type="line"/>
      <point x="894" y="-246" type="line" smooth="yes"/>
      <point x="894" y="-302"/>
      <point x="877" y="-336"/>
      <point x="840" y="-351" type="curve" smooth="yes"/>
      <point x="793" y="-368"/>
      <point x="700" y="-373"/>
      <point x="515" y="-373" type="curve" smooth="yes"/>
      <point x="331" y="-373"/>
      <point x="237" y="-368"/>
      <point x="192" y="-351" type="curve" smooth="yes"/>
      <point x="154" y="-336"/>
      <point x="137" y="-302"/>
      <point x="137" y="-246" type="curve" smooth="yes"/>
      <point x="137" y="137" type="line"/>
      <point x="47" y="243" type="line"/>
      <point x="47" y="-323" type="line" smooth="yes"/>
      <point x="47" y="-431"/>
      <point x="78" y="-475"/>
      <point x="113" y="-501" type="curve" smooth="yes"/>
      <point x="177" y="-539"/>
      <point x="278" y="-552"/>
      <point x="511" y="-552" type="curve" smooth="yes"/>
      <point x="744" y="-552"/>
      <point x="846" y="-539"/>
      <point x="910" y="-501" type="curve" smooth="yes"/>
      <point x="944" y="-475"/>
      <point x="976" y="-431"/>
      <point x="976" y="-323" type="curve" smooth="yes"/>
    </contour>
    <component base="nga" xScale="-1" yScale="-1" xOffset="628" yOffset="546"/>
    <component base="_aa" yScale="-1" xOffset="620" yOffset="546"/>
  </outline>
</glyph>
<glyph name="tta" format="2">
  <advance width="628"/>
  <unicode hex="100B"/>
  <outline>
    <contour>
      <point x="45" y="33" type="line"/>
      <point x="45" y="-216" type="line" smooth="yes"/>
      <point x="45" y="-318"/>
      <point x="71" y="-360"/>
      <point x="99" y="-384" type="curve" smooth="yes"/>
      <point x="144" y="-421"/>
      <point x="214" y="-430"/>
      <point x="310" y="-430" type="curve" smooth="yes"/>
      <point x="406" y="-430"/>
      <point x="476" y="-421"/>
      <point x="521" y="-384" type="curve" smooth="yes"/>
      <point x="549" y="-360"/>
      <point x="575" y="-318"/>
      <point x="575" y="-216" type="curve" smooth="yes"/>
      <point x="575" y="-200" type="line"/>
      <point x="501" y="-200" type="line"/>
      <point x="501" y="-237"/>
      <point x="486" y="-253"/>
      <point x="457" y="-268" type="curve" smooth="yes"/>
      <point x="428" y="-283"/>
      <point x="369" y="-288"/>
      <point x="314" y="-288" type="curve" smooth="yes"/>
      <point x="258" y="-288"/>
      <point x="199" y="-283"/>
      <point x="170" y="-268" type="curve" smooth="yes"/>
      <point x="139" y="-253"/>
      <point x="126" y="-222"/>
      <point x="126" y="-169" type="curve" smooth="yes"/>
      <point x="126" y="-98" type="line"/>
    </contour>
    <contour>
      <point x="581" y="249" type="line"/>
      <point x="500" y="219" type="line"/>
      <point x="500" y="48" type="line" smooth="yes"/>
      <point x="500" y="-5"/>
      <point x="487" y="-36"/>
      <point x="456" y="-51" type="curve" smooth="yes"/>
      <point x="427" y="-66"/>
      <point x="368" y="-71"/>
      <point x="312" y="-71" type="curve" smooth="yes"/>
      <point x="257" y="-71"/>
      <point x="198" y="-66"/>
      <point x="169" y="-51" type="curve" smooth="yes"/>
      <point x="139" y="-36"/>
      <point x="125" y="-11"/>
      <point x="125" y="37" type="curve"/>
      <point x="125" y="37" type="line"/>
      <point x="45" y="37" type="line"/>
      <point x="45" y="1" type="line" smooth="yes"/>
      <point x="45" y="-101"/>
      <point x="71" y="-143"/>
      <point x="100" y="-167" type="curve" smooth="yes"/>
      <point x="145" y="-204"/>
      <point x="216" y="-213"/>
      <point x="313" y="-213" type="curve" smooth="yes"/>
      <point x="410" y="-213"/>
      <point x="481" y="-204"/>
      <point x="526" y="-167" type="curve" smooth="yes"/>
      <point x="555" y="-143"/>
      <point x="581" y="-101"/>
      <point x="581" y="1" type="curve" smooth="yes"/>
    </contour>
    <contour>
      <point x="672" y="-384" type="line"/>
      <point x="656" y="-384" type="line" smooth="yes"/>
      <point x="599" y="-384"/>
      <point x="575" y="-352"/>
      <point x="575" y="-288" type="curve" smooth="yes"/>
      <point x="575" y="-208" type="line"/>
      <point x="500" y="-295" type="line"/>
      <point x="500" y="-378" type="line" smooth="yes"/>
      <point x="500" y="-486"/>
      <point x="537" y="-552"/>
      <point x="652" y="-552" type="curve" smooth="yes"/>
      <point x="662" y="-552"/>
      <point x="667" y="-552"/>
      <point x="672" y="-551" type="curve"/>
    </contour>
    <component base="nga" yScale="0.982" yOffset="10"/>
  </outline>
</glyph>
<glyph name="ttha" format="2">
  <advance width="628"/>
  <unicode hex="100C"/>
  <note>
ttha
</note>
  <outline>
    <contour>
      <point x="581" y="243" type="line"/>
      <point x="491" y="193" type="line"/>
      <point x="491" y="-270" type="line" smooth="yes"/>
      <point x="491" y="-323"/>
      <point x="478" y="-354"/>
      <point x="449" y="-369" type="curve" smooth="yes"/>
      <point x="421" y="-384"/>
      <point x="363" y="-389"/>
      <point x="309" y="-389" type="curve" smooth="yes"/>
      <point x="222" y="-389"/>
      <point x="128" y="-384"/>
      <point x="128" y="-318" type="curve" smooth="yes"/>
      <point x="128" y="-285"/>
      <point x="157" y="-264"/>
      <point x="208" y="-264" type="curve" smooth="yes"/>
      <point x="265" y="-264"/>
      <point x="291" y="-293"/>
      <point x="295" y="-329" type="curve"/>
      <point x="450" y="-329" type="line"/>
      <point x="443" y="-241"/>
      <point x="366" y="-184"/>
      <point x="244" y="-184" type="curve" smooth="yes"/>
      <point x="112" y="-184"/>
      <point x="45" y="-255"/>
      <point x="45" y="-367" type="curve" smooth="yes"/>
      <point x="45" y="-437"/>
      <point x="74" y="-479"/>
      <point x="104" y="-504" type="curve" smooth="yes"/>
      <point x="148" y="-540"/>
      <point x="216" y="-552"/>
      <point x="313" y="-552" type="curve" smooth="yes"/>
      <point x="410" y="-552"/>
      <point x="481" y="-543"/>
      <point x="526" y="-506" type="curve" smooth="yes"/>
      <point x="555" y="-482"/>
      <point x="581" y="-440"/>
      <point x="581" y="-338" type="curve" smooth="yes"/>
    </contour>
    <component base="nga"/>
  </outline>
</glyph>
<glyph name="dda" format="2">
  <advance width="628"/>
  <unicode hex="100D"/>
  <note>
dda
</note>
  <outline>
    <contour>
      <point x="47" y="244" type="line"/>
      <point x="47" y="-37" type="line" smooth="yes"/>
      <point x="47" y="-139"/>
      <point x="73" y="-181"/>
      <point x="102" y="-205" type="curve" smooth="yes"/>
      <point x="147" y="-242"/>
      <point x="218" y="-251"/>
      <point x="315" y="-251" type="curve" smooth="yes"/>
      <point x="412" y="-251"/>
      <point x="483" y="-242"/>
      <point x="528" y="-205" type="curve" smooth="yes"/>
      <point x="557" y="-181"/>
      <point x="583" y="-139"/>
      <point x="583" y="-37" type="curve" smooth="yes"/>
      <point x="583" y="24" type="line"/>
      <point x="501" y="24" type="line"/>
      <point x="501" y="-24"/>
      <point x="487" y="-49"/>
      <point x="458" y="-64" type="curve" smooth="yes"/>
      <point x="430" y="-79"/>
      <point x="373" y="-84"/>
      <point x="319" y="-84" type="curve" smooth="yes"/>
      <point x="264" y="-84"/>
      <point x="207" y="-79"/>
      <point x="179" y="-64" type="curve" smooth="yes"/>
      <point x="149" y="-49"/>
      <point x="136" y="-18"/>
      <point x="136" y="35" type="curve" smooth="yes"/>
      <point x="136" y="181" type="line"/>
    </contour>
    <contour>
      <point x="680" y="-374" type="line"/>
      <point x="664" y="-374" type="line" smooth="yes"/>
      <point x="607" y="-374"/>
      <point x="583" y="-352"/>
      <point x="583" y="-288" type="curve" smooth="yes"/>
      <point x="583" y="-6" type="line"/>
      <point x="502" y="-116" type="line"/>
      <point x="502" y="-346" type="line" smooth="yes"/>
      <point x="502" y="-486"/>
      <point x="539" y="-552"/>
      <point x="664" y="-552" type="curve" smooth="yes"/>
      <point x="669" y="-552"/>
      <point x="675" y="-552"/>
      <point x="680" y="-551" type="curve"/>
    </contour>
    <component base="nga" xScale="-1" xOffset="628"/>
  </outline>
</glyph>
<glyph name="ddha" format="2">
  <advance width="644"/>
  <unicode hex="100E"/>
  <note>
ddha
</note>
  <outline>
    <contour>
      <point x="309" y="-10" type="curve" smooth="yes"/>
      <point x="326" y="-10" type="line" smooth="yes"/>
      <point x="431" y="-10"/>
      <point x="499" y="23"/>
      <point x="541" y="73" type="curve" smooth="yes"/>
      <point x="587" y="128"/>
      <point x="599" y="203"/>
      <point x="599" y="272" type="curve" smooth="yes"/>
      <point x="599" y="347"/>
      <point x="585" y="419"/>
      <point x="540" y="473" type="curve" smooth="yes"/>
      <point x="499" y="522"/>
      <point x="438" y="552"/>
      <point x="367" y="556" type="curve"/>
      <point x="367" y="364" type="line"/>
      <point x="445" y="361"/>
      <point x="518" y="340"/>
      <point x="518" y="276" type="curve" smooth="yes"/>
      <point x="518" y="270" type="line" smooth="yes"/>
      <point x="518" y="197"/>
      <point x="426" y="181"/>
      <point x="330" y="181" type="curve" smooth="yes"/>
      <point x="234" y="181"/>
      <point x="178" y="192"/>
      <point x="178" y="243" type="curve" smooth="yes"/>
      <point x="178" y="319"/>
      <point x="297" y="342"/>
      <point x="297" y="445" type="curve" smooth="yes"/>
      <point x="297" y="510"/>
      <point x="250" y="556"/>
      <point x="174" y="556" type="curve" smooth="yes"/>
      <point x="94" y="556"/>
      <point x="27" y="504"/>
      <point x="42" y="383" type="curve"/>
      <point x="92" y="383" type="line"/>
      <point x="96" y="397"/>
      <point x="109" y="410"/>
      <point x="128" y="410" type="curve" smooth="yes"/>
      <point x="152" y="410"/>
      <point x="163" y="394"/>
      <point x="163" y="374" type="curve" smooth="yes"/>
      <point x="163" y="312"/>
      <point x="61" y="274"/>
      <point x="61" y="162" type="curve" smooth="yes"/>
      <point x="61" y="53"/>
      <point x="162" y="-10"/>
    </contour>
  </outline>
</glyph>
<glyph name="nna" format="2">
  <advance width="1178"/>
  <unicode hex="100F"/>
  <note>
nna
</note>
  <outline>
    <contour>
      <point x="822" y="181" type="line"/>
      <point x="822" y="-6" type="line"/>
      <point x="840" y="-10"/>
      <point x="858" y="-10"/>
      <point x="875" y="-10" type="curve" smooth="yes"/>
      <point x="966" y="-10"/>
      <point x="1036" y="25"/>
      <point x="1079" y="78" type="curve" smooth="yes"/>
      <point x="1117" y="126"/>
      <point x="1133" y="188"/>
      <point x="1133" y="273" type="curve" smooth="yes"/>
      <point x="1133" y="358"/>
      <point x="1117" y="420"/>
      <point x="1079" y="468" type="curve" smooth="yes"/>
      <point x="1037" y="521"/>
      <point x="966" y="556"/>
      <point x="875" y="556" type="curve" smooth="yes"/>
      <point x="857" y="556" type="line" smooth="yes"/>
      <point x="718" y="556"/>
      <point x="621" y="466"/>
      <point x="621" y="363" type="curve" smooth="yes"/>
      <point x="621" y="307"/>
      <point x="640" y="267"/>
      <point x="640" y="215" type="curve" smooth="yes"/>
      <point x="640" y="173"/>
      <point x="624" y="145"/>
      <point x="589" y="145" type="curve" smooth="yes"/>
      <point x="554" y="145"/>
      <point x="538" y="173"/>
      <point x="538" y="215" type="curve" smooth="yes"/>
      <point x="538" y="267"/>
      <point x="557" y="307"/>
      <point x="557" y="363" type="curve" smooth="yes"/>
      <point x="557" y="466"/>
      <point x="460" y="556"/>
      <point x="321" y="556" type="curve" smooth="yes"/>
      <point x="303" y="556" type="line" smooth="yes"/>
      <point x="212" y="556"/>
      <point x="142" y="521"/>
      <point x="99" y="468" type="curve" smooth="yes"/>
      <point x="61" y="420"/>
      <point x="45" y="358"/>
      <point x="45" y="273" type="curve" smooth="yes"/>
      <point x="45" y="188"/>
      <point x="61" y="126"/>
      <point x="99" y="78" type="curve" smooth="yes"/>
      <point x="141" y="25"/>
      <point x="212" y="-10"/>
      <point x="303" y="-10" type="curve" smooth="yes"/>
      <point x="320" y="-10"/>
      <point x="338" y="-10"/>
      <point x="356" y="-6" type="curve"/>
      <point x="356" y="181" type="line"/>
      <point x="314" y="181" type="line" smooth="yes"/>
      <point x="218" y="181"/>
      <point x="126" y="197"/>
      <point x="126" y="270" type="curve" smooth="yes"/>
      <point x="126" y="276" type="line" smooth="yes"/>
      <point x="126" y="349"/>
      <point x="218" y="365"/>
      <point x="314" y="365" type="curve" smooth="yes"/>
      <point x="391" y="365"/>
      <point x="463" y="346"/>
      <point x="463" y="289" type="curve" smooth="yes"/>
      <point x="463" y="239"/>
      <point x="437" y="197"/>
      <point x="437" y="139" type="curve" smooth="yes"/>
      <point x="437" y="40"/>
      <point x="494" y="-11"/>
      <point x="586" y="-11" type="curve" smooth="yes"/>
      <point x="592" y="-11" type="line" smooth="yes"/>
      <point x="684" y="-11"/>
      <point x="741" y="40"/>
      <point x="741" y="139" type="curve" smooth="yes"/>
      <point x="741" y="197"/>
      <point x="715" y="239"/>
      <point x="715" y="289" type="curve" smooth="yes"/>
      <point x="715" y="346"/>
      <point x="787" y="365"/>
      <point x="864" y="365" type="curve" smooth="yes"/>
      <point x="960" y="365"/>
      <point x="1052" y="349"/>
      <point x="1052" y="276" type="curve" smooth="yes"/>
      <point x="1052" y="270" type="line" smooth="yes"/>
      <point x="1052" y="197"/>
      <point x="960" y="181"/>
      <point x="864" y="181" type="curve" smooth="yes"/>
    </contour>
    <contour>
      <point x="589" y="557" type="curve" smooth="yes"/>
      <point x="521" y="557"/>
      <point x="473" y="520"/>
      <point x="462" y="483" type="curve"/>
      <point x="510" y="369" type="line"/>
      <point x="519" y="406"/>
      <point x="548" y="425"/>
      <point x="589" y="425" type="curve" smooth="yes"/>
      <point x="630" y="425"/>
      <point x="659" y="406"/>
      <point x="668" y="369" type="curve"/>
      <point x="716" y="483" type="line"/>
      <point x="705" y="520"/>
      <point x="657" y="557"/>
    </contour>
  </outline>
</glyph>
<glyph name="ta" format="2">
  <advance width="1029"/>
  <unicode hex="1010"/>
  <outline>
    <contour>
      <point x="303" y="556" type="line" smooth="yes"/>
      <point x="212" y="556"/>
      <point x="142" y="521"/>
      <point x="99" y="469" type="curve" smooth="yes"/>
      <point x="59" y="421"/>
      <point x="45" y="358"/>
      <point x="45" y="273" type="curve" smooth="yes"/>
      <point x="45" y="188"/>
      <point x="61" y="126"/>
      <point x="99" y="78" type="curve" smooth="yes"/>
      <point x="141" y="24"/>
      <point x="212" y="-10"/>
      <point x="303" y="-10" type="curve" smooth="yes"/>
      <point x="325" y="-10" type="line" smooth="yes"/>
      <point x="416" y="-10"/>
      <point x="486" y="25"/>
      <point x="529" y="77" type="curve" smooth="yes"/>
      <point x="569" y="125"/>
      <point x="583" y="188"/>
      <point x="583" y="273" type="curve" smooth="yes"/>
      <point x="583" y="358"/>
      <point x="567" y="420"/>
      <point x="529" y="468" type="curve" smooth="yes"/>
      <point x="487" y="522"/>
      <point x="416" y="556"/>
      <point x="325" y="556" type="curve" smooth="yes"/>
    </contour>
    <contour>
      <point x="314" y="181" type="curve" smooth="yes"/>
      <point x="218" y="181"/>
      <point x="126" y="197"/>
      <point x="126" y="270" type="curve" smooth="yes"/>
      <point x="126" y="276" type="line" smooth="yes"/>
      <point x="126" y="349"/>
      <point x="218" y="365"/>
      <point x="314" y="365" type="curve" smooth="yes"/>
      <point x="410" y="365"/>
      <point x="502" y="349"/>
      <point x="502" y="276" type="curve" smooth="yes"/>
      <point x="502" y="270" type="line" smooth="yes"/>
      <point x="502" y="197"/>
      <point x="410" y="181"/>
    </contour>
    <contour>
      <point x="504" y="473" type="curve"/>
      <point x="567" y="340" type="line"/>
      <point x="603" y="359"/>
      <point x="658" y="365"/>
      <point x="715" y="365" type="curve" smooth="yes"/>
      <point x="811" y="365"/>
      <point x="903" y="349"/>
      <point x="903" y="276" type="curve" smooth="yes"/>
      <point x="903" y="270" type="line" smooth="yes"/>
      <point x="903" y="197"/>
      <point x="811" y="181"/>
      <point x="715" y="181" type="curve" smooth="yes"/>
      <point x="673" y="181" type="line"/>
      <point x="673" y="-6" type="line"/>
      <point x="691" y="-10"/>
      <point x="709" y="-10"/>
      <point x="726" y="-10" type="curve" smooth="yes"/>
      <point x="817" y="-10"/>
      <point x="887" y="25"/>
      <point x="930" y="78" type="curve" smooth="yes"/>
      <point x="969" y="126"/>
      <point x="984" y="188"/>
      <point x="984" y="273" type="curve" smooth="yes"/>
      <point x="984" y="358"/>
      <point x="968" y="420"/>
      <point x="930" y="468" type="curve" smooth="yes"/>
      <point x="888" y="522"/>
      <point x="817" y="556"/>
      <point x="726" y="556" type="curve" smooth="yes"/>
      <point x="704" y="556" type="line" smooth="yes"/>
      <point x="613" y="556"/>
      <point x="543" y="521"/>
    </contour>
  </outline>
</glyph>
<glyph name="tha" format="2">
  <advance width="1029"/>
  <unicode hex="1011"/>
  <note>
tha
</note>
  <outline>
    <contour>
      <point x="568" y="206" type="curve"/>
      <point x="504" y="73" type="line"/>
      <point x="543" y="25"/>
      <point x="613" y="-10"/>
      <point x="704" y="-10" type="curve" smooth="yes"/>
      <point x="726" y="-10" type="line" smooth="yes"/>
      <point x="817" y="-10"/>
      <point x="887" y="25"/>
      <point x="930" y="77" type="curve" smooth="yes"/>
      <point x="969" y="126"/>
      <point x="984" y="188"/>
      <point x="984" y="273" type="curve" smooth="yes"/>
      <point x="984" y="358"/>
      <point x="968" y="420"/>
      <point x="930" y="468" type="curve" smooth="yes"/>
      <point x="887" y="521"/>
      <point x="817" y="556"/>
      <point x="726" y="556" type="curve" smooth="yes"/>
      <point x="704" y="556" type="line" smooth="yes"/>
      <point x="613" y="556"/>
      <point x="543" y="521"/>
      <point x="504" y="473" type="curve"/>
      <point x="568" y="340" type="line"/>
      <point x="604" y="360"/>
      <point x="659" y="365"/>
      <point x="715" y="365" type="curve" smooth="yes"/>
      <point x="811" y="365"/>
      <point x="903" y="349"/>
      <point x="903" y="276" type="curve" smooth="yes"/>
      <point x="903" y="270" type="line" smooth="yes"/>
      <point x="903" y="197"/>
      <point x="811" y="181"/>
      <point x="715" y="181" type="curve" smooth="yes"/>
      <point x="659" y="181"/>
      <point x="603" y="187"/>
    </contour>
    <component base="wa"/>
  </outline>
</glyph>
<glyph name="da" format="2">
  <advance width="630"/>
  <unicode hex="1012"/>
  <note>
da
</note>
  <outline>
    <contour>
      <point x="578" y="398" type="curve" smooth="yes"/>
      <point x="578" y="486"/>
      <point x="510" y="556"/>
      <point x="337" y="556" type="curve" smooth="yes"/>
      <point x="316" y="556" type="line" smooth="yes"/>
      <point x="164" y="556"/>
      <point x="46" y="511"/>
      <point x="64" y="320" type="curve"/>
      <point x="148" y="320" type="line"/>
      <point x="162" y="378"/>
      <point x="220" y="398"/>
      <point x="317" y="398" type="curve" smooth="yes"/>
      <point x="410" y="398"/>
      <point x="440" y="380"/>
      <point x="440" y="349" type="curve" smooth="yes"/>
      <point x="440" y="316"/>
      <point x="398" y="308"/>
      <point x="339" y="308" type="curve" smooth="yes"/>
      <point x="227" y="308" type="line"/>
      <point x="227" y="238" type="line"/>
      <point x="339" y="238" type="line" smooth="yes"/>
      <point x="398" y="238"/>
      <point x="440" y="230"/>
      <point x="440" y="197" type="curve" smooth="yes"/>
      <point x="440" y="166"/>
      <point x="410" y="148"/>
      <point x="317" y="148" type="curve" smooth="yes"/>
      <point x="220" y="148"/>
      <point x="162" y="168"/>
      <point x="148" y="226" type="curve"/>
      <point x="64" y="226" type="line"/>
      <point x="46" y="35"/>
      <point x="164" y="-10"/>
      <point x="316" y="-10" type="curve" smooth="yes"/>
      <point x="337" y="-10" type="line" smooth="yes"/>
      <point x="510" y="-10"/>
      <point x="578" y="60"/>
      <point x="578" y="148" type="curve" smooth="yes"/>
      <point x="578" y="237"/>
      <point x="507" y="283"/>
      <point x="421" y="283" type="curve"/>
      <point x="421" y="263" type="line"/>
      <point x="507" y="263"/>
      <point x="578" y="309"/>
    </contour>
  </outline>
</glyph>
<glyph name="pa" format="2">
  <advance width="628"/>
  <unicode hex="1015"/>
  <outline>
    <contour>
      <point x="351" y="556" type="curve"/>
      <point x="351" y="364" type="line"/>
      <point x="429" y="361"/>
      <point x="502" y="340"/>
      <point x="502" y="276" type="curve" smooth="yes"/>
      <point x="502" y="270" type="line" smooth="yes"/>
      <point x="502" y="197"/>
      <point x="410" y="181"/>
      <point x="314" y="181" type="curve" smooth="yes"/>
      <point x="218" y="181"/>
      <point x="126" y="197"/>
      <point x="126" y="270" type="curve" smooth="yes"/>
      <point x="126" y="276" type="line" smooth="yes"/>
      <point x="126" y="340"/>
      <point x="199" y="361"/>
      <point x="277" y="364" type="curve"/>
      <point x="277" y="556" type="line"/>
      <point x="212" y="553"/>
      <point x="147" y="525"/>
      <point x="104" y="473" type="curve" smooth="yes"/>
      <point x="59" y="419"/>
      <point x="45" y="347"/>
      <point x="45" y="272" type="curve" smooth="yes"/>
      <point x="45" y="203"/>
      <point x="57" y="128"/>
      <point x="103" y="73" type="curve" smooth="yes"/>
      <point x="145" y="23"/>
      <point x="213" y="-10"/>
      <point x="303" y="-10" type="curve" smooth="yes"/>
      <point x="325" y="-10" type="line" smooth="yes"/>
      <point x="415" y="-10"/>
      <point x="483" y="23"/>
      <point x="525" y="73" type="curve" smooth="yes"/>
      <point x="571" y="128"/>
      <point x="583" y="203"/>
      <point x="583" y="272" type="curve" smooth="yes"/>
      <point x="583" y="347"/>
      <point x="569" y="419"/>
      <point x="524" y="473" type="curve" smooth="yes"/>
      <point x="483" y="522"/>
      <point x="422" y="552"/>
    </contour>
  </outline>
</glyph>
<glyph name="ba" format="2">
  <advance width="628"/>
  <unicode hex="1017"/>
  <note>
ba
</note>
  <outline>
    <contour>
      <point x="370" y="556" type="curve"/>
      <point x="373" y="526"/>
      <point x="377" y="501"/>
      <point x="377" y="464" type="curve" smooth="yes"/>
      <point x="377" y="407"/>
      <point x="355" y="379"/>
      <point x="314" y="379" type="curve" smooth="yes"/>
      <point x="278" y="379"/>
      <point x="251" y="403"/>
      <point x="251" y="464" type="curve" smooth="yes"/>
      <point x="251" y="501"/>
      <point x="255" y="526"/>
      <point x="258" y="556" type="curve"/>
      <point x="206" y="552"/>
      <point x="145" y="523"/>
      <point x="104" y="473" type="curve" smooth="yes"/>
      <point x="59" y="419"/>
      <point x="45" y="347"/>
      <point x="45" y="272" type="curve" smooth="yes"/>
      <point x="45" y="203"/>
      <point x="57" y="128"/>
      <point x="103" y="73" type="curve" smooth="yes"/>
      <point x="145" y="23"/>
      <point x="213" y="-10"/>
      <point x="303" y="-10" type="curve" smooth="yes"/>
      <point x="325" y="-10" type="line" smooth="yes"/>
      <point x="415" y="-10"/>
      <point x="483" y="23"/>
      <point x="525" y="73" type="curve" smooth="yes"/>
      <point x="571" y="128"/>
      <point x="583" y="203"/>
      <point x="583" y="272" type="curve" smooth="yes"/>
      <point x="583" y="347"/>
      <point x="569" y="419"/>
      <point x="524" y="473" type="curve" smooth="yes"/>
      <point x="483" y="523"/>
      <point x="423" y="552"/>
    </contour>
    <contour>
      <point x="314" y="248" type="curve" smooth="yes"/>
      <point x="387" y="248"/>
      <point x="427" y="293"/>
      <point x="427" y="362" type="curve" smooth="yes"/>
      <point x="427" y="394"/>
      <point x="418" y="413"/>
      <point x="421" y="428" type="curve"/>
      <point x="380" y="412" type="line"/>
      <point x="430" y="413"/>
      <point x="502" y="373"/>
      <point x="502" y="301" type="curve" smooth="yes"/>
      <point x="502" y="295" type="line" smooth="yes"/>
      <point x="502" y="202"/>
      <point x="410" y="181"/>
      <point x="314" y="181" type="curve" smooth="yes"/>
      <point x="218" y="181"/>
      <point x="126" y="202"/>
      <point x="126" y="295" type="curve" smooth="yes"/>
      <point x="126" y="301" type="line" smooth="yes"/>
      <point x="126" y="373"/>
      <point x="199" y="413"/>
      <point x="249" y="412" type="curve"/>
      <point x="207" y="428" type="line"/>
      <point x="210" y="413"/>
      <point x="202" y="394"/>
      <point x="202" y="362" type="curve" smooth="yes"/>
      <point x="202" y="293"/>
      <point x="242" y="248"/>
    </contour>
  </outline>
</glyph>
<glyph name="ma" format="2">
  <advance width="628"/>
  <unicode hex="1019"/>
  <outline>
    <contour>
      <point x="451" y="166" type="line"/>
      <point x="451" y="199" type="line" smooth="yes"/>
      <point x="451" y="274"/>
      <point x="407" y="309"/>
      <point x="312" y="309" type="curve" smooth="yes"/>
      <point x="218" y="309"/>
      <point x="174" y="274"/>
      <point x="174" y="199" type="curve" smooth="yes"/>
      <point x="174" y="166" type="line"/>
      <point x="226" y="166" type="line"/>
      <point x="226" y="183" type="line" smooth="yes"/>
      <point x="226" y="235"/>
      <point x="259" y="241"/>
      <point x="300" y="241" type="curve" smooth="yes"/>
      <point x="325" y="241" type="line" smooth="yes"/>
      <point x="366" y="241"/>
      <point x="399" y="235"/>
      <point x="399" y="183" type="curve" smooth="yes"/>
      <point x="399" y="166" type="line"/>
    </contour>
    <component base="pa"/>
  </outline>
</glyph>
<glyph name="la" format="2">
  <advance width="1048"/>
  <unicode hex="101C"/>
  <note>
la
</note>
  <outline>
    <contour>
      <point x="688" y="552" type="curve"/>
      <point x="688" y="365" type="line"/>
      <point x="734" y="365" type="line" smooth="yes"/>
      <point x="830" y="365"/>
      <point x="922" y="349"/>
      <point x="922" y="276" type="curve" smooth="yes"/>
      <point x="922" y="270" type="line" smooth="yes"/>
      <point x="922" y="197"/>
      <point x="836" y="181"/>
      <point x="747" y="181" type="curve" smooth="yes"/>
      <point x="618" y="181"/>
      <point x="570" y="218"/>
      <point x="555" y="294" type="curve" smooth="yes"/>
      <point x="541" y="366"/>
      <point x="532" y="422"/>
      <point x="492" y="473" type="curve" smooth="yes"/>
      <point x="453" y="523"/>
      <point x="393" y="556"/>
      <point x="299" y="556" type="curve" smooth="yes"/>
      <point x="134" y="556"/>
      <point x="45" y="453"/>
      <point x="45" y="274" type="curve" smooth="yes"/>
      <point x="45" y="202"/>
      <point x="57" y="128"/>
      <point x="103" y="73" type="curve" smooth="yes"/>
      <point x="145" y="23"/>
      <point x="213" y="-10"/>
      <point x="303" y="-10" type="curve" smooth="yes"/>
      <point x="320" y="-10"/>
      <point x="342" y="-10"/>
      <point x="360" y="-6" type="curve"/>
      <point x="360" y="181" type="line"/>
      <point x="314" y="181" type="line" smooth="yes"/>
      <point x="218" y="181"/>
      <point x="126" y="197"/>
      <point x="126" y="270" type="curve" smooth="yes"/>
      <point x="126" y="276" type="line" smooth="yes"/>
      <point x="126" y="349"/>
      <point x="212" y="365"/>
      <point x="300" y="365" type="curve" smooth="yes"/>
      <point x="429" y="365"/>
      <point x="478" y="328"/>
      <point x="493" y="252" type="curve" smooth="yes"/>
      <point x="507" y="180"/>
      <point x="516" y="124"/>
      <point x="555" y="73" type="curve" smooth="yes"/>
      <point x="594" y="23"/>
      <point x="654" y="-10"/>
      <point x="749" y="-10" type="curve" smooth="yes"/>
      <point x="914" y="-10"/>
      <point x="1003" y="93"/>
      <point x="1003" y="272" type="curve" smooth="yes"/>
      <point x="1003" y="344"/>
      <point x="991" y="418"/>
      <point x="945" y="473" type="curve" smooth="yes"/>
      <point x="903" y="523"/>
      <point x="835" y="556"/>
      <point x="745" y="556" type="curve" smooth="yes"/>
      <point x="728" y="556"/>
      <point x="706" y="556"/>
    </contour>
  </outline>
</glyph>
<glyph name="wa" format="2">
  <advance width="628"/>
  <unicode hex="101D"/>
  <outline>
    <contour>
      <point x="303" y="556" type="line" smooth="yes"/>
      <point x="212" y="556"/>
      <point x="142" y="521"/>
      <point x="99" y="469" type="curve" smooth="yes"/>
      <point x="60" y="420"/>
      <point x="45" y="358"/>
      <point x="45" y="273" type="curve" smooth="yes"/>
      <point x="45" y="188"/>
      <point x="61" y="126"/>
      <point x="99" y="78" type="curve" smooth="yes"/>
      <point x="142" y="25"/>
      <point x="212" y="-10"/>
      <point x="303" y="-10" type="curve" smooth="yes"/>
      <point x="325" y="-10" type="line" smooth="yes"/>
      <point x="416" y="-10"/>
      <point x="486" y="25"/>
      <point x="529" y="77" type="curve" smooth="yes"/>
      <point x="568" y="126"/>
      <point x="583" y="188"/>
      <point x="583" y="273" type="curve" smooth="yes"/>
      <point x="583" y="358"/>
      <point x="567" y="420"/>
      <point x="529" y="468" type="curve" smooth="yes"/>
      <point x="486" y="521"/>
      <point x="416" y="556"/>
      <point x="325" y="556" type="curve" smooth="yes"/>
    </contour>
    <contour>
      <point x="314" y="181" type="curve" smooth="yes"/>
      <point x="218" y="181"/>
      <point x="126" y="197"/>
      <point x="126" y="270" type="curve" smooth="yes"/>
      <point x="126" y="276" type="line" smooth="yes"/>
      <point x="126" y="349"/>
      <point x="218" y="365"/>
      <point x="314" y="365" type="curve" smooth="yes"/>
      <point x="410" y="365"/>
      <point x="502" y="349"/>
      <point x="502" y="276" type="curve" smooth="yes"/>
      <point x="502" y="270" type="line" smooth="yes"/>
      <point x="502" y="197"/>
      <point x="410" y="181"/>
    </contour>
  </outline>
</glyph>
<glyph name="sa" format="2">
  <advance width="1029"/>
  <unicode hex="101E"/>
  <note>
sa
</note>
  <outline>
    <contour>
      <point x="131" y="303" type="line"/>
      <point x="147" y="345"/>
      <point x="210" y="365"/>
      <point x="314" y="365" type="curve" smooth="yes"/>
      <point x="410" y="365"/>
      <point x="502" y="349"/>
      <point x="502" y="276" type="curve" smooth="yes"/>
      <point x="502" y="270" type="line" smooth="yes"/>
      <point x="502" y="197"/>
      <point x="410" y="181"/>
      <point x="314" y="181" type="curve" smooth="yes"/>
      <point x="210" y="181"/>
      <point x="145" y="201"/>
      <point x="131" y="243" type="curve"/>
      <point x="47" y="243" type="line"/>
      <point x="50" y="85"/>
      <point x="148" y="-10"/>
      <point x="303" y="-10" type="curve" smooth="yes"/>
      <point x="325" y="-10" type="line" smooth="yes"/>
      <point x="414" y="-10"/>
      <point x="481" y="19"/>
      <point x="525" y="73" type="curve" smooth="yes"/>
      <point x="563" y="121"/>
      <point x="583" y="188"/>
      <point x="583" y="273" type="curve" smooth="yes"/>
      <point x="583" y="357"/>
      <point x="563" y="424"/>
      <point x="525" y="473" type="curve" smooth="yes"/>
      <point x="481" y="527"/>
      <point x="414" y="556"/>
      <point x="325" y="556" type="curve" smooth="yes"/>
      <point x="303" y="556" type="line" smooth="yes"/>
      <point x="150" y="556"/>
      <point x="50" y="463"/>
      <point x="47" y="303" type="curve"/>
    </contour>
    <contour>
      <point x="504" y="73" type="line"/>
      <point x="543" y="25"/>
      <point x="613" y="-10"/>
      <point x="704" y="-10" type="curve" smooth="yes"/>
      <point x="726" y="-10" type="line" smooth="yes"/>
      <point x="817" y="-10"/>
      <point x="887" y="25"/>
      <point x="930" y="78" type="curve" smooth="yes"/>
      <point x="968" y="126"/>
      <point x="984" y="188"/>
      <point x="984" y="273" type="curve" smooth="yes"/>
      <point x="984" y="358"/>
      <point x="968" y="420"/>
      <point x="930" y="468" type="curve" smooth="yes"/>
      <point x="887" y="521"/>
      <point x="817" y="556"/>
      <point x="726" y="556" type="curve" smooth="yes"/>
      <point x="709" y="556"/>
      <point x="691" y="556"/>
      <point x="673" y="552" type="curve"/>
      <point x="673" y="365" type="line"/>
      <point x="715" y="365" type="line" smooth="yes"/>
      <point x="811" y="365"/>
      <point x="903" y="349"/>
      <point x="903" y="276" type="curve" smooth="yes"/>
      <point x="903" y="270" type="line" smooth="yes"/>
      <point x="903" y="197"/>
      <point x="811" y="181"/>
      <point x="715" y="181" type="curve" smooth="yes"/>
      <point x="658" y="181"/>
      <point x="603" y="187"/>
      <point x="567" y="206" type="curve"/>
    </contour>
  </outline>
</glyph>
<glyph name="lla" format="2">
  <advance width="628"/>
  <unicode hex="1020"/>
  <note>
lla
</note>
  <outline>
    <contour>
      <point x="581" y="244" type="line"/>
      <point x="492" y="181" type="line"/>
      <point x="492" y="35" type="line" smooth="yes"/>
      <point x="492" y="-18"/>
      <point x="479" y="-49"/>
      <point x="449" y="-64" type="curve" smooth="yes"/>
      <point x="421" y="-79"/>
      <point x="364" y="-84"/>
      <point x="309" y="-84" type="curve" smooth="yes"/>
      <point x="255" y="-84"/>
      <point x="198" y="-79"/>
      <point x="170" y="-64" type="curve" smooth="yes"/>
      <point x="141" y="-49"/>
      <point x="127" y="-24"/>
      <point x="127" y="24" type="curve"/>
      <point x="45" y="24" type="line"/>
      <point x="45" y="-37" type="line" smooth="yes"/>
      <point x="45" y="-139"/>
      <point x="71" y="-181"/>
      <point x="100" y="-205" type="curve" smooth="yes"/>
      <point x="145" y="-242"/>
      <point x="216" y="-251"/>
      <point x="313" y="-251" type="curve" smooth="yes"/>
      <point x="410" y="-251"/>
      <point x="481" y="-242"/>
      <point x="526" y="-205" type="curve" smooth="yes"/>
      <point x="555" y="-181"/>
      <point x="581" y="-139"/>
      <point x="581" y="-37" type="curve" smooth="yes"/>
    </contour>
    <contour>
      <point x="581" y="-277" type="line"/>
      <point x="499" y="-277" type="line"/>
      <point x="499" y="-325"/>
      <point x="485" y="-350"/>
      <point x="456" y="-365" type="curve" smooth="yes"/>
      <point x="428" y="-380"/>
      <point x="371" y="-385"/>
      <point x="317" y="-385" type="curve" smooth="yes"/>
      <point x="262" y="-385"/>
      <point x="205" y="-380"/>
      <point x="177" y="-365" type="curve" smooth="yes"/>
      <point x="147" y="-350"/>
      <point x="134" y="-319"/>
      <point x="134" y="-266" type="curve" smooth="yes"/>
      <point x="134" y="-120" type="line"/>
      <point x="45" y="-9" type="line"/>
      <point x="45" y="-338" type="line" smooth="yes"/>
      <point x="45" y="-440"/>
      <point x="71" y="-482"/>
      <point x="100" y="-506" type="curve" smooth="yes"/>
      <point x="145" y="-543"/>
      <point x="216" y="-552"/>
      <point x="313" y="-552" type="curve" smooth="yes"/>
      <point x="410" y="-552"/>
      <point x="481" y="-543"/>
      <point x="526" y="-506" type="curve" smooth="yes"/>
      <point x="555" y="-482"/>
      <point x="581" y="-440"/>
      <point x="581" y="-338" type="curve" smooth="yes"/>
    </contour>
    <component base="nga"/>
  </outline>
</glyph>
<glyph name="a_m" format="2">
  <advance width="1066"/>
  <unicode hex="1021"/>
  <note>
a_m
</note>
  <outline>
    <contour>
      <point x="763" y="556" type="curve" smooth="yes"/>
      <point x="741" y="556" type="line" smooth="yes"/>
      <point x="650" y="556"/>
      <point x="579" y="521"/>
      <point x="537" y="468" type="curve" smooth="yes"/>
      <point x="514" y="439"/>
      <point x="492" y="407"/>
      <point x="484" y="376" type="curve"/>
      <point x="560" y="311" type="line"/>
      <point x="614" y="358"/>
      <point x="682" y="365"/>
      <point x="752" y="365" type="curve" smooth="yes"/>
      <point x="849" y="365"/>
      <point x="940" y="353"/>
      <point x="940" y="265" type="curve" smooth="yes"/>
      <point x="940" y="261" type="line" smooth="yes"/>
      <point x="940" y="218"/>
      <point x="923" y="182"/>
      <point x="819" y="182" type="curve" smooth="yes"/>
      <point x="764" y="182" type="line" smooth="yes"/>
      <point x="718" y="182"/>
      <point x="689" y="190"/>
      <point x="689" y="212" type="curve" smooth="yes"/>
      <point x="689" y="234"/>
      <point x="718" y="241"/>
      <point x="764" y="241" type="curve" smooth="yes"/>
      <point x="819" y="241" type="line" smooth="yes"/>
      <point x="860" y="241"/>
      <point x="886" y="225"/>
      <point x="886" y="191" type="curve" smooth="yes"/>
      <point x="886" y="146" type="line"/>
      <point x="938" y="146" type="line"/>
      <point x="938" y="171" type="line" smooth="yes"/>
      <point x="938" y="284"/>
      <point x="890" y="309"/>
      <point x="792" y="309" type="curve" smooth="yes"/>
      <point x="665" y="309"/>
      <point x="633" y="267"/>
      <point x="633" y="175" type="curve" smooth="yes"/>
      <point x="633" y="36"/>
      <point x="708" y="-10"/>
      <point x="796" y="-10" type="curve" smooth="yes"/>
      <point x="873" y="-10"/>
      <point x="927" y="25"/>
      <point x="964" y="73" type="curve" smooth="yes"/>
      <point x="1005" y="126"/>
      <point x="1021" y="188"/>
      <point x="1021" y="273" type="curve" smooth="yes"/>
      <point x="1021" y="358"/>
      <point x="1005" y="420"/>
      <point x="967" y="468" type="curve" smooth="yes"/>
      <point x="924" y="521"/>
      <point x="854" y="556"/>
    </contour>
    <component base="da"/>
  </outline>
</glyph>
<glyph name="a_shn" format="2">
  <advance width="1045"/>
  <unicode hex="1022"/>
  <note>
a_shn
</note>
  <outline>
    <contour>
      <point x="309" y="556" type="line" smooth="yes"/>
      <point x="162" y="556"/>
      <point x="61" y="493"/>
      <point x="61" y="384" type="curve" smooth="yes"/>
      <point x="61" y="272"/>
      <point x="163" y="234"/>
      <point x="163" y="172" type="curve" smooth="yes"/>
      <point x="163" y="152"/>
      <point x="152" y="136"/>
      <point x="128" y="136" type="curve" smooth="yes"/>
      <point x="109" y="136"/>
      <point x="96" y="149"/>
      <point x="92" y="163" type="curve"/>
      <point x="42" y="163" type="line"/>
      <point x="27" y="42"/>
      <point x="94" y="-10"/>
      <point x="174" y="-10" type="curve" smooth="yes"/>
      <point x="250" y="-10"/>
      <point x="297" y="36"/>
      <point x="297" y="101" type="curve" smooth="yes"/>
      <point x="297" y="204"/>
      <point x="178" y="227"/>
      <point x="178" y="303" type="curve" smooth="yes"/>
      <point x="178" y="354"/>
      <point x="234" y="365"/>
      <point x="330" y="365" type="curve" smooth="yes"/>
      <point x="426" y="365"/>
      <point x="518" y="349"/>
      <point x="518" y="276" type="curve" smooth="yes"/>
      <point x="518" y="270" type="line" smooth="yes"/>
      <point x="518" y="206"/>
      <point x="445" y="185"/>
      <point x="367" y="182" type="curve"/>
      <point x="367" y="-10" type="line"/>
      <point x="438" y="-6"/>
      <point x="499" y="24"/>
      <point x="540" y="73" type="curve" smooth="yes"/>
      <point x="585" y="127"/>
      <point x="599" y="199"/>
      <point x="599" y="274" type="curve" smooth="yes"/>
      <point x="599" y="343"/>
      <point x="587" y="418"/>
      <point x="541" y="473" type="curve" smooth="yes"/>
      <point x="499" y="523"/>
      <point x="431" y="556"/>
      <point x="326" y="556" type="curve" smooth="yes"/>
    </contour>
    <contour>
      <point x="520" y="473" type="curve"/>
      <point x="583" y="340" type="line"/>
      <point x="619" y="359"/>
      <point x="674" y="365"/>
      <point x="731" y="365" type="curve" smooth="yes"/>
      <point x="827" y="365"/>
      <point x="919" y="349"/>
      <point x="919" y="276" type="curve" smooth="yes"/>
      <point x="919" y="270" type="line" smooth="yes"/>
      <point x="919" y="197"/>
      <point x="827" y="181"/>
      <point x="731" y="181" type="curve" smooth="yes"/>
      <point x="689" y="181" type="line"/>
      <point x="689" y="-6" type="line"/>
      <point x="707" y="-10"/>
      <point x="725" y="-10"/>
      <point x="742" y="-10" type="curve" smooth="yes"/>
      <point x="833" y="-10"/>
      <point x="903" y="25"/>
      <point x="946" y="78" type="curve" smooth="yes"/>
      <point x="984" y="126"/>
      <point x="1000" y="188"/>
      <point x="1000" y="273" type="curve" smooth="yes"/>
      <point x="1000" y="358"/>
      <point x="984" y="420"/>
      <point x="946" y="468" type="curve" smooth="yes"/>
      <point x="903" y="521"/>
      <point x="833" y="556"/>
      <point x="742" y="556" type="curve" smooth="yes"/>
      <point x="720" y="556" type="line" smooth="yes"/>
      <point x="629" y="556"/>
      <point x="559" y="521"/>
    </contour>
  </outline>
</glyph>
<glyph name="i_m" format="2">
  <advance width="1029"/>
  <unicode hex="1023"/>
  <note>
Unlikely to ever have marks below.
</note>
  <outline>
    <contour>
      <point x="673" y="181" type="line"/>
      <point x="673" y="-6" type="line"/>
      <point x="691" y="-10"/>
      <point x="709" y="-10"/>
      <point x="726" y="-10" type="curve" smooth="yes"/>
      <point x="817" y="-10"/>
      <point x="887" y="25"/>
      <point x="930" y="78" type="curve" smooth="yes"/>
      <point x="968" y="126"/>
      <point x="984" y="188"/>
      <point x="984" y="273" type="curve" smooth="yes"/>
      <point x="984" y="343"/>
      <point x="972" y="418"/>
      <point x="926" y="473" type="curve" smooth="yes"/>
      <point x="884" y="523"/>
      <point x="816" y="556"/>
      <point x="726" y="556" type="curve" smooth="yes"/>
      <point x="704" y="556" type="line" smooth="yes"/>
      <point x="556" y="556"/>
      <point x="476" y="451"/>
      <point x="476" y="274" type="curve"/>
      <point x="553" y="274" type="line"/>
      <point x="553" y="451"/>
      <point x="473" y="556"/>
      <point x="325" y="556" type="curve" smooth="yes"/>
      <point x="303" y="556" type="line" smooth="yes"/>
      <point x="213" y="556"/>
      <point x="145" y="523"/>
      <point x="103" y="473" type="curve" smooth="yes"/>
      <point x="57" y="418"/>
      <point x="45" y="343"/>
      <point x="45" y="273" type="curve" smooth="yes"/>
      <point x="45" y="188"/>
      <point x="61" y="126"/>
      <point x="99" y="78" type="curve" smooth="yes"/>
      <point x="141" y="25"/>
      <point x="212" y="-10"/>
      <point x="303" y="-10" type="curve" smooth="yes"/>
      <point x="320" y="-10"/>
      <point x="338" y="-10"/>
      <point x="356" y="-6" type="curve"/>
      <point x="356" y="181" type="line"/>
      <point x="314" y="181" type="line" smooth="yes"/>
      <point x="218" y="181"/>
      <point x="126" y="197"/>
      <point x="126" y="270" type="curve" smooth="yes"/>
      <point x="126" y="276" type="line" smooth="yes"/>
      <point x="126" y="349"/>
      <point x="218" y="365"/>
      <point x="314" y="365" type="curve" smooth="yes"/>
      <point x="395" y="365"/>
      <point x="465" y="353"/>
      <point x="472" y="269" type="curve" smooth="yes"/>
      <point x="478" y="200" type="line"/>
      <point x="551" y="200" type="line"/>
      <point x="557" y="269" type="line" smooth="yes"/>
      <point x="564" y="353"/>
      <point x="634" y="365"/>
      <point x="715" y="365" type="curve" smooth="yes"/>
      <point x="811" y="365"/>
      <point x="903" y="349"/>
      <point x="903" y="276" type="curve" smooth="yes"/>
      <point x="903" y="270" type="line" smooth="yes"/>
      <point x="903" y="197"/>
      <point x="811" y="181"/>
      <point x="715" y="181" type="curve" smooth="yes"/>
    </contour>
    <contour>
      <point x="1040" y="-386" type="line"/>
      <point x="903" y="-386" type="line"/>
      <point x="903" y="-426" type="line" smooth="yes"/>
      <point x="903" y="-479"/>
      <point x="862" y="-490"/>
      <point x="801" y="-490" type="curve" smooth="yes"/>
      <point x="762" y="-490"/>
      <point x="730" y="-485"/>
      <point x="730" y="-464" type="curve" smooth="yes"/>
      <point x="730" y="-448" type="line"/>
      <point x="838" y="-419"/>
      <point x="912" y="-366"/>
      <point x="912" y="-248" type="curve" smooth="yes"/>
      <point x="912" y="-144"/>
      <point x="840" y="-65"/>
      <point x="703" y="-65" type="curve" smooth="yes"/>
      <point x="686" y="-65" type="line" smooth="yes"/>
      <point x="553" y="-65"/>
      <point x="481" y="-155"/>
      <point x="481" y="-308" type="curve"/>
      <point x="548" y="-308" type="line"/>
      <point x="548" y="-155"/>
      <point x="479" y="-65"/>
      <point x="351" y="-65" type="curve" smooth="yes"/>
      <point x="333" y="-65" type="line" smooth="yes"/>
      <point x="255" y="-65"/>
      <point x="197" y="-93"/>
      <point x="160" y="-136" type="curve" smooth="yes"/>
      <point x="120" y="-183"/>
      <point x="111" y="-248"/>
      <point x="111" y="-308" type="curve" smooth="yes"/>
      <point x="111" y="-382"/>
      <point x="124" y="-435"/>
      <point x="157" y="-476" type="curve" smooth="yes"/>
      <point x="194" y="-522"/>
      <point x="254" y="-552"/>
      <point x="333" y="-552" type="curve" smooth="yes"/>
      <point x="347" y="-552"/>
      <point x="363" y="-552"/>
      <point x="378" y="-549" type="curve"/>
      <point x="378" y="-385" type="line"/>
      <point x="342" y="-385" type="line" smooth="yes"/>
      <point x="261" y="-385"/>
      <point x="184" y="-371"/>
      <point x="184" y="-311" type="curve" smooth="yes"/>
      <point x="184" y="-306" type="line" smooth="yes"/>
      <point x="184" y="-246"/>
      <point x="261" y="-232"/>
      <point x="342" y="-232" type="curve" smooth="yes"/>
      <point x="412" y="-232"/>
      <point x="472" y="-242"/>
      <point x="478" y="-312" type="curve" smooth="yes"/>
      <point x="483" y="-371" type="line"/>
      <point x="546" y="-371" type="line"/>
      <point x="551" y="-312" type="line" smooth="yes"/>
      <point x="557" y="-242"/>
      <point x="617" y="-232"/>
      <point x="687" y="-232" type="curve" smooth="yes"/>
      <point x="755" y="-232"/>
      <point x="798" y="-254"/>
      <point x="798" y="-293" type="curve" smooth="yes"/>
      <point x="798" y="-296" type="line" smooth="yes"/>
      <point x="798" y="-347"/>
      <point x="737" y="-372"/>
      <point x="610" y="-394" type="curve"/>
      <point x="610" y="-476" type="line" smooth="yes"/>
      <point x="610" y="-544"/>
      <point x="693" y="-562"/>
      <point x="805" y="-562" type="curve" smooth="yes"/>
      <point x="938" y="-562"/>
      <point x="1040" y="-535"/>
      <point x="1040" y="-445" type="curve" smooth="yes"/>
    </contour>
  </outline>
</glyph>
<glyph name="ii" format="2">
  <advance width="1211"/>
  <unicode hex="1024"/>
  <outline>
    <contour>
      <point x="966" y="273" type="line" smooth="yes"/>
      <point x="966" y="358"/>
      <point x="950" y="420"/>
      <point x="912" y="468" type="curve" smooth="yes"/>
      <point x="869" y="521"/>
      <point x="809" y="556"/>
      <point x="726" y="556" type="curve" smooth="yes"/>
      <point x="704" y="556" type="line" smooth="yes"/>
      <point x="613" y="556"/>
      <point x="543" y="521"/>
      <point x="504" y="473" type="curve"/>
      <point x="567" y="340" type="line"/>
      <point x="603" y="359"/>
      <point x="658" y="365"/>
      <point x="715" y="365" type="curve" smooth="yes"/>
      <point x="796" y="365"/>
      <point x="874" y="349"/>
      <point x="874" y="276" type="curve" smooth="yes"/>
      <point x="874" y="-232" type="line" smooth="yes"/>
      <point x="874" y="-289"/>
      <point x="859" y="-323"/>
      <point x="824" y="-337" type="curve" smooth="yes"/>
      <point x="778" y="-356"/>
      <point x="697" y="-361"/>
      <point x="512" y="-361" type="curve" smooth="yes"/>
      <point x="343" y="-361"/>
      <point x="256" y="-357"/>
      <point x="209" y="-342" type="curve" smooth="yes"/>
      <point x="181" y="-333"/>
      <point x="170" y="-320"/>
      <point x="170" y="-299" type="curve" smooth="yes"/>
      <point x="170" y="-267"/>
      <point x="217" y="-244"/>
      <point x="295" y="-244" type="curve" smooth="yes"/>
      <point x="382" y="-244"/>
      <point x="419" y="-274"/>
      <point x="425" y="-312" type="curve"/>
      <point x="649" y="-312" type="line"/>
      <point x="638" y="-218"/>
      <point x="522" y="-155"/>
      <point x="339" y="-155" type="curve" smooth="yes"/>
      <point x="147" y="-155"/>
      <point x="45" y="-229"/>
      <point x="45" y="-362" type="curve" smooth="yes"/>
      <point x="45" y="-426"/>
      <point x="71" y="-472"/>
      <point x="113" y="-500" type="curve" smooth="yes"/>
      <point x="170" y="-539"/>
      <point x="265" y="-552"/>
      <point x="506" y="-552" type="curve" smooth="yes"/>
      <point x="747" y="-552"/>
      <point x="841" y="-539"/>
      <point x="903" y="-496" type="curve" smooth="yes"/>
      <point x="936" y="-474"/>
      <point x="966" y="-429"/>
      <point x="966" y="-320" type="curve" smooth="yes"/>
    </contour>
    <contour>
      <point x="1161" y="10" type="line"/>
      <point x="1067" y="10" type="line"/>
      <point x="1067" y="-542" type="line"/>
      <point x="1161" y="-542" type="line"/>
    </contour>
    <component base="asatstem" xOffset="1017"/>
    <component base="ga"/>
  </outline>
</glyph>
<glyph name="e_m" format="2">
  <advance width="628"/>
  <unicode hex="1027"/>
  <note>
e_m
</note>
  <outline>
    <contour>
      <point x="305" y="425" type="line"/>
      <point x="247" y="425" type="line"/>
      <point x="247" y="400" type="line" smooth="yes"/>
      <point x="247" y="287"/>
      <point x="304" y="278"/>
      <point x="419" y="278" type="curve" smooth="yes"/>
      <point x="547" y="278"/>
      <point x="580" y="310"/>
      <point x="580" y="386" type="curve" smooth="yes"/>
      <point x="580" y="488"/>
      <point x="486" y="556"/>
      <point x="331" y="556" type="curve" smooth="yes"/>
      <point x="146" y="556"/>
      <point x="45" y="466"/>
      <point x="45" y="273" type="curve" smooth="yes"/>
      <point x="45" y="80"/>
      <point x="146" y="-10"/>
      <point x="331" y="-10" type="curve" smooth="yes"/>
      <point x="486" y="-10"/>
      <point x="580" y="53"/>
      <point x="580" y="155" type="curve" smooth="yes"/>
      <point x="580" y="231"/>
      <point x="547" y="268"/>
      <point x="419" y="268" type="curve" smooth="yes"/>
      <point x="304" y="268"/>
      <point x="247" y="259"/>
      <point x="247" y="146" type="curve" smooth="yes"/>
      <point x="247" y="121" type="line"/>
      <point x="305" y="121" type="line"/>
      <point x="305" y="166" type="line" smooth="yes"/>
      <point x="305" y="200"/>
      <point x="331" y="216"/>
      <point x="372" y="216" type="curve" smooth="yes"/>
      <point x="424" y="216" type="line" smooth="yes"/>
      <point x="465" y="216"/>
      <point x="502" y="216"/>
      <point x="502" y="191" type="curve" smooth="yes"/>
      <point x="502" y="173"/>
      <point x="475" y="162"/>
      <point x="410" y="162" type="curve" smooth="yes"/>
      <point x="314" y="162" type="line" smooth="yes"/>
      <point x="216" y="162"/>
      <point x="126" y="197"/>
      <point x="126" y="270" type="curve" smooth="yes"/>
      <point x="126" y="276" type="line" smooth="yes"/>
      <point x="126" y="349"/>
      <point x="216" y="384"/>
      <point x="314" y="384" type="curve" smooth="yes"/>
      <point x="410" y="384" type="line" smooth="yes"/>
      <point x="475" y="384"/>
      <point x="502" y="373"/>
      <point x="502" y="355" type="curve" smooth="yes"/>
      <point x="502" y="330"/>
      <point x="465" y="330"/>
      <point x="424" y="330" type="curve" smooth="yes"/>
      <point x="372" y="330" type="line" smooth="yes"/>
      <point x="331" y="330"/>
      <point x="305" y="346"/>
      <point x="305" y="380" type="curve" smooth="yes"/>
    </contour>
  </outline>
</glyph>
<glyph name="e_mon" format="2">
  <advance width="628"/>
  <unicode hex="1028"/>
  <outline>
    <contour>
      <point x="198" y="249" type="curve"/>
      <point x="244" y="249" type="line"/>
      <point x="245" y="277"/>
      <point x="271" y="286"/>
      <point x="323" y="286" type="curve" smooth="yes"/>
      <point x="375" y="286"/>
      <point x="391" y="275"/>
      <point x="391" y="255" type="curve" smooth="yes"/>
      <point x="391" y="193"/>
      <point x="181" y="249"/>
      <point x="181" y="97" type="curve" smooth="yes"/>
      <point x="181" y="27"/>
      <point x="237" y="-10"/>
      <point x="334" y="-10" type="curve" smooth="yes"/>
      <point x="505" y="-10"/>
      <point x="588" y="97"/>
      <point x="588" y="277" type="curve" smooth="yes"/>
      <point x="588" y="440"/>
      <point x="499" y="556"/>
      <point x="335" y="556" type="curve" smooth="yes"/>
      <point x="313" y="556" type="line" smooth="yes"/>
      <point x="216" y="556"/>
      <point x="146" y="521"/>
      <point x="104" y="468" type="curve" smooth="yes"/>
      <point x="66" y="420"/>
      <point x="50" y="358"/>
      <point x="50" y="273" type="curve" smooth="yes"/>
      <point x="50" y="-269" type="line" smooth="yes"/>
      <point x="50" y="-354"/>
      <point x="65" y="-416"/>
      <point x="104" y="-465" type="curve" smooth="yes"/>
      <point x="146" y="-518"/>
      <point x="217" y="-552"/>
      <point x="308" y="-552" type="curve" smooth="yes"/>
      <point x="330" y="-552" type="line" smooth="yes"/>
      <point x="421" y="-552"/>
      <point x="491" y="-517"/>
      <point x="534" y="-464" type="curve" smooth="yes"/>
      <point x="568" y="-421"/>
      <point x="588" y="-354"/>
      <point x="588" y="-269" type="curve" smooth="yes"/>
      <point x="588" y="-251"/>
      <point x="587" y="-234"/>
      <point x="585" y="-223" type="curve"/>
      <point x="507" y="-223" type="line"/>
      <point x="507" y="-226" type="line" smooth="yes"/>
      <point x="507" y="-345"/>
      <point x="417" y="-361"/>
      <point x="323" y="-361" type="curve" smooth="yes"/>
      <point x="230" y="-361"/>
      <point x="140" y="-345"/>
      <point x="140" y="-229" type="curve" smooth="yes"/>
      <point x="140" y="233" type="line" smooth="yes"/>
      <point x="140" y="375"/>
      <point x="232" y="402"/>
      <point x="334" y="402" type="curve" smooth="yes"/>
      <point x="418" y="402"/>
      <point x="507" y="371"/>
      <point x="507" y="258" type="curve" smooth="yes"/>
      <point x="507" y="253" type="line" smooth="yes"/>
      <point x="507" y="121"/>
      <point x="396" y="94"/>
      <point x="330" y="94" type="curve" smooth="yes"/>
      <point x="272" y="94"/>
      <point x="251" y="105"/>
      <point x="251" y="124" type="curve" smooth="yes"/>
      <point x="251" y="181"/>
      <point x="457" y="124"/>
      <point x="457" y="273" type="curve" smooth="yes"/>
      <point x="457" y="342"/>
      <point x="406" y="377"/>
      <point x="331" y="377" type="curve" smooth="yes"/>
      <point x="239" y="377"/>
      <point x="186" y="336"/>
    </contour>
  </outline>
</glyph>
<glyph name="_tall_aa" format="2">
  <advance width="194"/>
  <unicode hex="102B"/>
  <note>
_tall_aa
</note>
  <outline>
    <contour>
      <point x="144" y="844" type="line" smooth="yes"/>
      <point x="144" y="1004"/>
      <point x="61" y="1098"/>
      <point x="-103" y="1098" type="curve" smooth="yes"/>
      <point x="-267" y="1098"/>
      <point x="-351" y="1004"/>
      <point x="-351" y="843" type="curve" smooth="yes"/>
      <point x="-351" y="813"/>
      <point x="-348" y="784"/>
      <point x="-345" y="769" type="curve"/>
      <point x="-268" y="769" type="line"/>
      <point x="-268" y="771" type="line" smooth="yes"/>
      <point x="-268" y="885"/>
      <point x="-194" y="907"/>
      <point x="-109" y="907" type="curve" smooth="yes"/>
      <point x="-24" y="907"/>
      <point x="50" y="885"/>
      <point x="50" y="765" type="curve" smooth="yes"/>
      <point x="50" y="0" type="line"/>
      <point x="144" y="0" type="line"/>
    </contour>
  </outline>
</glyph>
<glyph name="_aa" format="2">
  <advance width="401"/>
  <unicode hex="102C"/>
  <outline>
    <contour>
      <point x="-124" y="473" type="curve"/>
      <point x="-61" y="340" type="line"/>
      <point x="-25" y="359"/>
      <point x="30" y="365"/>
      <point x="87" y="365" type="curve" smooth="yes"/>
      <point x="183" y="365"/>
      <point x="275" y="349"/>
      <point x="275" y="276" type="curve" smooth="yes"/>
      <point x="275" y="270" type="line" smooth="yes"/>
      <point x="275" y="197"/>
      <point x="183" y="181"/>
      <point x="87" y="181" type="curve" smooth="yes"/>
      <point x="45" y="181" type="line"/>
      <point x="45" y="-6" type="line"/>
      <point x="63" y="-10"/>
      <point x="81" y="-10"/>
      <point x="98" y="-10" type="curve" smooth="yes"/>
      <point x="189" y="-10"/>
      <point x="259" y="25"/>
      <point x="302" y="78" type="curve" smooth="yes"/>
      <point x="340" y="126"/>
      <point x="356" y="188"/>
      <point x="356" y="273" type="curve" smooth="yes"/>
      <point x="356" y="358"/>
      <point x="340" y="420"/>
      <point x="302" y="468" type="curve" smooth="yes"/>
      <point x="259" y="521"/>
      <point x="189" y="556"/>
      <point x="98" y="556" type="curve" smooth="yes"/>
      <point x="76" y="556" type="line" smooth="yes"/>
      <point x="-15" y="556"/>
      <point x="-85" y="521"/>
    </contour>
  </outline>
</glyph>
<glyph name="_u" format="2">
  <unicode hex="102F"/>
  <outline>
    <contour>
      <point x="-267" y="86" type="line"/>
      <point x="-361" y="86" type="line"/>
      <point x="-361" y="-346" type="line" smooth="yes"/>
      <point x="-361" y="-486"/>
      <point x="-312" y="-552"/>
      <point x="-157" y="-552" type="curve" smooth="yes"/>
      <point x="-155" y="-552"/>
      <point x="-149" y="-552"/>
      <point x="-142" y="-551" type="curve"/>
      <point x="-142" y="-360" type="line"/>
      <point x="-158" y="-360" type="line" smooth="yes"/>
      <point x="-233" y="-360"/>
      <point x="-267" y="-338"/>
      <point x="-267" y="-274" type="curve" smooth="yes"/>
    </contour>
  </outline>
</glyph>
<glyph name="_uu" format="2">
  <unicode hex="1030"/>
  <outline>
    <contour>
      <point x="-445" y="-542" type="line"/>
      <point x="-351" y="-542" type="line"/>
      <point x="-351" y="15" type="line"/>
      <point x="-445" y="15" type="line"/>
    </contour>
    <component base="_u" xOffset="84"/>
  </outline>
</glyph>
<glyph name="_e" format="2">
  <advance width="628"/>
  <unicode hex="1031"/>
  <note>
_e
</note>
  <outline>
    <contour>
      <point x="581" y="312" type="line"/>
      <point x="578" y="464"/>
      <point x="480" y="556"/>
      <point x="325" y="556" type="curve" smooth="yes"/>
      <point x="303" y="556" type="line" smooth="yes"/>
      <point x="211" y="556"/>
      <point x="143" y="526"/>
      <point x="100" y="469" type="curve" smooth="yes"/>
      <point x="64" y="421"/>
      <point x="45" y="355"/>
      <point x="45" y="273" type="curve" smooth="yes"/>
      <point x="45" y="190"/>
      <point x="64" y="125"/>
      <point x="100" y="79" type="curve" smooth="yes"/>
      <point x="147" y="19"/>
      <point x="222" y="-10"/>
      <point x="318" y="-10" type="curve" smooth="yes"/>
      <point x="325" y="-10" type="line" smooth="yes"/>
      <point x="480" y="-10"/>
      <point x="580" y="71"/>
      <point x="580" y="179" type="curve" smooth="yes"/>
      <point x="580" y="245"/>
      <point x="555" y="307"/>
      <point x="408" y="307" type="curve" smooth="yes"/>
      <point x="307" y="307"/>
      <point x="245" y="282"/>
      <point x="245" y="171" type="curve" smooth="yes"/>
      <point x="245" y="146" type="line"/>
      <point x="303" y="146" type="line"/>
      <point x="303" y="190" type="line" smooth="yes"/>
      <point x="303" y="225"/>
      <point x="330" y="241"/>
      <point x="376" y="241" type="curve" smooth="yes"/>
      <point x="431" y="241" type="line" smooth="yes"/>
      <point x="473" y="241"/>
      <point x="502" y="236"/>
      <point x="502" y="210" type="curve" smooth="yes"/>
      <point x="502" y="190"/>
      <point x="470" y="181"/>
      <point x="400" y="181" type="curve" smooth="yes"/>
      <point x="299" y="181" type="line" smooth="yes"/>
      <point x="203" y="181"/>
      <point x="126" y="197"/>
      <point x="126" y="270" type="curve" smooth="yes"/>
      <point x="126" y="276" type="line" smooth="yes"/>
      <point x="126" y="349"/>
      <point x="218" y="365"/>
      <point x="314" y="365" type="curve" smooth="yes"/>
      <point x="418" y="365"/>
      <point x="483" y="348"/>
      <point x="497" y="312" type="curve"/>
    </contour>
  </outline>
</glyph>
<glyph name="_ai" format="2">
  <unicode hex="1032"/>
  <note>
_ai
</note>
  <outline>
    <contour>
      <point x="-108" y="641" type="line"/>
      <point x="-370" y="942" type="line"/>
      <point x="-535" y="895" type="line"/>
      <point x="-229" y="661" type="line"/>
    </contour>
  </outline>
</glyph>
<glyph name="_ii_mon" format="2">
  <unicode hex="1033"/>
  <outline>
    <contour>
      <point x="-315" y="796" type="curve" smooth="yes"/>
      <point x="-241" y="796"/>
      <point x="-206" y="814"/>
      <point x="-206" y="855" type="curve" smooth="yes"/>
      <point x="-206" y="896"/>
      <point x="-241" y="913"/>
      <point x="-315" y="913" type="curve" smooth="yes"/>
      <point x="-387" y="913"/>
      <point x="-424" y="896"/>
      <point x="-424" y="855" type="curve" smooth="yes"/>
      <point x="-424" y="814"/>
      <point x="-389" y="796"/>
    </contour>
    <contour>
      <point x="-315" y="828" type="curve" smooth="yes"/>
      <point x="-350" y="828"/>
      <point x="-368" y="836"/>
      <point x="-368" y="855" type="curve" smooth="yes"/>
      <point x="-368" y="873"/>
      <point x="-350" y="882"/>
      <point x="-315" y="882" type="curve" smooth="yes"/>
      <point x="-280" y="882"/>
      <point x="-262" y="873"/>
      <point x="-262" y="855" type="curve" smooth="yes"/>
      <point x="-262" y="836"/>
      <point x="-280" y="828"/>
    </contour>
    <component base="_i"/>
  </outline>
</glyph>
<glyph name="_o_mon" format="2">
  <unicode hex="1034"/>
  <note>
_o_mon
</note>
  <outline>
    <contour>
      <point x="-94" y="895" type="line"/>
      <point x="-259" y="942" type="line"/>
      <point x="-521" y="641" type="line"/>
      <point x="-400" y="661" type="line"/>
    </contour>
  </outline>
</glyph>
<glyph name="dot_below" format="2">
  <unicode hex="1037"/>
  <outline>
    <contour>
      <point x="-314" y="-352" type="curve" smooth="yes"/>
      <point x="-232" y="-352"/>
      <point x="-180" y="-301"/>
      <point x="-180" y="-222" type="curve" smooth="yes"/>
      <point x="-180" y="-141"/>
      <point x="-232" y="-90"/>
      <point x="-314" y="-90" type="curve"/>
      <point x="-396" y="-90"/>
      <point x="-448" y="-141"/>
      <point x="-448" y="-222" type="curve" smooth="yes"/>
      <point x="-448" y="-301"/>
      <point x="-396" y="-352"/>
    </contour>
    <contour>
      <point x="-314" y="-266" type="curve" smooth="yes"/>
      <point x="-366" y="-266"/>
      <point x="-388" y="-248"/>
      <point x="-388" y="-222" type="curve" smooth="yes"/>
      <point x="-388" y="-195"/>
      <point x="-366" y="-176"/>
      <point x="-314" y="-176" type="curve" smooth="yes"/>
      <point x="-262" y="-176"/>
      <point x="-240" y="-195"/>
      <point x="-240" y="-222" type="curve" smooth="yes"/>
      <point x="-240" y="-248"/>
      <point x="-262" y="-266"/>
    </contour>
  </outline>
</glyph>
<glyph name="virama" format="2">
  <unicode hex="1039"/>
  <note>
virama
</note>
  <outline>
    <contour>
      <point x="-371" y="-542" type="line"/>
      <point x="-256" y="-542" type="line"/>
      <point x="-284" y="-303" type="line"/>
      <point x="-256" y="-65" type="line"/>
      <point x="-371" y="-65" type="line"/>
      <point x="-342" y="-303" type="line"/>
    </contour>
    <contour>
      <point x="-76" y="-347" type="line"/>
      <point x="-76" y="-260" type="line"/>
      <point x="-552" y="-260" type="line"/>
      <point x="-552" y="-347" type="line"/>
    </contour>
  </outline>
</glyph>
<glyph name="asat" format="2">
  <unicode hex="103A"/>
  <outline>
    <contour>
      <point x="-299" y="697" type="line"/>
      <point x="-417" y="757"/>
      <point x="-442" y="796"/>
      <point x="-442" y="839" type="curve" smooth="yes"/>
      <point x="-442" y="901"/>
      <point x="-386" y="922"/>
      <point x="-303" y="922" type="curve" smooth="yes"/>
      <point x="-236" y="922"/>
      <point x="-165" y="908"/>
      <point x="-165" y="846" type="curve" smooth="yes"/>
      <point x="-165" y="841" type="line"/>
      <point x="-83" y="841" type="line"/>
      <point x="-81" y="853"/>
      <point x="-80" y="869"/>
      <point x="-80" y="884" type="curve" smooth="yes"/>
      <point x="-80" y="1014"/>
      <point x="-160" y="1098"/>
      <point x="-306" y="1098" type="curve" smooth="yes"/>
      <point x="-451" y="1098"/>
      <point x="-542" y="1016"/>
      <point x="-542" y="886" type="curve" smooth="yes"/>
      <point x="-542" y="752"/>
      <point x="-446" y="675"/>
      <point x="-312" y="613" type="curve" smooth="yes"/>
      <point x="-299" y="607" type="line"/>
    </contour>
  </outline>
</glyph>
<glyph name="medial_ya" format="2">
  <advance width="196"/>
  <unicode hex="103B"/>
  <outline>
    <contour>
      <point x="146" y="546" type="line"/>
      <point x="50" y="546" type="line"/>
      <point x="50" y="-276" type="line" smooth="yes"/>
      <point x="50" y="-330"/>
      <point x="39" y="-354"/>
      <point x="6" y="-354" type="curve" smooth="yes"/>
      <point x="-11" y="-354"/>
      <point x="-26" y="-351"/>
      <point x="-69" y="-333" type="curve" smooth="yes"/>
      <point x="-152" y="-298"/>
      <point x="-157" y="-292"/>
      <point x="-157" y="-208" type="curve" smooth="yes"/>
      <point x="-157" y="121" type="line"/>
      <point x="-251" y="121" type="line"/>
      <point x="-251" y="-243" type="line" smooth="yes"/>
      <point x="-251" y="-414"/>
      <point x="-251" y="-446"/>
      <point x="-110" y="-505" type="curve" smooth="yes"/>
      <point x="-10" y="-547"/>
      <point x="18" y="-551"/>
      <point x="48" y="-551" type="curve" smooth="yes"/>
      <point x="117" y="-551"/>
      <point x="146" y="-498"/>
      <point x="146" y="-384" type="curve" smooth="yes"/>
    </contour>
  </outline>
</glyph>
<glyph name="medial_wa" format="2">
  <unicode hex="103D"/>
  <outline>
    <contour>
      <point x="-324" y="-65" type="line" smooth="yes"/>
      <point x="-404" y="-65"/>
      <point x="-465" y="-94"/>
      <point x="-499" y="-136" type="curve" smooth="yes"/>
      <point x="-537" y="-182"/>
      <point x="-551" y="-235"/>
      <point x="-551" y="-308" type="curve" smooth="yes"/>
      <point x="-551" y="-382"/>
      <point x="-537" y="-435"/>
      <point x="-499" y="-480" type="curve" smooth="yes"/>
      <point x="-465" y="-523"/>
      <point x="-404" y="-552"/>
      <point x="-324" y="-552" type="curve" smooth="yes"/>
      <point x="-305" y="-552" type="line" smooth="yes"/>
      <point x="-225" y="-552"/>
      <point x="-164" y="-523"/>
      <point x="-130" y="-480" type="curve" smooth="yes"/>
      <point x="-92" y="-435"/>
      <point x="-78" y="-382"/>
      <point x="-78" y="-308" type="curve" smooth="yes"/>
      <point x="-78" y="-235"/>
      <point x="-92" y="-182"/>
      <point x="-130" y="-136" type="curve" smooth="yes"/>
      <point x="-164" y="-94"/>
      <point x="-225" y="-65"/>
      <point x="-305" y="-65" type="curve" smooth="yes"/>
    </contour>
    <contour>
      <point x="-314" y="-385" type="curve" smooth="yes"/>
      <point x="-398" y="-385"/>
      <point x="-478" y="-372"/>
      <point x="-478" y="-311" type="curve" smooth="yes"/>
      <point x="-478" y="-306" type="line" smooth="yes"/>
      <point x="-478" y="-244"/>
      <point x="-398" y="-232"/>
      <point x="-314" y="-232" type="curve" smooth="yes"/>
      <point x="-231" y="-232"/>
      <point x="-151" y="-244"/>
      <point x="-151" y="-306" type="curve" smooth="yes"/>
      <point x="-151" y="-311" type="line" smooth="yes"/>
      <point x="-151" y="-372"/>
      <point x="-231" y="-385"/>
    </contour>
  </outline>
</glyph>
<glyph name="great_sa" format="2">
  <advance width="1430"/>
  <unicode hex="103F"/>
  <note>
Disable this ligature (sa+virama+sa) and use sa with subjoined sa for Mon.
</note>
  <outline>
    <contour>
      <point x="131" y="303" type="line"/>
      <point x="147" y="345"/>
      <point x="210" y="365"/>
      <point x="314" y="365" type="curve" smooth="yes"/>
      <point x="410" y="365"/>
      <point x="502" y="349"/>
      <point x="502" y="276" type="curve" smooth="yes"/>
      <point x="502" y="270" type="line" smooth="yes"/>
      <point x="502" y="197"/>
      <point x="410" y="181"/>
      <point x="314" y="181" type="curve" smooth="yes"/>
      <point x="210" y="181"/>
      <point x="145" y="201"/>
      <point x="131" y="243" type="curve"/>
      <point x="47" y="243" type="line"/>
      <point x="50" y="85"/>
      <point x="148" y="-10"/>
      <point x="303" y="-10" type="curve" smooth="yes"/>
      <point x="325" y="-10" type="line" smooth="yes"/>
      <point x="414" y="-10"/>
      <point x="481" y="19"/>
      <point x="525" y="73" type="curve" smooth="yes"/>
      <point x="563" y="121"/>
      <point x="583" y="188"/>
      <point x="583" y="273" type="curve" smooth="yes"/>
      <point x="583" y="357"/>
      <point x="563" y="424"/>
      <point x="525" y="473" type="curve" smooth="yes"/>
      <point x="481" y="527"/>
      <point x="414" y="556"/>
      <point x="325" y="556" type="curve" smooth="yes"/>
      <point x="303" y="556" type="line" smooth="yes"/>
      <point x="150" y="556"/>
      <point x="50" y="463"/>
      <point x="47" y="303" type="curve"/>
    </contour>
    <contour>
      <point x="504" y="73" type="line"/>
      <point x="543" y="25"/>
      <point x="613" y="-10"/>
      <point x="704" y="-10" type="curve" smooth="yes"/>
      <point x="726" y="-10" type="line" smooth="yes"/>
      <point x="817" y="-10"/>
      <point x="887" y="25"/>
      <point x="930" y="78" type="curve" smooth="yes"/>
      <point x="968" y="126"/>
      <point x="984" y="188"/>
      <point x="984" y="273" type="curve" smooth="yes"/>
      <point x="984" y="358"/>
      <point x="968" y="420"/>
      <point x="930" y="468" type="curve" smooth="yes"/>
      <point x="887" y="521"/>
      <point x="817" y="556"/>
      <point x="726" y="556" type="curve" smooth="yes"/>
      <point x="709" y="556"/>
      <point x="691" y="556"/>
      <point x="673" y="552" type="curve"/>
      <point x="673" y="365" type="line"/>
      <point x="715" y="365" type="line" smooth="yes"/>
      <point x="811" y="365"/>
      <point x="903" y="349"/>
      <point x="903" y="276" type="curve" smooth="yes"/>
      <point x="903" y="270" type="line" smooth="yes"/>
      <point x="903" y="197"/>
      <point x="811" y="181"/>
      <point x="715" y="181" type="curve" smooth="yes"/>
      <point x="658" y="181"/>
      <point x="603" y="187"/>
      <point x="567" y="206" type="curve"/>
    </contour>
    <contour>
      <point x="905" y="73" type="line"/>
      <point x="944" y="25"/>
      <point x="1014" y="-10"/>
      <point x="1105" y="-10" type="curve" smooth="yes"/>
      <point x="1127" y="-10" type="line" smooth="yes"/>
      <point x="1218" y="-10"/>
      <point x="1288" y="25"/>
      <point x="1331" y="78" type="curve" smooth="yes"/>
      <point x="1369" y="126"/>
      <point x="1385" y="188"/>
      <point x="1385" y="273" type="curve" smooth="yes"/>
      <point x="1385" y="358"/>
      <point x="1369" y="420"/>
      <point x="1331" y="468" type="curve" smooth="yes"/>
      <point x="1288" y="521"/>
      <point x="1218" y="556"/>
      <point x="1127" y="556" type="curve" smooth="yes"/>
      <point x="1110" y="556"/>
      <point x="1092" y="556"/>
      <point x="1074" y="552" type="curve"/>
      <point x="1074" y="365" type="line"/>
      <point x="1116" y="365" type="line" smooth="yes"/>
      <point x="1212" y="365"/>
      <point x="1304" y="349"/>
      <point x="1304" y="276" type="curve" smooth="yes"/>
      <point x="1304" y="270" type="line" smooth="yes"/>
      <point x="1304" y="197"/>
      <point x="1212" y="181"/>
      <point x="1116" y="181" type="curve" smooth="yes"/>
      <point x="1059" y="181"/>
      <point x="1004" y="187"/>
      <point x="968" y="206" type="curve"/>
    </contour>
  </outline>
</glyph>
<glyph name="two_m" format="2">
  <advance width="585"/>
  <unicode hex="1042"/>
  <outline>
    <contour>
      <point x="535" y="-198" type="curve" smooth="yes"/>
      <point x="535" y="546" type="line"/>
      <point x="441" y="546" type="line"/>
      <point x="441" y="-119" type="line" smooth="yes"/>
      <point x="441" y="-239"/>
      <point x="367" y="-261"/>
      <point x="282" y="-261" type="curve" smooth="yes"/>
      <point x="197" y="-261"/>
      <point x="123" y="-239"/>
      <point x="123" y="-125" type="curve" smooth="yes"/>
      <point x="123" y="-123" type="line"/>
      <point x="46" y="-123" type="line"/>
      <point x="43" y="-138"/>
      <point x="40" y="-167"/>
      <point x="40" y="-197" type="curve" smooth="yes"/>
      <point x="40" y="-358"/>
      <point x="124" y="-452"/>
      <point x="288" y="-452" type="curve" smooth="yes"/>
      <point x="452" y="-452"/>
      <point x="535" y="-358"/>
    </contour>
  </outline>
</glyph>
<glyph name="three_m" format="2">
  <advance width="628"/>
  <unicode hex="1043"/>
  <outline>
    <contour>
      <point x="303" y="-10" type="curve" smooth="yes"/>
      <point x="325" y="-10" type="line" smooth="yes"/>
      <point x="414" y="-10"/>
      <point x="481" y="19"/>
      <point x="525" y="73" type="curve" smooth="yes"/>
      <point x="563" y="122"/>
      <point x="583" y="189"/>
      <point x="583" y="273" type="curve" smooth="yes"/>
      <point x="583" y="358"/>
      <point x="563" y="425"/>
      <point x="525" y="473" type="curve" smooth="yes"/>
      <point x="481" y="527"/>
      <point x="414" y="556"/>
      <point x="325" y="556" type="curve" smooth="yes"/>
      <point x="303" y="556" type="line" smooth="yes"/>
      <point x="148" y="556"/>
      <point x="50" y="461"/>
      <point x="47" y="303" type="curve"/>
      <point x="131" y="303" type="line"/>
      <point x="145" y="345"/>
      <point x="210" y="365"/>
      <point x="314" y="365" type="curve" smooth="yes"/>
      <point x="410" y="365"/>
      <point x="502" y="349"/>
      <point x="502" y="276" type="curve" smooth="yes"/>
      <point x="502" y="270" type="line" smooth="yes"/>
      <point x="502" y="197"/>
      <point x="410" y="181"/>
      <point x="314" y="181" type="curve" smooth="yes"/>
      <point x="210" y="181"/>
      <point x="147" y="201"/>
      <point x="131" y="243" type="curve"/>
      <point x="47" y="243" type="line"/>
      <point x="48" y="184"/>
      <point x="62" y="134"/>
      <point x="113" y="50" type="curve" smooth="yes"/>
      <point x="418" y="-452" type="line"/>
      <point x="583" y="-405" type="line"/>
      <point x="258" y="-7" type="line"/>
      <point x="272" y="-9"/>
      <point x="287" y="-10"/>
    </contour>
  </outline>
</glyph>
<glyph name="five_m" format="2">
  <advance width="633"/>
  <unicode hex="1045"/>
  <outline>
    <contour>
      <point x="270" y="52" type="curve" smooth="yes"/>
      <point x="352" y="52"/>
      <point x="404" y="99"/>
      <point x="404" y="173" type="curve" smooth="yes"/>
      <point x="404" y="260"/>
      <point x="352" y="314"/>
      <point x="270" y="314" type="curve" smooth="yes"/>
      <point x="188" y="314"/>
      <point x="136" y="263"/>
      <point x="136" y="182" type="curve" smooth="yes"/>
      <point x="136" y="103"/>
      <point x="188" y="52"/>
    </contour>
    <contour>
      <point x="126" y="-123" type="line"/>
      <point x="48" y="-123" type="line"/>
      <point x="46" y="-134"/>
      <point x="45" y="-151"/>
      <point x="45" y="-169" type="curve" smooth="yes"/>
      <point x="45" y="-254"/>
      <point x="65" y="-321"/>
      <point x="99" y="-364" type="curve" smooth="yes"/>
      <point x="141" y="-417"/>
      <point x="212" y="-452"/>
      <point x="303" y="-452" type="curve" smooth="yes"/>
      <point x="325" y="-452" type="line" smooth="yes"/>
      <point x="416" y="-452"/>
      <point x="486" y="-417"/>
      <point x="529" y="-365" type="curve" smooth="yes"/>
      <point x="569" y="-317"/>
      <point x="583" y="-254"/>
      <point x="583" y="-169" type="curve" smooth="yes"/>
      <point x="583" y="273" type="line" smooth="yes"/>
      <point x="583" y="358"/>
      <point x="567" y="420"/>
      <point x="529" y="468" type="curve" smooth="yes"/>
      <point x="487" y="521"/>
      <point x="416" y="556"/>
      <point x="325" y="556" type="curve" smooth="yes"/>
      <point x="303" y="556" type="line" smooth="yes"/>
      <point x="212" y="556"/>
      <point x="142" y="521"/>
      <point x="99" y="468" type="curve" smooth="yes"/>
      <point x="61" y="420"/>
      <point x="45" y="358"/>
      <point x="45" y="273" type="curve" smooth="yes"/>
      <point x="45" y="188"/>
      <point x="61" y="126"/>
      <point x="102" y="73" type="curve" smooth="yes"/>
      <point x="139" y="25"/>
      <point x="190" y="-10"/>
      <point x="267" y="-10" type="curve" smooth="yes"/>
      <point x="369" y="-10"/>
      <point x="404" y="64"/>
      <point x="404" y="173" type="curve"/>
      <point x="379" y="133"/>
      <point x="352" y="114"/>
      <point x="271" y="114" type="curve" smooth="yes"/>
      <point x="163" y="114"/>
      <point x="126" y="196"/>
      <point x="126" y="254" type="curve" smooth="yes"/>
      <point x="126" y="260" type="line" smooth="yes"/>
      <point x="126" y="351"/>
      <point x="217" y="365"/>
      <point x="309" y="365" type="curve" smooth="yes"/>
      <point x="398" y="365"/>
      <point x="493" y="349"/>
      <point x="493" y="211" type="curve" smooth="yes"/>
      <point x="493" y="-129" type="line" smooth="yes"/>
      <point x="493" y="-245"/>
      <point x="403" y="-261"/>
      <point x="310" y="-261" type="curve" smooth="yes"/>
      <point x="216" y="-261"/>
      <point x="126" y="-245"/>
      <point x="126" y="-126" type="curve" smooth="yes"/>
    </contour>
    <contour>
      <point x="270" y="138" type="curve" smooth="yes"/>
      <point x="218" y="138"/>
      <point x="196" y="156"/>
      <point x="196" y="182" type="curve" smooth="yes"/>
      <point x="196" y="209"/>
      <point x="218" y="228"/>
      <point x="270" y="228" type="curve" smooth="yes"/>
      <point x="322" y="228"/>
      <point x="344" y="209"/>
      <point x="344" y="182" type="curve" smooth="yes"/>
      <point x="344" y="156"/>
      <point x="322" y="138"/>
    </contour>
  </outline>
</glyph>
<glyph name="seven_m" format="2">
  <advance width="628"/>
  <unicode hex="1047"/>
  <outline>
    <contour>
      <point x="530" y="-209" type="curve"/>
      <point x="454" y="-209" type="line"/>
      <point x="454" y="-213" type="line" smooth="yes"/>
      <point x="454" y="-268"/>
      <point x="404" y="-285"/>
      <point x="358" y="-285" type="curve" smooth="yes"/>
      <point x="300" y="-285"/>
      <point x="262" y="-271"/>
      <point x="262" y="-230" type="curve" smooth="yes"/>
      <point x="262" y="-198"/>
      <point x="294" y="-165"/>
      <point x="360" y="-104" type="curve" smooth="yes"/>
      <point x="478" y="3"/>
      <point x="583" y="108"/>
      <point x="583" y="274" type="curve" smooth="yes"/>
      <point x="583" y="343"/>
      <point x="571" y="418"/>
      <point x="525" y="473" type="curve" smooth="yes"/>
      <point x="483" y="523"/>
      <point x="415" y="556"/>
      <point x="325" y="556" type="curve" smooth="yes"/>
      <point x="303" y="556" type="line" smooth="yes"/>
      <point x="213" y="556"/>
      <point x="145" y="523"/>
      <point x="103" y="473" type="curve" smooth="yes"/>
      <point x="57" y="418"/>
      <point x="45" y="343"/>
      <point x="45" y="274" type="curve" smooth="yes"/>
      <point x="45" y="199"/>
      <point x="59" y="127"/>
      <point x="104" y="73" type="curve" smooth="yes"/>
      <point x="147" y="21"/>
      <point x="212" y="-7"/>
      <point x="277" y="-10" type="curve"/>
      <point x="277" y="182" type="line"/>
      <point x="199" y="185"/>
      <point x="126" y="206"/>
      <point x="126" y="270" type="curve" smooth="yes"/>
      <point x="126" y="276" type="line" smooth="yes"/>
      <point x="126" y="349"/>
      <point x="218" y="365"/>
      <point x="314" y="365" type="curve" smooth="yes"/>
      <point x="402" y="365"/>
      <point x="486" y="336"/>
      <point x="486" y="239" type="curve" smooth="yes"/>
      <point x="486" y="233" type="line" smooth="yes"/>
      <point x="486" y="137"/>
      <point x="418" y="63"/>
      <point x="322" y="-26" type="curve" smooth="yes"/>
      <point x="218" y="-125"/>
      <point x="156" y="-189"/>
      <point x="156" y="-282" type="curve" smooth="yes"/>
      <point x="156" y="-390"/>
      <point x="230" y="-452"/>
      <point x="348" y="-452" type="curve" smooth="yes"/>
      <point x="466" y="-452"/>
      <point x="533" y="-375"/>
      <point x="533" y="-250" type="curve" smooth="yes"/>
      <point x="533" y="-236"/>
      <point x="532" y="-221"/>
    </contour>
  </outline>
</glyph>
<glyph name="nine_m" format="2">
  <advance width="628"/>
  <unicode hex="1049"/>
  <outline>
    <contour>
      <point x="329" y="252" type="curve"/>
      <point x="432" y="167" type="line"/>
      <point x="522" y="173"/>
      <point x="588" y="220"/>
      <point x="588" y="322" type="curve" smooth="yes"/>
      <point x="588" y="452"/>
      <point x="499" y="556"/>
      <point x="330" y="556" type="curve" smooth="yes"/>
      <point x="308" y="556" type="line" smooth="yes"/>
      <point x="217" y="556"/>
      <point x="146" y="521"/>
      <point x="104" y="468" type="curve" smooth="yes"/>
      <point x="66" y="420"/>
      <point x="50" y="358"/>
      <point x="50" y="273" type="curve" smooth="yes"/>
      <point x="50" y="-169" type="line" smooth="yes"/>
      <point x="50" y="-254"/>
      <point x="65" y="-316"/>
      <point x="104" y="-365" type="curve" smooth="yes"/>
      <point x="146" y="-418"/>
      <point x="217" y="-452"/>
      <point x="308" y="-452" type="curve" smooth="yes"/>
      <point x="330" y="-452" type="line" smooth="yes"/>
      <point x="421" y="-452"/>
      <point x="491" y="-417"/>
      <point x="534" y="-364" type="curve" smooth="yes"/>
      <point x="568" y="-321"/>
      <point x="588" y="-254"/>
      <point x="588" y="-169" type="curve" smooth="yes"/>
      <point x="588" y="-151"/>
      <point x="587" y="-134"/>
      <point x="585" y="-123" type="curve"/>
      <point x="507" y="-123" type="line"/>
      <point x="507" y="-126" type="line" smooth="yes"/>
      <point x="507" y="-245"/>
      <point x="417" y="-261"/>
      <point x="323" y="-261" type="curve" smooth="yes"/>
      <point x="230" y="-261"/>
      <point x="140" y="-245"/>
      <point x="140" y="-129" type="curve" smooth="yes"/>
      <point x="140" y="214" type="line" smooth="yes"/>
      <point x="140" y="349"/>
      <point x="231" y="365"/>
      <point x="333" y="365" type="curve" smooth="yes"/>
      <point x="467" y="365"/>
      <point x="507" y="348"/>
      <point x="507" y="321" type="curve" smooth="yes"/>
      <point x="507" y="293"/>
      <point x="469" y="292"/>
      <point x="382" y="286" type="curve" smooth="yes"/>
      <point x="258" y="277"/>
      <point x="195" y="232"/>
      <point x="195" y="124" type="curve" smooth="yes"/>
      <point x="195" y="43"/>
      <point x="247" y="-10"/>
      <point x="329" y="-10" type="curve" smooth="yes"/>
      <point x="411" y="-10"/>
      <point x="463" y="41"/>
      <point x="463" y="120" type="curve" smooth="yes"/>
      <point x="463" y="201"/>
      <point x="411" y="252"/>
    </contour>
    <contour>
      <point x="329" y="76" type="curve" smooth="yes"/>
      <point x="277" y="76"/>
      <point x="255" y="94"/>
      <point x="255" y="120" type="curve" smooth="yes"/>
      <point x="255" y="147"/>
      <point x="277" y="166"/>
      <point x="329" y="166" type="curve" smooth="yes"/>
      <point x="381" y="166"/>
      <point x="403" y="147"/>
      <point x="403" y="120" type="curve" smooth="yes"/>
      <point x="403" y="94"/>
      <point x="381" y="76"/>
    </contour>
  </outline>
</glyph>
<glyph name="little_section" format="2">
  <advance width="284"/>
  <unicode hex="104A"/>
  <note>
little_section
</note>
  <outline>
    <contour>
      <point x="189" y="546" type="line"/>
      <point x="95" y="546" type="line"/>
      <point x="95" y="0" type="line"/>
      <point x="189" y="0" type="line"/>
    </contour>
  </outline>
</glyph>
<glyph name="locative" format="2">
  <advance width="628"/>
  <unicode hex="104C"/>
  <note>
locative
</note>
  <outline>
    <contour>
      <point x="47" y="249" type="line"/>
      <point x="47" y="1" type="line" smooth="yes"/>
      <point x="47" y="-101"/>
      <point x="73" y="-143"/>
      <point x="102" y="-167" type="curve" smooth="yes"/>
      <point x="147" y="-204"/>
      <point x="218" y="-213"/>
      <point x="315" y="-213" type="curve" smooth="yes"/>
      <point x="412" y="-213"/>
      <point x="483" y="-204"/>
      <point x="528" y="-167" type="curve" smooth="yes"/>
      <point x="557" y="-143"/>
      <point x="583" y="-101"/>
      <point x="583" y="1" type="curve" smooth="yes"/>
      <point x="583" y="37" type="line"/>
      <point x="503" y="37" type="line"/>
      <point x="503" y="-11"/>
      <point x="489" y="-36"/>
      <point x="459" y="-51" type="curve" smooth="yes"/>
      <point x="430" y="-66"/>
      <point x="371" y="-71"/>
      <point x="316" y="-71" type="curve" smooth="yes"/>
      <point x="260" y="-71"/>
      <point x="201" y="-66"/>
      <point x="172" y="-51" type="curve" smooth="yes"/>
      <point x="141" y="-36"/>
      <point x="128" y="-5"/>
      <point x="128" y="48" type="curve" smooth="yes"/>
      <point x="128" y="219" type="line"/>
    </contour>
    <contour>
      <point x="583" y="23" type="line"/>
      <point x="502" y="-27" type="line"/>
      <point x="502" y="-291" type="line" smooth="yes"/>
      <point x="502" y="-344"/>
      <point x="489" y="-375"/>
      <point x="460" y="-390" type="curve" smooth="yes"/>
      <point x="432" y="-405"/>
      <point x="365" y="-410"/>
      <point x="311" y="-410" type="curve" smooth="yes"/>
      <point x="224" y="-410"/>
      <point x="129" y="-408"/>
      <point x="129" y="-362" type="curve" smooth="yes"/>
      <point x="129" y="-334"/>
      <point x="157" y="-320"/>
      <point x="211" y="-320" type="curve" smooth="yes"/>
      <point x="268" y="-320"/>
      <point x="292" y="-336"/>
      <point x="296" y="-369" type="curve"/>
      <point x="443" y="-369" type="line"/>
      <point x="436" y="-285"/>
      <point x="360" y="-239"/>
      <point x="240" y="-239" type="curve" smooth="yes"/>
      <point x="113" y="-239"/>
      <point x="47" y="-305"/>
      <point x="47" y="-389" type="curve" smooth="yes"/>
      <point x="47" y="-446"/>
      <point x="73" y="-484"/>
      <point x="102" y="-506" type="curve" smooth="yes"/>
      <point x="147" y="-543"/>
      <point x="218" y="-552"/>
      <point x="315" y="-552" type="curve" smooth="yes"/>
      <point x="412" y="-552"/>
      <point x="483" y="-543"/>
      <point x="528" y="-506" type="curve" smooth="yes"/>
      <point x="557" y="-482"/>
      <point x="583" y="-440"/>
      <point x="583" y="-338" type="curve" smooth="yes"/>
    </contour>
    <component base="asat" xOffset="631"/>
    <component base="nga" xScale="-1" yScale="0.981" xOffset="628" yOffset="10"/>
  </outline>
</glyph>
<glyph name="completed" format="2">
  <advance width="827"/>
  <unicode hex="104D"/>
  <note>
completed
</note>
  <outline>
    <contour>
      <point x="777" y="10" type="line"/>
      <point x="683" y="10" type="line"/>
      <point x="683" y="-244" type="line" smooth="yes"/>
      <point x="683" y="-301"/>
      <point x="672" y="-335"/>
      <point x="647" y="-351" type="curve" smooth="yes"/>
      <point x="614" y="-368"/>
      <point x="552" y="-373"/>
      <point x="363" y="-373" type="curve" smooth="yes"/>
      <point x="223" y="-373"/>
      <point x="127" y="-369"/>
      <point x="127" y="-311" type="curve" smooth="yes"/>
      <point x="127" y="-282"/>
      <point x="158" y="-264"/>
      <point x="209" y="-264" type="curve" smooth="yes"/>
      <point x="266" y="-264"/>
      <point x="290" y="-292"/>
      <point x="294" y="-328" type="curve"/>
      <point x="441" y="-328" type="line"/>
      <point x="434" y="-240"/>
      <point x="358" y="-181"/>
      <point x="238" y="-181" type="curve" smooth="yes"/>
      <point x="112" y="-181"/>
      <point x="45" y="-255"/>
      <point x="45" y="-368" type="curve" smooth="yes"/>
      <point x="45" y="-439"/>
      <point x="71" y="-482"/>
      <point x="100" y="-506" type="curve" smooth="yes"/>
      <point x="145" y="-543"/>
      <point x="217" y="-552"/>
      <point x="365" y="-552" type="curve" smooth="yes"/>
      <point x="603" y="-552"/>
      <point x="679" y="-539"/>
      <point x="728" y="-500" type="curve" smooth="yes"/>
      <point x="754" y="-474"/>
      <point x="777" y="-429"/>
      <point x="777" y="-320" type="curve" smooth="yes"/>
    </contour>
    <component base="ra.alt2"/>
    <component base="asatstem" xOffset="633"/>
  </outline>
</glyph>
<glyph name="aforementioned" format="2">
  <advance width="628"/>
  <unicode hex="104E"/>
  <outline>
    <contour>
      <point x="487" y="-542" type="line"/>
      <point x="581" y="-542" type="line"/>
      <point x="581" y="243" type="line"/>
      <point x="487" y="133" type="line"/>
    </contour>
    <component base="nga"/>
  </outline>
</glyph>
<glyph name="genitive" format="2">
  <advance width="1113"/>
  <unicode hex="104F"/>
  <note>
genitive
</note>
  <outline>
    <contour>
      <point x="568" y="326" type="curve" smooth="yes"/>
      <point x="585" y="359"/>
      <point x="615" y="377"/>
      <point x="675" y="377" type="curve" smooth="yes"/>
      <point x="746" y="377"/>
      <point x="774" y="346"/>
      <point x="774" y="277" type="curve" smooth="yes"/>
      <point x="774" y="0" type="line"/>
      <point x="868" y="0" type="line"/>
      <point x="868" y="346" type="line" smooth="yes"/>
      <point x="868" y="472"/>
      <point x="810" y="556"/>
      <point x="684" y="556" type="curve" smooth="yes"/>
      <point x="676" y="556" type="line" smooth="yes"/>
      <point x="589" y="556"/>
      <point x="534" y="519"/>
      <point x="506" y="456" type="curve"/>
      <point x="562" y="457" type="line"/>
      <point x="528" y="518"/>
      <point x="446" y="556"/>
      <point x="331" y="556" type="curve" smooth="yes"/>
      <point x="146" y="556"/>
      <point x="45" y="466"/>
      <point x="45" y="273" type="curve" smooth="yes"/>
      <point x="45" y="80"/>
      <point x="146" y="-10"/>
      <point x="331" y="-10" type="curve" smooth="yes"/>
      <point x="486" y="-10"/>
      <point x="580" y="53"/>
      <point x="580" y="155" type="curve" smooth="yes"/>
      <point x="580" y="231"/>
      <point x="547" y="268"/>
      <point x="419" y="268" type="curve" smooth="yes"/>
      <point x="304" y="268"/>
      <point x="247" y="259"/>
      <point x="247" y="146" type="curve" smooth="yes"/>
      <point x="247" y="121" type="line"/>
      <point x="305" y="121" type="line"/>
      <point x="305" y="166" type="line" smooth="yes"/>
      <point x="305" y="200"/>
      <point x="331" y="216"/>
      <point x="372" y="216" type="curve" smooth="yes"/>
      <point x="424" y="216" type="line" smooth="yes"/>
      <point x="465" y="216"/>
      <point x="502" y="216"/>
      <point x="502" y="191" type="curve" smooth="yes"/>
      <point x="502" y="173"/>
      <point x="475" y="162"/>
      <point x="410" y="162" type="curve" smooth="yes"/>
      <point x="314" y="162" type="line" smooth="yes"/>
      <point x="216" y="162"/>
      <point x="126" y="197"/>
      <point x="126" y="270" type="curve" smooth="yes"/>
      <point x="126" y="276" type="line" smooth="yes"/>
      <point x="126" y="349"/>
      <point x="216" y="384"/>
      <point x="314" y="384" type="curve" smooth="yes"/>
      <point x="410" y="384" type="line" smooth="yes"/>
      <point x="475" y="384"/>
      <point x="502" y="373"/>
      <point x="502" y="355" type="curve" smooth="yes"/>
      <point x="502" y="330"/>
      <point x="465" y="330"/>
      <point x="424" y="330" type="curve" smooth="yes"/>
      <point x="372" y="330" type="line" smooth="yes"/>
      <point x="331" y="330"/>
      <point x="305" y="346"/>
      <point x="305" y="380" type="curve" smooth="yes"/>
      <point x="305" y="425" type="line"/>
      <point x="247" y="425" type="line"/>
      <point x="247" y="400" type="line" smooth="yes"/>
      <point x="247" y="287"/>
      <point x="304" y="278"/>
      <point x="419" y="278" type="curve" smooth="yes"/>
      <point x="508" y="278"/>
      <point x="551" y="293"/>
    </contour>
    <component base="asatstem" xOffset="919"/>
  </outline>
</glyph>
<glyph name="vocRR_skt" format="2">
  <advance width="660"/>
  <unicode hex="1053"/>
  <note>
vocRR_skt
</note>
  <outline>
    <contour>
      <point x="351" y="-10" type="line" smooth="yes"/>
      <point x="498" y="-10"/>
      <point x="599" y="53"/>
      <point x="599" y="162" type="curve" smooth="yes"/>
      <point x="599" y="274"/>
      <point x="497" y="312"/>
      <point x="497" y="374" type="curve" smooth="yes"/>
      <point x="497" y="394"/>
      <point x="508" y="410"/>
      <point x="532" y="410" type="curve" smooth="yes"/>
      <point x="551" y="410"/>
      <point x="564" y="397"/>
      <point x="568" y="383" type="curve"/>
      <point x="618" y="383" type="line"/>
      <point x="633" y="504"/>
      <point x="566" y="556"/>
      <point x="486" y="556" type="curve" smooth="yes"/>
      <point x="410" y="556"/>
      <point x="363" y="510"/>
      <point x="363" y="445" type="curve" smooth="yes"/>
      <point x="363" y="342"/>
      <point x="482" y="319"/>
      <point x="482" y="243" type="curve" smooth="yes"/>
      <point x="482" y="192"/>
      <point x="426" y="181"/>
      <point x="330" y="181" type="curve" smooth="yes"/>
      <point x="234" y="181"/>
      <point x="178" y="192"/>
      <point x="178" y="243" type="curve" smooth="yes"/>
      <point x="178" y="319"/>
      <point x="297" y="342"/>
      <point x="297" y="445" type="curve" smooth="yes"/>
      <point x="297" y="510"/>
      <point x="250" y="556"/>
      <point x="174" y="556" type="curve" smooth="yes"/>
      <point x="94" y="556"/>
      <point x="27" y="504"/>
      <point x="42" y="383" type="curve"/>
      <point x="92" y="383" type="line"/>
      <point x="96" y="397"/>
      <point x="109" y="410"/>
      <point x="128" y="410" type="curve" smooth="yes"/>
      <point x="152" y="410"/>
      <point x="163" y="394"/>
      <point x="163" y="374" type="curve" smooth="yes"/>
      <point x="163" y="312"/>
      <point x="61" y="274"/>
      <point x="61" y="162" type="curve" smooth="yes"/>
      <point x="61" y="53"/>
      <point x="162" y="-10"/>
      <point x="309" y="-10" type="curve" smooth="yes"/>
    </contour>
  </outline>
</glyph>
<glyph name="vocLL_skt" format="2">
  <advance width="635"/>
  <unicode hex="1055"/>
  <note>
vocLL_skt
</note>
  <outline>
    <contour>
      <point x="205" y="162" type="curve" smooth="yes"/>
      <point x="156" y="162"/>
      <point x="126" y="189"/>
      <point x="126" y="257" type="curve" smooth="yes"/>
      <point x="126" y="260" type="line" smooth="yes"/>
      <point x="126" y="361"/>
      <point x="222" y="374"/>
      <point x="325" y="373" type="curve" smooth="yes"/>
      <point x="422" y="372" type="line" smooth="yes"/>
      <point x="486" y="371"/>
      <point x="514" y="362"/>
      <point x="514" y="344" type="curve" smooth="yes"/>
      <point x="514" y="319"/>
      <point x="477" y="313"/>
      <point x="436" y="313" type="curve" smooth="yes"/>
      <point x="388" y="313" type="line" smooth="yes"/>
      <point x="343" y="313"/>
      <point x="317" y="329"/>
      <point x="317" y="363" type="curve" smooth="yes"/>
      <point x="317" y="408" type="line"/>
      <point x="259" y="408" type="line"/>
      <point x="259" y="383" type="line" smooth="yes"/>
      <point x="259" y="273"/>
      <point x="321" y="249"/>
      <point x="421" y="249" type="curve" smooth="yes"/>
      <point x="566" y="249"/>
      <point x="592" y="305"/>
      <point x="592" y="369" type="curve" smooth="yes"/>
      <point x="592" y="476"/>
      <point x="495" y="556"/>
      <point x="342" y="556" type="curve" smooth="yes"/>
      <point x="216" y="556"/>
      <point x="128" y="516"/>
      <point x="82" y="434" type="curve" smooth="yes"/>
      <point x="57" y="391"/>
      <point x="45" y="336"/>
      <point x="45" y="269" type="curve" smooth="yes"/>
      <point x="45" y="83"/>
      <point x="99" y="-10"/>
      <point x="200" y="-10" type="curve" smooth="yes"/>
      <point x="252" y="-10"/>
      <point x="308" y="24"/>
      <point x="320" y="108" type="curve"/>
      <point x="333" y="24"/>
      <point x="395" y="-10"/>
      <point x="449" y="-10" type="curve" smooth="yes"/>
      <point x="539" y="-10"/>
      <point x="593" y="78"/>
      <point x="593" y="234" type="curve"/>
      <point x="509" y="234" type="line"/>
      <point x="503" y="191"/>
      <point x="480" y="162"/>
      <point x="437" y="162" type="curve" smooth="yes"/>
      <point x="380" y="162"/>
      <point x="361" y="201"/>
      <point x="359" y="234" type="curve"/>
      <point x="281" y="234" type="line"/>
      <point x="279" y="199"/>
      <point x="253" y="162"/>
    </contour>
  </outline>
</glyph>
<glyph name="_vocR_skt" format="2">
  <advance width="381"/>
  <unicode hex="1056"/>
  <note>
_vocR_skt
</note>
  <outline>
    <contour>
      <point x="72" y="-10" type="line" smooth="yes"/>
      <point x="219" y="-10"/>
      <point x="320" y="53"/>
      <point x="320" y="162" type="curve" smooth="yes"/>
      <point x="320" y="274"/>
      <point x="218" y="312"/>
      <point x="218" y="374" type="curve" smooth="yes"/>
      <point x="218" y="394"/>
      <point x="229" y="410"/>
      <point x="253" y="410" type="curve" smooth="yes"/>
      <point x="272" y="410"/>
      <point x="285" y="397"/>
      <point x="289" y="383" type="curve"/>
      <point x="339" y="383" type="line"/>
      <point x="354" y="504"/>
      <point x="287" y="556"/>
      <point x="207" y="556" type="curve" smooth="yes"/>
      <point x="131" y="556"/>
      <point x="84" y="510"/>
      <point x="84" y="445" type="curve" smooth="yes"/>
      <point x="84" y="342"/>
      <point x="203" y="319"/>
      <point x="203" y="243" type="curve" smooth="yes"/>
      <point x="203" y="192"/>
      <point x="147" y="181"/>
      <point x="51" y="181" type="curve" smooth="yes"/>
      <point x="-7" y="181"/>
      <point x="-64" y="187"/>
      <point x="-99" y="208" type="curve"/>
      <point x="-160" y="73" type="line"/>
      <point x="-118" y="23"/>
      <point x="-50" y="-10"/>
      <point x="40" y="-10" type="curve" smooth="yes"/>
    </contour>
  </outline>
</glyph>
<glyph name="_vocRR_skt" format="2">
  <advance width="497"/>
  <unicode hex="1057"/>
  <note>
_vocRR_skt
</note>
  <outline>
    <contour>
      <point x="-63" y="208" type="curve"/>
      <point x="-122" y="78" type="line"/>
      <point x="-94" y="19"/>
      <point x="-53" y="-10"/>
      <point x="4" y="-10" type="curve" smooth="yes"/>
      <point x="56" y="-10"/>
      <point x="112" y="24"/>
      <point x="124" y="108" type="curve"/>
      <point x="137" y="24"/>
      <point x="199" y="-10"/>
      <point x="267" y="-10" type="curve" smooth="yes"/>
      <point x="361" y="-10"/>
      <point x="430" y="54"/>
      <point x="430" y="162" type="curve" smooth="yes"/>
      <point x="430" y="274"/>
      <point x="334" y="311"/>
      <point x="334" y="374" type="curve" smooth="yes"/>
      <point x="334" y="393"/>
      <point x="342" y="408"/>
      <point x="370" y="408" type="curve" smooth="yes"/>
      <point x="387" y="408"/>
      <point x="401" y="397"/>
      <point x="405" y="383" type="curve"/>
      <point x="455" y="383" type="line"/>
      <point x="468" y="506"/>
      <point x="404" y="556"/>
      <point x="326" y="556" type="curve" smooth="yes"/>
      <point x="249" y="556"/>
      <point x="198" y="510"/>
      <point x="198" y="440" type="curve" smooth="yes"/>
      <point x="198" y="343"/>
      <point x="313" y="319"/>
      <point x="313" y="239" type="curve" smooth="yes"/>
      <point x="313" y="191"/>
      <point x="284" y="162"/>
      <point x="241" y="162" type="curve" smooth="yes"/>
      <point x="184" y="162"/>
      <point x="165" y="201"/>
      <point x="163" y="234" type="curve"/>
      <point x="85" y="234" type="line"/>
      <point x="83" y="199"/>
      <point x="57" y="162"/>
      <point x="9" y="162" type="curve" smooth="yes"/>
      <point x="-26" y="162"/>
      <point x="-51" y="176"/>
    </contour>
  </outline>
</glyph>
<glyph name="_vocLL_skt" format="2">
  <unicode hex="1059"/>
  <outline>
    <contour>
      <point x="-78" y="-342" type="curve"/>
      <point x="-153" y="-342" type="line"/>
      <point x="-158" y="-377"/>
      <point x="-179" y="-401"/>
      <point x="-216" y="-401" type="curve" smooth="yes"/>
      <point x="-267" y="-401"/>
      <point x="-282" y="-369"/>
      <point x="-284" y="-342" type="curve"/>
      <point x="-353" y="-342" type="line"/>
      <point x="-354" y="-371"/>
      <point x="-374" y="-401"/>
      <point x="-417" y="-401" type="curve" smooth="yes"/>
      <point x="-457" y="-401"/>
      <point x="-487" y="-378"/>
      <point x="-487" y="-322" type="curve" smooth="yes"/>
      <point x="-487" y="-319" type="line" smooth="yes"/>
      <point x="-487" y="-233"/>
      <point x="-404" y="-221"/>
      <point x="-314" y="-222" type="curve" smooth="yes"/>
      <point x="-229" y="-223" type="line" smooth="yes"/>
      <point x="-172" y="-224"/>
      <point x="-148" y="-232"/>
      <point x="-148" y="-247" type="curve" smooth="yes"/>
      <point x="-148" y="-269"/>
      <point x="-180" y="-274"/>
      <point x="-216" y="-274" type="curve" smooth="yes"/>
      <point x="-259" y="-274" type="line" smooth="yes"/>
      <point x="-298" y="-274"/>
      <point x="-321" y="-260"/>
      <point x="-321" y="-231" type="curve" smooth="yes"/>
      <point x="-321" y="-192" type="line"/>
      <point x="-372" y="-192" type="line"/>
      <point x="-372" y="-214" type="line" smooth="yes"/>
      <point x="-372" y="-308"/>
      <point x="-318" y="-329"/>
      <point x="-230" y="-329" type="curve" smooth="yes"/>
      <point x="-102" y="-329"/>
      <point x="-79" y="-281"/>
      <point x="-79" y="-226" type="curve" smooth="yes"/>
      <point x="-79" y="-134"/>
      <point x="-164" y="-65"/>
      <point x="-299" y="-65" type="curve" smooth="yes"/>
      <point x="-309" y="-65" type="line" smooth="yes"/>
      <point x="-415" y="-67"/>
      <point x="-488" y="-101"/>
      <point x="-528" y="-170" type="curve" smooth="yes"/>
      <point x="-550" y="-207"/>
      <point x="-560" y="-254"/>
      <point x="-560" y="-314" type="curve" smooth="yes"/>
      <point x="-560" y="-471"/>
      <point x="-513" y="-552"/>
      <point x="-424" y="-552" type="curve" smooth="yes"/>
      <point x="-377" y="-552"/>
      <point x="-329" y="-524"/>
      <point x="-318" y="-450" type="curve"/>
      <point x="-307" y="-524"/>
      <point x="-253" y="-552"/>
      <point x="-205" y="-552" type="curve" smooth="yes"/>
      <point x="-126" y="-552"/>
      <point x="-78" y="-476"/>
    </contour>
  </outline>
</glyph>
<glyph name="jha_mon" format="2">
  <advance width="822"/>
  <unicode hex="105B"/>
  <note>
Unlikely to ever take marks below.
</note>
  <outline>
    <contour>
      <point x="377" y="-346" type="line" smooth="yes"/>
      <point x="377" y="-486"/>
      <point x="432" y="-552"/>
      <point x="575" y="-552" type="curve" smooth="yes"/>
      <point x="718" y="-552"/>
      <point x="772" y="-486"/>
      <point x="772" y="-346" type="curve" smooth="yes"/>
      <point x="772" y="546" type="line"/>
      <point x="678" y="546" type="line"/>
      <point x="678" y="-287" type="line" smooth="yes"/>
      <point x="678" y="-349"/>
      <point x="645" y="-373"/>
      <point x="575" y="-373" type="curve" smooth="yes"/>
      <point x="505" y="-373"/>
      <point x="471" y="-351"/>
      <point x="471" y="-287" type="curve" smooth="yes"/>
      <point x="471" y="121" type="line"/>
      <point x="356" y="121" type="line"/>
      <point x="218" y="-300" type="line" smooth="yes"/>
      <point x="201" y="-353"/>
      <point x="174" y="-367"/>
      <point x="125" y="-361" type="curve"/>
      <point x="110" y="-360"/>
      <point x="92" y="-355"/>
      <point x="72" y="-347" type="curve"/>
      <point x="13" y="-528" type="line"/>
      <point x="32" y="-536"/>
      <point x="65" y="-546"/>
      <point x="97" y="-550" type="curve" smooth="yes"/>
      <point x="197" y="-563"/>
      <point x="252" y="-512"/>
      <point x="285" y="-401" type="curve" smooth="yes"/>
      <point x="344" y="-203" type="line" smooth="yes"/>
      <point x="358" y="-155"/>
      <point x="371" y="-106"/>
      <point x="376" y="-72" type="curve"/>
      <point x="382" y="-66" type="line"/>
      <point x="380" y="-115"/>
      <point x="377" y="-148"/>
      <point x="377" y="-209" type="curve" smooth="yes"/>
    </contour>
    <component base="ja"/>
  </outline>
</glyph>
<glyph name="bbe_mon" format="2">
  <advance width="628"/>
  <unicode hex="105D"/>
  <outline>
    <contour>
      <point x="471" y="161" type="line"/>
      <point x="387" y="114" type="line"/>
      <point x="387" y="-285" type="line" smooth="yes"/>
      <point x="387" y="-338"/>
      <point x="375" y="-369"/>
      <point x="354" y="-384" type="curve" smooth="yes"/>
      <point x="333" y="-399"/>
      <point x="289" y="-404"/>
      <point x="245" y="-404" type="curve" smooth="yes"/>
      <point x="179" y="-404"/>
      <point x="115" y="-395"/>
      <point x="115" y="-337" type="curve" smooth="yes"/>
      <point x="115" y="-302"/>
      <point x="138" y="-280"/>
      <point x="178" y="-280" type="curve" smooth="yes"/>
      <point x="223" y="-280"/>
      <point x="242" y="-312"/>
      <point x="245" y="-345" type="curve"/>
      <point x="360" y="-345" type="line"/>
      <point x="353" y="-262"/>
      <point x="299" y="-212"/>
      <point x="206" y="-212" type="curve" smooth="yes"/>
      <point x="97" y="-212"/>
      <point x="45" y="-278"/>
      <point x="45" y="-375" type="curve" smooth="yes"/>
      <point x="45" y="-439"/>
      <point x="65" y="-481"/>
      <point x="91" y="-506" type="curve" smooth="yes"/>
      <point x="127" y="-540"/>
      <point x="181" y="-550"/>
      <point x="258" y="-550" type="curve" smooth="yes"/>
      <point x="334" y="-550"/>
      <point x="389" y="-541"/>
      <point x="425" y="-504" type="curve" smooth="yes"/>
      <point x="448" y="-480"/>
      <point x="471" y="-438"/>
      <point x="471" y="-336" type="curve" smooth="yes"/>
    </contour>
    <component base="ma"/>
  </outline>
</glyph>
<glyph name="_medialNa_mon" format="2">
  <unicode hex="105E"/>
  <outline>
    <contour>
      <point x="-157" y="73" type="line"/>
      <point x="-244" y="73" type="line"/>
      <point x="-244" y="-325" type="line" smooth="yes"/>
      <point x="-244" y="-367"/>
      <point x="-257" y="-385"/>
      <point x="-301" y="-385" type="curve" smooth="yes"/>
      <point x="-373" y="-385"/>
      <point x="-478" y="-348"/>
      <point x="-478" y="-315" type="curve" smooth="yes"/>
      <point x="-478" y="-274"/>
      <point x="-385" y="-264"/>
      <point x="-285" y="-264" type="curve" smooth="yes"/>
      <point x="-189" y="-264"/>
      <point x="-100" y="-279"/>
      <point x="-32" y="-302" type="curve"/>
      <point x="-1" y="-169" type="line"/>
      <point x="-75" y="-141"/>
      <point x="-173" y="-124"/>
      <point x="-270" y="-122" type="curve" smooth="yes"/>
      <point x="-471" y="-118"/>
      <point x="-551" y="-203"/>
      <point x="-551" y="-299" type="curve" smooth="yes"/>
      <point x="-551" y="-427"/>
      <point x="-403" y="-556"/>
      <point x="-275" y="-552" type="curve" smooth="yes"/>
      <point x="-175" y="-549"/>
      <point x="-157" y="-465"/>
      <point x="-157" y="-380" type="curve" smooth="yes"/>
    </contour>
  </outline>
</glyph>
<glyph name="_medialMa_mon" format="2">
  <unicode hex="105F"/>
  <outline>
    <contour>
      <point x="-157" y="45" type="line"/>
      <point x="-251" y="32" type="line"/>
      <point x="-251" y="-137" type="line"/>
      <point x="-444" y="-123"/>
      <point x="-551" y="-200"/>
      <point x="-551" y="-347" type="curve" smooth="yes"/>
      <point x="-551" y="-487"/>
      <point x="-453" y="-552"/>
      <point x="-276" y="-552" type="curve" smooth="yes"/>
      <point x="-207" y="-552"/>
      <point x="-124" y="-542"/>
      <point x="-58" y="-524" type="curve"/>
      <point x="-77" y="-363" type="line"/>
      <point x="-144" y="-379"/>
      <point x="-225" y="-385"/>
      <point x="-285" y="-385" type="curve" smooth="yes"/>
      <point x="-393" y="-385"/>
      <point x="-478" y="-373"/>
      <point x="-478" y="-336" type="curve" smooth="yes"/>
      <point x="-478" y="-296"/>
      <point x="-367" y="-276"/>
      <point x="-157" y="-291" type="curve"/>
    </contour>
  </outline>
</glyph>
<glyph name="_medialLa_mon" format="2">
  <unicode hex="1060"/>
  <outline>
    <contour>
      <point x="-185" y="34" type="curve"/>
      <point x="-306" y="36" type="line"/>
      <point x="-374" y="-108"/>
      <point x="-483" y="-234"/>
      <point x="-598" y="-357" type="curve"/>
      <point x="-591" y="-484"/>
      <point x="-480" y="-552"/>
      <point x="-313" y="-552" type="curve" smooth="yes"/>
      <point x="-144" y="-552"/>
      <point x="-52" y="-482"/>
      <point x="-31" y="-312" type="curve"/>
      <point x="-115" y="-299" type="line"/>
      <point x="-146" y="-368"/>
      <point x="-223" y="-385"/>
      <point x="-303" y="-385" type="curve" smooth="yes"/>
      <point x="-378" y="-385"/>
      <point x="-440" y="-368"/>
      <point x="-472" y="-333" type="curve"/>
      <point x="-360" y="-218"/>
      <point x="-264" y="-105"/>
    </contour>
  </outline>
</glyph>
<glyph name="sha_skn" format="2">
  <advance width="633"/>
  <unicode hex="1061"/>
  <note>
Sgaw Karen does not use subjoined consonants.
</note>
  <outline>
    <contour>
      <point x="339" y="86" type="line"/>
      <point x="339" y="-274" type="line" smooth="yes"/>
      <point x="339" y="-338"/>
      <point x="305" y="-360"/>
      <point x="230" y="-360" type="curve" smooth="yes"/>
      <point x="214" y="-360" type="line"/>
      <point x="214" y="-551" type="line"/>
      <point x="221" y="-552"/>
      <point x="227" y="-552"/>
      <point x="229" y="-552" type="curve" smooth="yes"/>
      <point x="384" y="-552"/>
      <point x="433" y="-486"/>
      <point x="433" y="-346" type="curve" smooth="yes"/>
      <point x="433" y="175" type="line"/>
    </contour>
    <component base="ra.alt"/>
  </outline>
</glyph>
<glyph name="eu_skn" format="2">
  <advance width="583"/>
  <unicode hex="1062"/>
  <note>
Used in Sgaw, Khamti, Shan.
</note>
  <outline>
    <contour>
      <point x="533" y="0" type="line"/>
      <point x="533" y="389" type="line" smooth="yes"/>
      <point x="533" y="527"/>
      <point x="443" y="556"/>
      <point x="280" y="556" type="curve" smooth="yes"/>
      <point x="122" y="556"/>
      <point x="34" y="515"/>
      <point x="34" y="366" type="curve" smooth="yes"/>
      <point x="34" y="346"/>
      <point x="37" y="312"/>
      <point x="44" y="294" type="curve"/>
      <point x="113" y="294" type="line"/>
      <point x="127" y="363"/>
      <point x="181" y="370"/>
      <point x="285" y="370" type="curve" smooth="yes"/>
      <point x="390" y="370"/>
      <point x="439" y="363"/>
      <point x="439" y="275" type="curve" smooth="yes"/>
      <point x="439" y="0" type="line"/>
    </contour>
  </outline>
</glyph>
<glyph name="kepho_skn" format="2">
  <advance width="502"/>
  <unicode hex="1064"/>
  <outline>
    <contour>
      <point x="132" y="556" type="curve" smooth="yes"/>
      <point x="91" y="556"/>
      <point x="57" y="548"/>
      <point x="34" y="536" type="curve"/>
      <point x="34" y="365" type="line"/>
      <point x="125" y="365" type="line" smooth="yes"/>
      <point x="182" y="365"/>
      <point x="211" y="343"/>
      <point x="211" y="278" type="curve" smooth="yes"/>
      <point x="211" y="142" type="line" smooth="yes"/>
      <point x="211" y="43"/>
      <point x="273" y="-10"/>
      <point x="370" y="-10" type="curve" smooth="yes"/>
      <point x="411" y="-10"/>
      <point x="445" y="-2"/>
      <point x="468" y="10" type="curve"/>
      <point x="468" y="181" type="line"/>
      <point x="377" y="181" type="line" smooth="yes"/>
      <point x="320" y="181"/>
      <point x="291" y="203"/>
      <point x="291" y="268" type="curve" smooth="yes"/>
      <point x="291" y="404" type="line" smooth="yes"/>
      <point x="291" y="503"/>
      <point x="229" y="556"/>
    </contour>
  </outline>
</glyph>
<glyph name="pwa_wpk" format="2">
  <advance width="628"/>
  <unicode hex="1066"/>
  <outline>
    <contour>
      <point x="583" y="-358" type="curve" smooth="yes"/>
      <point x="583" y="272" type="line"/>
      <point x="493" y="73" type="line"/>
      <point x="493" y="-292" type="line" smooth="yes"/>
      <point x="493" y="-363"/>
      <point x="447" y="-387"/>
      <point x="387" y="-387" type="curve" smooth="yes"/>
      <point x="326" y="-387"/>
      <point x="286" y="-361"/>
      <point x="284" y="-323" type="curve"/>
      <point x="195" y="-323" type="line"/>
      <point x="193" y="-339"/>
      <point x="192" y="-355"/>
      <point x="192" y="-367" type="curve" smooth="yes"/>
      <point x="192" y="-489"/>
      <point x="285" y="-552"/>
      <point x="390" y="-552" type="curve" smooth="yes"/>
      <point x="502" y="-552"/>
      <point x="583" y="-489"/>
    </contour>
    <component base="pa"/>
  </outline>
</glyph>
<glyph name="eu_wpk" format="2">
  <advance width="417"/>
  <unicode hex="1067"/>
  <outline>
    <contour>
      <point x="367" y="546" type="line"/>
      <point x="273" y="546" type="line"/>
      <point x="273" y="241" type="line"/>
      <point x="336" y="165" type="line"/>
      <point x="336" y="258"/>
      <point x="292" y="309"/>
      <point x="198" y="309" type="curve" smooth="yes"/>
      <point x="112" y="309"/>
      <point x="54" y="246"/>
      <point x="54" y="153" type="curve" smooth="yes"/>
      <point x="54" y="48"/>
      <point x="112" y="-10"/>
      <point x="215" y="-10" type="curve" smooth="yes"/>
      <point x="321" y="-10"/>
      <point x="367" y="59"/>
      <point x="367" y="153" type="curve" smooth="yes"/>
    </contour>
    <contour>
      <point x="206" y="133" type="curve" smooth="yes"/>
      <point x="154" y="133"/>
      <point x="132" y="152"/>
      <point x="132" y="179" type="curve" smooth="yes"/>
      <point x="132" y="205"/>
      <point x="154" y="223"/>
      <point x="206" y="223" type="curve" smooth="yes"/>
      <point x="258" y="223"/>
      <point x="280" y="205"/>
      <point x="280" y="179" type="curve" smooth="yes"/>
      <point x="280" y="152"/>
      <point x="258" y="133"/>
    </contour>
  </outline>
</glyph>
<glyph name="tone1_wpk" format="2">
  <advance width="448"/>
  <unicode hex="1069"/>
  <outline>
    <contour>
      <point x="378" y="179" type="curve"/>
      <point x="308" y="179" type="line"/>
      <point x="308" y="169" type="line" smooth="yes"/>
      <point x="308" y="146"/>
      <point x="285" y="133"/>
      <point x="230" y="133" type="curve" smooth="yes"/>
      <point x="172" y="133"/>
      <point x="160" y="147"/>
      <point x="160" y="168" type="curve" smooth="yes"/>
      <point x="160" y="198"/>
      <point x="185" y="210"/>
      <point x="235" y="235" type="curve" smooth="yes"/>
      <point x="340" y="288"/>
      <point x="386" y="321"/>
      <point x="386" y="403" type="curve" smooth="yes"/>
      <point x="386" y="493"/>
      <point x="334" y="556"/>
      <point x="224" y="556" type="curve" smooth="yes"/>
      <point x="123" y="556"/>
      <point x="67" y="502"/>
      <point x="67" y="413" type="curve" smooth="yes"/>
      <point x="67" y="389"/>
      <point x="67" y="380"/>
      <point x="70" y="367" type="curve"/>
      <point x="140" y="367" type="line"/>
      <point x="140" y="377" type="line" smooth="yes"/>
      <point x="140" y="400"/>
      <point x="163" y="413"/>
      <point x="218" y="413" type="curve" smooth="yes"/>
      <point x="276" y="413"/>
      <point x="288" y="399"/>
      <point x="288" y="378" type="curve" smooth="yes"/>
      <point x="288" y="348"/>
      <point x="262" y="336"/>
      <point x="212" y="311" type="curve" smooth="yes"/>
      <point x="107" y="258"/>
      <point x="62" y="225"/>
      <point x="62" y="143" type="curve" smooth="yes"/>
      <point x="62" y="53"/>
      <point x="114" y="-10"/>
      <point x="224" y="-10" type="curve" smooth="yes"/>
      <point x="325" y="-10"/>
      <point x="381" y="44"/>
      <point x="381" y="133" type="curve" smooth="yes"/>
      <point x="381" y="157"/>
      <point x="381" y="166"/>
    </contour>
  </outline>
</glyph>
<glyph name="tone3_wpk" format="2">
  <advance width="472"/>
  <unicode hex="106B"/>
  <outline>
    <contour>
      <point x="422" y="0" type="line"/>
      <point x="422" y="349" type="line" smooth="yes"/>
      <point x="422" y="481"/>
      <point x="357" y="556"/>
      <point x="237" y="556" type="curve" smooth="yes"/>
      <point x="112" y="556"/>
      <point x="50" y="475"/>
      <point x="50" y="353" type="curve" smooth="yes"/>
      <point x="50" y="338"/>
      <point x="51" y="327"/>
      <point x="53" y="317" type="curve"/>
      <point x="123" y="317" type="line"/>
      <point x="132" y="358"/>
      <point x="160" y="397"/>
      <point x="227" y="397" type="curve" smooth="yes"/>
      <point x="298" y="397"/>
      <point x="328" y="352"/>
      <point x="328" y="286" type="curve" smooth="yes"/>
      <point x="328" y="0" type="line"/>
    </contour>
  </outline>
</glyph>
<glyph name="tone5_wpk" format="2">
  <advance width="443"/>
  <unicode hex="106D"/>
  <outline>
    <contour>
      <point x="224" y="556" type="curve" smooth="yes"/>
      <point x="116" y="556"/>
      <point x="65" y="487"/>
      <point x="65" y="406" type="curve" smooth="yes"/>
      <point x="65" y="320"/>
      <point x="102" y="288"/>
      <point x="204" y="236" type="curve" smooth="yes"/>
      <point x="257" y="209"/>
      <point x="283" y="198"/>
      <point x="283" y="164" type="curve" smooth="yes"/>
      <point x="283" y="147"/>
      <point x="268" y="133"/>
      <point x="212" y="133" type="curve" smooth="yes"/>
      <point x="157" y="133"/>
      <point x="135" y="146"/>
      <point x="135" y="170" type="curve" smooth="yes"/>
      <point x="135" y="179" type="line"/>
      <point x="66" y="179" type="line"/>
      <point x="63" y="167"/>
      <point x="62" y="158"/>
      <point x="62" y="133" type="curve" smooth="yes"/>
      <point x="62" y="45"/>
      <point x="117" y="-10"/>
      <point x="220" y="-10" type="curve" smooth="yes"/>
      <point x="327" y="-10"/>
      <point x="381" y="59"/>
      <point x="381" y="135" type="curve" smooth="yes"/>
      <point x="381" y="225"/>
      <point x="337" y="260"/>
      <point x="227" y="311" type="curve"/>
      <point x="237" y="237" type="line"/>
      <point x="321" y="237"/>
      <point x="378" y="300"/>
      <point x="378" y="393" type="curve" smooth="yes"/>
      <point x="378" y="498"/>
      <point x="325" y="556"/>
    </contour>
    <contour>
      <point x="226" y="323" type="curve" smooth="yes"/>
      <point x="174" y="323"/>
      <point x="152" y="341"/>
      <point x="152" y="367" type="curve" smooth="yes"/>
      <point x="152" y="394"/>
      <point x="174" y="413"/>
      <point x="226" y="413" type="curve" smooth="yes"/>
      <point x="278" y="413"/>
      <point x="300" y="394"/>
      <point x="300" y="367" type="curve" smooth="yes"/>
      <point x="300" y="341"/>
      <point x="278" y="323"/>
    </contour>
  </outline>
</glyph>
<glyph name="nna_epk" format="2">
  <advance width="1178"/>
  <unicode hex="106E"/>
  <note>
Also used in Thai Mon.
</note>
  <outline>
    <contour>
      <point x="551" y="289" type="line"/>
      <point x="551" y="352"/>
      <point x="578" y="365"/>
      <point x="615" y="365" type="curve" smooth="yes"/>
      <point x="653" y="365"/>
      <point x="690" y="352"/>
      <point x="695" y="293" type="curve" smooth="yes"/>
      <point x="696" y="288"/>
      <point x="696" y="262"/>
      <point x="695" y="256" type="curve" smooth="yes"/>
      <point x="690" y="202"/>
      <point x="654" y="185"/>
      <point x="615" y="182" type="curve"/>
      <point x="615" y="-10" type="line"/>
      <point x="697" y="-4"/>
      <point x="750" y="57"/>
      <point x="768" y="159" type="curve" smooth="yes"/>
      <point x="781" y="227"/>
      <point x="781" y="321"/>
      <point x="770" y="391" type="curve" smooth="yes"/>
      <point x="752" y="502"/>
      <point x="700" y="556"/>
      <point x="615" y="556" type="curve" smooth="yes"/>
      <point x="521" y="556"/>
      <point x="457" y="503"/>
      <point x="457" y="390" type="curve"/>
    </contour>
    <component base="_aa" xOffset="777"/>
    <component base="ga"/>
  </outline>
</glyph>
<glyph name="ywa_epk" format="2">
  <advance width="1029"/>
  <unicode hex="106F"/>
  <outline>
    <contour>
      <point x="489" y="86" type="line"/>
      <point x="489" y="-274" type="line" smooth="yes"/>
      <point x="489" y="-338"/>
      <point x="455" y="-360"/>
      <point x="380" y="-360" type="curve" smooth="yes"/>
      <point x="364" y="-360" type="line"/>
      <point x="364" y="-551" type="line"/>
      <point x="371" y="-552"/>
      <point x="377" y="-552"/>
      <point x="379" y="-552" type="curve" smooth="yes"/>
      <point x="534" y="-552"/>
      <point x="583" y="-486"/>
      <point x="583" y="-346" type="curve" smooth="yes"/>
      <point x="583" y="273" type="line"/>
    </contour>
    <component base="ha"/>
  </outline>
</glyph>
<glyph name="ghwa_epk" format="2">
  <advance width="1045"/>
  <unicode hex="1070"/>
  <outline>
    <contour>
      <point x="475" y="86" type="line"/>
      <point x="475" y="-274" type="line" smooth="yes"/>
      <point x="475" y="-338"/>
      <point x="441" y="-360"/>
      <point x="366" y="-360" type="curve" smooth="yes"/>
      <point x="350" y="-360" type="line"/>
      <point x="350" y="-551" type="line"/>
      <point x="357" y="-552"/>
      <point x="363" y="-552"/>
      <point x="365" y="-552" type="curve" smooth="yes"/>
      <point x="520" y="-552"/>
      <point x="569" y="-486"/>
      <point x="569" y="-346" type="curve" smooth="yes"/>
      <point x="569" y="86" type="line"/>
    </contour>
    <component base="gha"/>
  </outline>
</glyph>
<glyph name="u_kyh" format="2">
  <unicode hex="1073"/>
  <outline>
    <contour>
      <point x="-183" y="657" type="line"/>
      <point x="-18" y="704" type="line"/>
      <point x="-264" y="938" type="line"/>
      <point x="-364" y="938" type="line"/>
      <point x="-610" y="704" type="line"/>
      <point x="-445" y="657" type="line"/>
      <point x="-314" y="872" type="line"/>
    </contour>
  </outline>
</glyph>
<glyph name="kha_shn" format="2">
  <advance width="626"/>
  <unicode hex="1076"/>
  <outline>
    <contour>
      <point x="144" y="556" type="curve"/>
      <point x="71" y="556" type="line"/>
      <point x="53" y="533"/>
      <point x="45" y="498"/>
      <point x="45" y="470" type="curve" smooth="yes"/>
      <point x="45" y="386"/>
      <point x="103" y="342"/>
      <point x="177" y="342" type="curve" smooth="yes"/>
      <point x="262" y="342"/>
      <point x="319" y="387"/>
      <point x="396" y="387" type="curve" smooth="yes"/>
      <point x="451" y="387"/>
      <point x="500" y="353"/>
      <point x="500" y="290" type="curve" smooth="yes"/>
      <point x="500" y="279" type="line" smooth="yes"/>
      <point x="500" y="195"/>
      <point x="423" y="181"/>
      <point x="327" y="181" type="curve" smooth="yes"/>
      <point x="226" y="181" type="line" smooth="yes"/>
      <point x="156" y="181"/>
      <point x="124" y="190"/>
      <point x="124" y="210" type="curve" smooth="yes"/>
      <point x="124" y="236"/>
      <point x="153" y="241"/>
      <point x="195" y="241" type="curve" smooth="yes"/>
      <point x="250" y="241" type="line" smooth="yes"/>
      <point x="296" y="241"/>
      <point x="323" y="225"/>
      <point x="323" y="190" type="curve" smooth="yes"/>
      <point x="323" y="146" type="line"/>
      <point x="381" y="146" type="line"/>
      <point x="381" y="171" type="line" smooth="yes"/>
      <point x="381" y="282"/>
      <point x="319" y="307"/>
      <point x="218" y="307" type="curve" smooth="yes"/>
      <point x="71" y="307"/>
      <point x="46" y="245"/>
      <point x="46" y="179" type="curve" smooth="yes"/>
      <point x="46" y="71"/>
      <point x="146" y="-10"/>
      <point x="301" y="-10" type="curve" smooth="yes"/>
      <point x="308" y="-10" type="line" smooth="yes"/>
      <point x="404" y="-10"/>
      <point x="479" y="19"/>
      <point x="526" y="79" type="curve" smooth="yes"/>
      <point x="562" y="125"/>
      <point x="581" y="190"/>
      <point x="581" y="273" type="curve" smooth="yes"/>
      <point x="581" y="433"/>
      <point x="509" y="556"/>
      <point x="375" y="556" type="curve" smooth="yes"/>
      <point x="288" y="556"/>
      <point x="250" y="494"/>
      <point x="191" y="494" type="curve" smooth="yes"/>
      <point x="161" y="494"/>
      <point x="137" y="518"/>
    </contour>
  </outline>
</glyph>
<glyph name="ga_shn" format="2">
  <advance width="644"/>
  <unicode hex="1077"/>
  <note>
ga_shn
</note>
  <outline>
    <contour>
      <point x="309" y="556" type="line" smooth="yes"/>
      <point x="162" y="556"/>
      <point x="61" y="493"/>
      <point x="61" y="384" type="curve" smooth="yes"/>
      <point x="61" y="272"/>
      <point x="163" y="234"/>
      <point x="163" y="172" type="curve" smooth="yes"/>
      <point x="163" y="152"/>
      <point x="152" y="136"/>
      <point x="128" y="136" type="curve" smooth="yes"/>
      <point x="109" y="136"/>
      <point x="96" y="149"/>
      <point x="92" y="163" type="curve"/>
      <point x="42" y="163" type="line"/>
      <point x="27" y="42"/>
      <point x="94" y="-10"/>
      <point x="174" y="-10" type="curve" smooth="yes"/>
      <point x="250" y="-10"/>
      <point x="297" y="36"/>
      <point x="297" y="101" type="curve" smooth="yes"/>
      <point x="297" y="204"/>
      <point x="178" y="227"/>
      <point x="178" y="303" type="curve" smooth="yes"/>
      <point x="178" y="354"/>
      <point x="234" y="365"/>
      <point x="324" y="365" type="curve" smooth="yes"/>
      <point x="422" y="365"/>
      <point x="518" y="349"/>
      <point x="518" y="257" type="curve" smooth="yes"/>
      <point x="518" y="251" type="line" smooth="yes"/>
      <point x="518" y="208"/>
      <point x="496" y="180"/>
      <point x="465" y="180" type="curve" smooth="yes"/>
      <point x="435" y="180"/>
      <point x="424" y="207"/>
      <point x="424" y="231" type="curve" smooth="yes"/>
      <point x="424" y="279"/>
      <point x="468" y="330"/>
      <point x="520" y="333" type="curve"/>
      <point x="520" y="399" type="line"/>
      <point x="400" y="399"/>
      <point x="343" y="282"/>
      <point x="343" y="153" type="curve" smooth="yes"/>
      <point x="343" y="49"/>
      <point x="378" y="-10"/>
      <point x="448" y="-10" type="curve" smooth="yes"/>
      <point x="543" y="-10"/>
      <point x="599" y="97"/>
      <point x="599" y="273" type="curve" smooth="yes"/>
      <point x="599" y="345"/>
      <point x="587" y="418"/>
      <point x="541" y="473" type="curve" smooth="yes"/>
      <point x="499" y="523"/>
      <point x="431" y="556"/>
      <point x="326" y="556" type="curve" smooth="yes"/>
    </contour>
  </outline>
</glyph>
<glyph name="na_shn" format="2">
  <advance width="1080"/>
  <unicode hex="107C"/>
  <note>
na_shn
</note>
  <outline>
    <contour>
      <point x="1033" y="310" type="line"/>
      <point x="1030" y="461"/>
      <point x="950" y="556"/>
      <point x="803" y="556" type="curve" smooth="yes"/>
      <point x="650" y="556"/>
      <point x="569" y="449"/>
      <point x="569" y="271" type="curve" smooth="yes"/>
      <point x="569" y="72"/>
      <point x="656" y="-10"/>
      <point x="818" y="-10" type="curve" smooth="yes"/>
      <point x="936" y="-10"/>
      <point x="1005" y="47"/>
      <point x="1005" y="142" type="curve" smooth="yes"/>
      <point x="1005" y="219"/>
      <point x="959" y="279"/>
      <point x="825" y="294" type="curve" smooth="yes"/>
      <point x="763" y="301"/>
      <point x="636" y="304"/>
      <point x="540" y="304" type="curve" smooth="yes"/>
      <point x="444" y="304"/>
      <point x="317" y="301"/>
      <point x="255" y="294" type="curve" smooth="yes"/>
      <point x="121" y="279"/>
      <point x="75" y="219"/>
      <point x="75" y="142" type="curve" smooth="yes"/>
      <point x="75" y="47"/>
      <point x="144" y="-10"/>
      <point x="262" y="-10" type="curve" smooth="yes"/>
      <point x="424" y="-10"/>
      <point x="511" y="72"/>
      <point x="511" y="271" type="curve" smooth="yes"/>
      <point x="511" y="449"/>
      <point x="430" y="556"/>
      <point x="277" y="556" type="curve" smooth="yes"/>
      <point x="130" y="556"/>
      <point x="50" y="461"/>
      <point x="47" y="310" type="curve"/>
      <point x="130" y="310" type="line"/>
      <point x="141" y="352"/>
      <point x="207" y="376"/>
      <point x="281" y="376" type="curve" smooth="yes"/>
      <point x="363" y="376"/>
      <point x="432" y="347"/>
      <point x="432" y="275" type="curve" smooth="yes"/>
      <point x="432" y="267" type="line" smooth="yes"/>
      <point x="432" y="181"/>
      <point x="367" y="151"/>
      <point x="251" y="151" type="curve" smooth="yes"/>
      <point x="207" y="151"/>
      <point x="166" y="155"/>
      <point x="166" y="189" type="curve" smooth="yes"/>
      <point x="166" y="216"/>
      <point x="199" y="224"/>
      <point x="272" y="229" type="curve" smooth="yes"/>
      <point x="325" y="233"/>
      <point x="426" y="236"/>
      <point x="540" y="236" type="curve" smooth="yes"/>
      <point x="654" y="236"/>
      <point x="755" y="233"/>
      <point x="808" y="229" type="curve" smooth="yes"/>
      <point x="881" y="224"/>
      <point x="914" y="216"/>
      <point x="914" y="189" type="curve" smooth="yes"/>
      <point x="914" y="155"/>
      <point x="873" y="151"/>
      <point x="829" y="151" type="curve" smooth="yes"/>
      <point x="713" y="151"/>
      <point x="648" y="181"/>
      <point x="648" y="267" type="curve" smooth="yes"/>
      <point x="648" y="275" type="line" smooth="yes"/>
      <point x="648" y="347"/>
      <point x="717" y="376"/>
      <point x="799" y="376" type="curve" smooth="yes"/>
      <point x="873" y="376"/>
      <point x="939" y="352"/>
      <point x="950" y="310" type="curve"/>
    </contour>
  </outline>
</glyph>
<glyph name="tha_shn" format="2">
  <advance width="1029"/>
  <unicode hex="1080"/>
  <note>
tha_shn
</note>
  <outline>
    <contour>
      <point x="47" y="312" type="curve"/>
      <point x="131" y="312" type="line"/>
      <point x="145" y="348"/>
      <point x="210" y="365"/>
      <point x="314" y="365" type="curve" smooth="yes"/>
      <point x="410" y="365"/>
      <point x="502" y="349"/>
      <point x="502" y="276" type="curve" smooth="yes"/>
      <point x="502" y="270" type="line" smooth="yes"/>
      <point x="502" y="197"/>
      <point x="425" y="181"/>
      <point x="329" y="181" type="curve" smooth="yes"/>
      <point x="228" y="181" type="line" smooth="yes"/>
      <point x="158" y="181"/>
      <point x="126" y="190"/>
      <point x="126" y="210" type="curve" smooth="yes"/>
      <point x="126" y="236"/>
      <point x="155" y="241"/>
      <point x="197" y="241" type="curve" smooth="yes"/>
      <point x="252" y="241" type="line" smooth="yes"/>
      <point x="298" y="241"/>
      <point x="325" y="225"/>
      <point x="325" y="190" type="curve" smooth="yes"/>
      <point x="325" y="146" type="line"/>
      <point x="383" y="146" type="line"/>
      <point x="383" y="171" type="line" smooth="yes"/>
      <point x="383" y="282"/>
      <point x="321" y="307"/>
      <point x="220" y="307" type="curve" smooth="yes"/>
      <point x="73" y="307"/>
      <point x="48" y="245"/>
      <point x="48" y="179" type="curve" smooth="yes"/>
      <point x="48" y="71"/>
      <point x="148" y="-10"/>
      <point x="303" y="-10" type="curve" smooth="yes"/>
      <point x="310" y="-10" type="line" smooth="yes"/>
      <point x="406" y="-10"/>
      <point x="481" y="19"/>
      <point x="528" y="79" type="curve" smooth="yes"/>
      <point x="564" y="125"/>
      <point x="583" y="190"/>
      <point x="583" y="273" type="curve" smooth="yes"/>
      <point x="583" y="355"/>
      <point x="564" y="421"/>
      <point x="528" y="469" type="curve" smooth="yes"/>
      <point x="485" y="526"/>
      <point x="417" y="556"/>
      <point x="325" y="556" type="curve" smooth="yes"/>
      <point x="303" y="556" type="line" smooth="yes"/>
      <point x="148" y="556"/>
      <point x="50" y="464"/>
    </contour>
    <contour>
      <point x="504" y="73" type="line"/>
      <point x="543" y="25"/>
      <point x="613" y="-10"/>
      <point x="704" y="-10" type="curve" smooth="yes"/>
      <point x="726" y="-10" type="line" smooth="yes"/>
      <point x="817" y="-10"/>
      <point x="887" y="25"/>
      <point x="930" y="78" type="curve" smooth="yes"/>
      <point x="968" y="126"/>
      <point x="984" y="188"/>
      <point x="984" y="273" type="curve" smooth="yes"/>
      <point x="984" y="358"/>
      <point x="968" y="420"/>
      <point x="930" y="468" type="curve" smooth="yes"/>
      <point x="887" y="521"/>
      <point x="817" y="556"/>
      <point x="726" y="556" type="curve" smooth="yes"/>
      <point x="709" y="556"/>
      <point x="691" y="556"/>
      <point x="673" y="552" type="curve"/>
      <point x="673" y="365" type="line"/>
      <point x="715" y="365" type="line" smooth="yes"/>
      <point x="811" y="365"/>
      <point x="903" y="349"/>
      <point x="903" y="276" type="curve" smooth="yes"/>
      <point x="903" y="270" type="line" smooth="yes"/>
      <point x="903" y="197"/>
      <point x="811" y="181"/>
      <point x="715" y="181" type="curve" smooth="yes"/>
      <point x="658" y="181"/>
      <point x="603" y="187"/>
      <point x="567" y="206" type="curve"/>
    </contour>
  </outline>
</glyph>
<glyph name="ha_shn" format="2">
  <advance width="628"/>
  <unicode hex="1081"/>
  <outline>
    <contour>
      <point x="562" y="170" type="line"/>
      <point x="574" y="195"/>
      <point x="583" y="248"/>
      <point x="583" y="295" type="curve" smooth="yes"/>
      <point x="583" y="345"/>
      <point x="571" y="418"/>
      <point x="525" y="473" type="curve" smooth="yes"/>
      <point x="483" y="523"/>
      <point x="415" y="556"/>
      <point x="325" y="556" type="curve" smooth="yes"/>
      <point x="303" y="556" type="line" smooth="yes"/>
      <point x="213" y="556"/>
      <point x="145" y="523"/>
      <point x="103" y="473" type="curve" smooth="yes"/>
      <point x="57" y="418"/>
      <point x="45" y="343"/>
      <point x="45" y="274" type="curve" smooth="yes"/>
      <point x="45" y="199"/>
      <point x="59" y="127"/>
      <point x="104" y="73" type="curve" smooth="yes"/>
      <point x="149" y="19"/>
      <point x="220" y="-10"/>
      <point x="277" y="-10" type="curve" smooth="yes"/>
      <point x="303" y="-10"/>
      <point x="326" y="-5"/>
      <point x="346" y="5" type="curve"/>
      <point x="290" y="29" type="line"/>
      <point x="182" y="-300" type="line" smooth="yes"/>
      <point x="165" y="-352"/>
      <point x="141" y="-362"/>
      <point x="108" y="-362" type="curve" smooth="yes"/>
      <point x="87" y="-362"/>
      <point x="73" y="-358"/>
      <point x="53" y="-349" type="curve"/>
      <point x="-6" y="-530" type="line"/>
      <point x="18" y="-542"/>
      <point x="45" y="-552"/>
      <point x="84" y="-552" type="curve" smooth="yes"/>
      <point x="169" y="-552"/>
      <point x="215" y="-504"/>
      <point x="248" y="-404" type="curve" smooth="yes"/>
      <point x="393" y="38" type="line" smooth="yes"/>
      <point x="402" y="65"/>
      <point x="411" y="100"/>
      <point x="411" y="120" type="curve" smooth="yes"/>
      <point x="411" y="201"/>
      <point x="359" y="252"/>
      <point x="277" y="252" type="curve" smooth="yes"/>
      <point x="195" y="252"/>
      <point x="143" y="201"/>
      <point x="143" y="120" type="curve" smooth="yes"/>
      <point x="143" y="41"/>
      <point x="195" y="0"/>
      <point x="277" y="0" type="curve"/>
      <point x="277" y="51" type="line"/>
      <point x="182" y="80"/>
      <point x="126" y="144"/>
      <point x="126" y="252" type="curve" smooth="yes"/>
      <point x="126" y="349"/>
      <point x="218" y="365"/>
      <point x="314" y="365" type="curve" smooth="yes"/>
      <point x="410" y="365"/>
      <point x="502" y="349"/>
      <point x="502" y="252" type="curve" smooth="yes"/>
      <point x="502" y="232"/>
      <point x="500" y="202"/>
      <point x="489" y="170" type="curve"/>
    </contour>
    <contour>
      <point x="277" y="76" type="curve" smooth="yes"/>
      <point x="225" y="76"/>
      <point x="203" y="94"/>
      <point x="203" y="120" type="curve" smooth="yes"/>
      <point x="203" y="147"/>
      <point x="225" y="166"/>
      <point x="277" y="166" type="curve" smooth="yes"/>
      <point x="329" y="166"/>
      <point x="351" y="147"/>
      <point x="351" y="120" type="curve" smooth="yes"/>
      <point x="351" y="94"/>
      <point x="329" y="76"/>
    </contour>
  </outline>
</glyph>
<glyph name="aa_shn" format="2">
  <advance width="361"/>
  <unicode hex="1083"/>
  <outline>
    <contour>
      <point x="311" y="350" type="line" smooth="yes"/>
      <point x="311" y="490"/>
      <point x="260" y="556"/>
      <point x="125" y="556" type="curve" smooth="yes"/>
      <point x="84" y="556"/>
      <point x="51" y="552"/>
      <point x="27" y="543" type="curve"/>
      <point x="27" y="362" type="line"/>
      <point x="46" y="367"/>
      <point x="75" y="373"/>
      <point x="113" y="373" type="curve" smooth="yes"/>
      <point x="184" y="373"/>
      <point x="217" y="349"/>
      <point x="217" y="285" type="curve" smooth="yes"/>
      <point x="217" y="-346" type="line" smooth="yes"/>
      <point x="217" y="-486"/>
      <point x="269" y="-552"/>
      <point x="409" y="-552" type="curve" smooth="yes"/>
      <point x="426" y="-552"/>
      <point x="441" y="-551"/>
      <point x="455" y="-547" type="curve"/>
      <point x="455" y="-369" type="line"/>
      <point x="444" y="-371"/>
      <point x="431" y="-373"/>
      <point x="415" y="-373" type="curve" smooth="yes"/>
      <point x="344" y="-373"/>
      <point x="311" y="-349"/>
      <point x="311" y="-287" type="curve" smooth="yes"/>
    </contour>
  </outline>
</glyph>
<glyph name="_final_y_shn" format="2">
  <unicode hex="1086"/>
  <note>
Renamed from _f_above_shn
</note>
  <outline>
    <contour>
      <point x="-147" y="869" type="curve"/>
      <point x="-225" y="864" type="line"/>
      <point x="-253" y="785"/>
      <point x="-306" y="727"/>
      <point x="-357" y="675" type="curve"/>
      <point x="-288" y="611" type="line"/>
      <point x="-151" y="734"/>
      <point x="-112" y="847"/>
      <point x="-112" y="942" type="curve" smooth="yes"/>
      <point x="-112" y="1039"/>
      <point x="-169" y="1098"/>
      <point x="-255" y="1098" type="curve" smooth="yes"/>
      <point x="-342" y="1098"/>
      <point x="-397" y="1046"/>
      <point x="-397" y="962" type="curve" smooth="yes"/>
      <point x="-397" y="881"/>
      <point x="-342" y="829"/>
      <point x="-255" y="829" type="curve" smooth="yes"/>
      <point x="-209" y="829"/>
      <point x="-172" y="843"/>
    </contour>
    <contour>
      <point x="-255" y="917" type="curve" smooth="yes"/>
      <point x="-308" y="917"/>
      <point x="-331" y="936"/>
      <point x="-331" y="962" type="curve" smooth="yes"/>
      <point x="-331" y="990"/>
      <point x="-308" y="1010"/>
      <point x="-255" y="1010" type="curve" smooth="yes"/>
      <point x="-201" y="1010"/>
      <point x="-178" y="990"/>
      <point x="-178" y="962" type="curve" smooth="yes"/>
      <point x="-178" y="936"/>
      <point x="-201" y="917"/>
    </contour>
  </outline>
</glyph>
<glyph name="tone2_shn" format="2">
  <advance width="384"/>
  <unicode hex="1087"/>
  <outline>
    <contour>
      <point x="134" y="-231" type="line"/>
      <point x="268" y="-141"/>
      <point x="326" y="-19"/>
      <point x="326" y="98" type="curve" smooth="yes"/>
      <point x="326" y="203"/>
      <point x="274" y="252"/>
      <point x="192" y="252" type="curve" smooth="yes"/>
      <point x="110" y="252"/>
      <point x="58" y="201"/>
      <point x="58" y="120" type="curve" smooth="yes"/>
      <point x="58" y="41"/>
      <point x="110" y="-10"/>
      <point x="192" y="-10" type="curve" smooth="yes"/>
      <point x="242" y="-10"/>
      <point x="280" y="9"/>
      <point x="303" y="41" type="curve"/>
      <point x="227" y="57" type="line"/>
      <point x="213" y="-18"/>
      <point x="181" y="-93"/>
      <point x="80" y="-172" type="curve"/>
    </contour>
    <contour>
      <point x="192" y="76" type="curve" smooth="yes"/>
      <point x="140" y="76"/>
      <point x="118" y="94"/>
      <point x="118" y="120" type="curve" smooth="yes"/>
      <point x="118" y="147"/>
      <point x="140" y="166"/>
      <point x="192" y="166" type="curve" smooth="yes"/>
      <point x="244" y="166"/>
      <point x="266" y="147"/>
      <point x="266" y="120" type="curve" smooth="yes"/>
      <point x="266" y="94"/>
      <point x="244" y="76"/>
    </contour>
  </outline>
</glyph>
<glyph name="tone6_shn" format="2">
  <advance width="564"/>
  <unicode hex="108A"/>
  <outline>
    <contour>
      <point x="248" y="377" type="curve"/>
      <point x="309" y="354" type="line"/>
      <point x="320" y="373"/>
      <point x="326" y="397"/>
      <point x="326" y="424" type="curve" smooth="yes"/>
      <point x="326" y="505"/>
      <point x="274" y="556"/>
      <point x="192" y="556" type="curve" smooth="yes"/>
      <point x="110" y="556"/>
      <point x="58" y="504"/>
      <point x="58" y="422" type="curve" smooth="yes"/>
      <point x="58" y="342"/>
      <point x="109" y="294"/>
      <point x="230" y="294" type="curve" smooth="yes"/>
      <point x="367" y="294"/>
      <point x="480" y="360"/>
      <point x="539" y="449" type="curve"/>
      <point x="480" y="494" type="line"/>
      <point x="420" y="422"/>
      <point x="348" y="379"/>
    </contour>
    <contour>
      <point x="192" y="380" type="curve" smooth="yes"/>
      <point x="140" y="380"/>
      <point x="118" y="398"/>
      <point x="118" y="424" type="curve" smooth="yes"/>
      <point x="118" y="451"/>
      <point x="140" y="470"/>
      <point x="192" y="470" type="curve" smooth="yes"/>
      <point x="244" y="470"/>
      <point x="266" y="451"/>
      <point x="266" y="424" type="curve" smooth="yes"/>
      <point x="266" y="398"/>
      <point x="244" y="380"/>
    </contour>
    <contour>
      <point x="248" y="73" type="curve"/>
      <point x="309" y="50" type="line"/>
      <point x="320" y="69"/>
      <point x="326" y="93"/>
      <point x="326" y="120" type="curve" smooth="yes"/>
      <point x="326" y="201"/>
      <point x="274" y="252"/>
      <point x="192" y="252" type="curve" smooth="yes"/>
      <point x="110" y="252"/>
      <point x="58" y="200"/>
      <point x="58" y="118" type="curve" smooth="yes"/>
      <point x="58" y="38"/>
      <point x="109" y="-10"/>
      <point x="230" y="-10" type="curve" smooth="yes"/>
      <point x="367" y="-10"/>
      <point x="480" y="56"/>
      <point x="539" y="145" type="curve"/>
      <point x="480" y="190" type="line"/>
      <point x="420" y="118"/>
      <point x="348" y="75"/>
    </contour>
    <contour>
      <point x="192" y="76" type="curve" smooth="yes"/>
      <point x="140" y="76"/>
      <point x="118" y="94"/>
      <point x="118" y="120" type="curve" smooth="yes"/>
      <point x="118" y="147"/>
      <point x="140" y="166"/>
      <point x="192" y="166" type="curve" smooth="yes"/>
      <point x="244" y="166"/>
      <point x="266" y="147"/>
      <point x="266" y="120" type="curve" smooth="yes"/>
      <point x="266" y="94"/>
      <point x="244" y="76"/>
    </contour>
  </outline>
</glyph>
<glyph name="zero_shn" format="2">
  <advance width="638"/>
  <unicode hex="1090"/>
  <outline>
    <contour>
      <point x="588" y="273" type="line" smooth="yes"/>
      <point x="588" y="358"/>
      <point x="573" y="420"/>
      <point x="534" y="469" type="curve" smooth="yes"/>
      <point x="491" y="521"/>
      <point x="421" y="556"/>
      <point x="330" y="556" type="curve" smooth="yes"/>
      <point x="308" y="556" type="line" smooth="yes"/>
      <point x="217" y="556"/>
      <point x="147" y="521"/>
      <point x="104" y="469" type="curve" smooth="yes"/>
      <point x="65" y="420"/>
      <point x="50" y="358"/>
      <point x="50" y="273" type="curve" smooth="yes"/>
      <point x="50" y="-169" type="line" smooth="yes"/>
      <point x="50" y="-254"/>
      <point x="65" y="-316"/>
      <point x="104" y="-365" type="curve" smooth="yes"/>
      <point x="147" y="-417"/>
      <point x="217" y="-452"/>
      <point x="308" y="-452" type="curve" smooth="yes"/>
      <point x="330" y="-452" type="line" smooth="yes"/>
      <point x="421" y="-452"/>
      <point x="491" y="-417"/>
      <point x="534" y="-365" type="curve" smooth="yes"/>
      <point x="573" y="-316"/>
      <point x="588" y="-254"/>
      <point x="588" y="-169" type="curve" smooth="yes"/>
    </contour>
    <contour>
      <point x="498" y="218" type="curve" smooth="yes"/>
      <point x="498" y="-114" type="line" smooth="yes"/>
      <point x="498" y="-238"/>
      <point x="410" y="-261"/>
      <point x="319" y="-261" type="curve" smooth="yes"/>
      <point x="228" y="-261"/>
      <point x="140" y="-238"/>
      <point x="140" y="-114" type="curve" smooth="yes"/>
      <point x="140" y="218" type="line" smooth="yes"/>
      <point x="140" y="342"/>
      <point x="228" y="365"/>
      <point x="319" y="365" type="curve" smooth="yes"/>
      <point x="410" y="365"/>
      <point x="498" y="342"/>
    </contour>
  </outline>
</glyph>
<glyph name="one_shn" format="2">
  <advance width="473"/>
  <unicode hex="1091"/>
  <outline>
    <contour>
      <point x="311" y="546" type="line"/>
      <point x="234" y="546" type="line"/>
      <point x="70" y="443" type="line"/>
      <point x="70" y="276" type="line"/>
      <point x="217" y="368" type="line"/>
      <point x="217" y="-246" type="line" smooth="yes"/>
      <point x="217" y="-386"/>
      <point x="266" y="-452"/>
      <point x="420" y="-452" type="curve" smooth="yes"/>
      <point x="425" y="-452"/>
      <point x="431" y="-452"/>
      <point x="436" y="-451" type="curve"/>
      <point x="436" y="-260" type="line"/>
      <point x="420" y="-260" type="line" smooth="yes"/>
      <point x="345" y="-260"/>
      <point x="311" y="-238"/>
      <point x="311" y="-174" type="curve" smooth="yes"/>
    </contour>
  </outline>
</glyph>
<glyph name="two_shn" format="2">
  <advance width="654"/>
  <unicode hex="1092"/>
  <outline>
    <contour>
      <point x="145" y="556" type="curve"/>
      <point x="72" y="556" type="line"/>
      <point x="54" y="533"/>
      <point x="46" y="498"/>
      <point x="46" y="470" type="curve" smooth="yes"/>
      <point x="46" y="386"/>
      <point x="104" y="340"/>
      <point x="176" y="340" type="curve" smooth="yes"/>
      <point x="258" y="340"/>
      <point x="309" y="388"/>
      <point x="386" y="388" type="curve" smooth="yes"/>
      <point x="458" y="388"/>
      <point x="503" y="338"/>
      <point x="503" y="260" type="curve" smooth="yes"/>
      <point x="503" y="-5"/>
      <point x="44" y="0"/>
      <point x="44" y="-311" type="curve" smooth="yes"/>
      <point x="44" y="-367"/>
      <point x="60" y="-414"/>
      <point x="80" y="-442" type="curve"/>
      <point x="255" y="-442" type="line"/>
      <point x="259" y="-427" type="line"/>
      <point x="233" y="-399"/>
      <point x="218" y="-355"/>
      <point x="218" y="-313" type="curve" smooth="yes"/>
      <point x="218" y="-66"/>
      <point x="609" y="-31"/>
      <point x="609" y="309" type="curve" smooth="yes"/>
      <point x="609" y="434"/>
      <point x="552" y="556"/>
      <point x="402" y="556" type="curve" smooth="yes"/>
      <point x="301" y="556"/>
      <point x="250" y="492"/>
      <point x="193" y="492" type="curve" smooth="yes"/>
      <point x="158" y="492"/>
      <point x="144" y="513"/>
      <point x="144" y="543" type="curve" smooth="yes"/>
      <point x="144" y="547"/>
      <point x="144" y="551"/>
    </contour>
  </outline>
</glyph>
<glyph name="three_shn" format="2">
  <advance width="606"/>
  <unicode hex="1093"/>
  <outline>
    <contour>
      <point x="428" y="546" type="line"/>
      <point x="132" y="546" type="line"/>
      <point x="132" y="365" type="line"/>
      <point x="290" y="365" type="line"/>
      <point x="22" y="-442" type="line"/>
      <point x="112" y="-442" type="line"/>
      <point x="432" y="530" type="line"/>
    </contour>
    <contour>
      <point x="257" y="115" type="line"/>
      <point x="198" y="-66" type="line"/>
      <point x="301" y="-66" type="line" smooth="yes"/>
      <point x="386" y="-66"/>
      <point x="411" y="-82"/>
      <point x="432" y="-160" type="curve" smooth="yes"/>
      <point x="455" y="-244"/>
      <point x="467" y="-360"/>
      <point x="474" y="-442" type="curve"/>
      <point x="584" y="-442" type="line"/>
      <point x="561" y="-336"/>
      <point x="535" y="-214"/>
      <point x="504" y="-100" type="curve" smooth="yes"/>
      <point x="466" y="40"/>
      <point x="435" y="115"/>
      <point x="339" y="115" type="curve" smooth="yes"/>
    </contour>
  </outline>
</glyph>
<glyph name="four_shn" format="2">
  <advance width="798"/>
  <unicode hex="1094"/>
  <outline>
    <contour>
      <point x="452" y="546" type="line"/>
      <point x="156" y="546" type="line"/>
      <point x="156" y="365" type="line"/>
      <point x="322" y="365" type="line"/>
      <point x="187" y="-177" type="line" smooth="yes"/>
      <point x="171" y="-242"/>
      <point x="148" y="-260"/>
      <point x="102" y="-260" type="curve" smooth="yes"/>
      <point x="93" y="-260"/>
      <point x="82" y="-259"/>
      <point x="71" y="-256" type="curve"/>
      <point x="23" y="-445" type="line"/>
      <point x="45" y="-450"/>
      <point x="68" y="-452"/>
      <point x="90" y="-452" type="curve" smooth="yes"/>
      <point x="175" y="-452"/>
      <point x="216" y="-420"/>
      <point x="237" y="-334" type="curve" smooth="yes"/>
      <point x="443" y="505" type="line"/>
      <point x="375" y="505" type="line"/>
      <point x="581" y="-334" type="line" smooth="yes"/>
      <point x="602" y="-420"/>
      <point x="643" y="-452"/>
      <point x="728" y="-452" type="curve" smooth="yes"/>
      <point x="750" y="-452"/>
      <point x="773" y="-450"/>
      <point x="795" y="-445" type="curve"/>
      <point x="747" y="-256" type="line"/>
      <point x="736" y="-259"/>
      <point x="725" y="-260"/>
      <point x="716" y="-260" type="curve" smooth="yes"/>
      <point x="670" y="-260"/>
      <point x="647" y="-242"/>
      <point x="631" y="-177" type="curve" smooth="yes"/>
    </contour>
  </outline>
</glyph>
<glyph name="six_shn" format="2">
  <advance width="708"/>
  <unicode hex="1096"/>
  <outline>
    <contour>
      <point x="665" y="171" type="line"/>
      <point x="310" y="171" type="line" smooth="yes"/>
      <point x="218" y="171"/>
      <point x="126" y="188"/>
      <point x="126" y="265" type="curve" smooth="yes"/>
      <point x="126" y="271" type="line" smooth="yes"/>
      <point x="126" y="348"/>
      <point x="218" y="365"/>
      <point x="314" y="365" type="curve" smooth="yes"/>
      <point x="410" y="365"/>
      <point x="502" y="348"/>
      <point x="502" y="237" type="curve" smooth="yes"/>
      <point x="502" y="231" type="line" smooth="yes"/>
      <point x="502" y="59"/>
      <point x="403" y="-202"/>
      <point x="303" y="-442" type="curve"/>
      <point x="471" y="-442" type="line"/>
      <point x="529" y="-211"/>
      <point x="583" y="99"/>
      <point x="583" y="273" type="curve" smooth="yes"/>
      <point x="583" y="451"/>
      <point x="499" y="556"/>
      <point x="331" y="556" type="curve" smooth="yes"/>
      <point x="303" y="556" type="line" smooth="yes"/>
      <point x="212" y="556"/>
      <point x="142" y="521"/>
      <point x="99" y="469" type="curve" smooth="yes"/>
      <point x="59" y="421"/>
      <point x="45" y="358"/>
      <point x="45" y="273" type="curve" smooth="yes"/>
      <point x="45" y="90"/>
      <point x="136" y="-10"/>
      <point x="311" y="-10" type="curve" smooth="yes"/>
      <point x="665" y="-10" type="line"/>
    </contour>
  </outline>
</glyph>
<glyph name="seven_shn" format="2">
  <advance width="666"/>
  <unicode hex="1097"/>
  <outline>
    <contour>
      <point x="655" y="441" type="line"/>
      <point x="617" y="515"/>
      <point x="532" y="556"/>
      <point x="362" y="556" type="curve" smooth="yes"/>
      <point x="333" y="556" type="line" smooth="yes"/>
      <point x="145" y="556"/>
      <point x="52" y="490"/>
      <point x="52" y="364" type="curve" smooth="yes"/>
      <point x="52" y="329"/>
      <point x="56" y="294"/>
      <point x="62" y="271" type="curve"/>
      <point x="130" y="271" type="line"/>
      <point x="130" y="338"/>
      <point x="185" y="365"/>
      <point x="312" y="365" type="curve" smooth="yes"/>
      <point x="413" y="365"/>
      <point x="464" y="349"/>
      <point x="490" y="334" type="curve"/>
      <point x="45" y="-412" type="line"/>
      <point x="101" y="-443"/>
      <point x="178" y="-452"/>
      <point x="292" y="-452" type="curve" smooth="yes"/>
      <point x="484" y="-452"/>
      <point x="553" y="-390"/>
      <point x="553" y="-274" type="curve" smooth="yes"/>
      <point x="553" y="-245"/>
      <point x="549" y="-213"/>
      <point x="544" y="-192" type="curve"/>
      <point x="482" y="-192" type="line"/>
      <point x="482" y="-253"/>
      <point x="432" y="-278"/>
      <point x="316" y="-278" type="curve" smooth="yes"/>
      <point x="274" y="-278"/>
      <point x="242" y="-275"/>
      <point x="216" y="-270" type="curve"/>
    </contour>
  </outline>
</glyph>
<glyph name="eight_shn" format="2">
  <advance width="662"/>
  <unicode hex="1098"/>
  <outline>
    <contour>
      <point x="49" y="404" type="curve" smooth="yes"/>
      <point x="49" y="89"/>
      <point x="499" y="54"/>
      <point x="499" y="-149" type="curve" smooth="yes"/>
      <point x="499" y="-209"/>
      <point x="451" y="-260"/>
      <point x="347" y="-260" type="curve" smooth="yes"/>
      <point x="315" y="-260" type="line" smooth="yes"/>
      <point x="211" y="-260"/>
      <point x="164" y="-209"/>
      <point x="164" y="-149" type="curve" smooth="yes"/>
      <point x="164" y="54"/>
      <point x="613" y="89"/>
      <point x="613" y="404" type="curve" smooth="yes"/>
      <point x="613" y="467"/>
      <point x="599" y="514"/>
      <point x="581" y="546" type="curve"/>
      <point x="422" y="546" type="line"/>
      <point x="418" y="534" type="line"/>
      <point x="447" y="495"/>
      <point x="467" y="444"/>
      <point x="467" y="378" type="curve" smooth="yes"/>
      <point x="467" y="105"/>
      <point x="45" y="100"/>
      <point x="45" y="-214" type="curve" smooth="yes"/>
      <point x="45" y="-335"/>
      <point x="129" y="-452"/>
      <point x="295" y="-452" type="curve" smooth="yes"/>
      <point x="368" y="-452" type="line" smooth="yes"/>
      <point x="533" y="-452"/>
      <point x="617" y="-335"/>
      <point x="617" y="-214" type="curve" smooth="yes"/>
      <point x="617" y="100"/>
      <point x="195" y="105"/>
      <point x="195" y="378" type="curve" smooth="yes"/>
      <point x="195" y="444"/>
      <point x="215" y="495"/>
      <point x="244" y="534" type="curve"/>
      <point x="240" y="546" type="line"/>
      <point x="81" y="546" type="line"/>
      <point x="63" y="514"/>
      <point x="49" y="467"/>
    </contour>
  </outline>
</glyph>
<glyph name="tone1_khm" format="2">
  <advance width="350"/>
  <unicode hex="109A"/>
  <outline>
    <contour>
      <point x="175" y="324" type="curve" smooth="yes"/>
      <point x="246" y="324"/>
      <point x="292" y="374"/>
      <point x="292" y="439" type="curve" smooth="yes"/>
      <point x="292" y="506"/>
      <point x="246" y="556"/>
      <point x="175" y="556" type="curve" smooth="yes"/>
      <point x="104" y="556"/>
      <point x="58" y="506"/>
      <point x="58" y="439" type="curve" smooth="yes"/>
      <point x="58" y="374"/>
      <point x="104" y="324"/>
    </contour>
  </outline>
</glyph>
<glyph name="_a_atn" format="2">
  <advance width="505"/>
  <unicode hex="109C"/>
  <outline>
    <contour>
      <point x="468" y="455" type="line"/>
      <point x="383" y="528"/>
      <point x="308" y="556"/>
      <point x="225" y="556" type="curve" smooth="yes"/>
      <point x="121" y="556"/>
      <point x="58" y="501"/>
      <point x="58" y="415" type="curve" smooth="yes"/>
      <point x="58" y="347"/>
      <point x="108" y="299"/>
      <point x="173" y="299" type="curve" smooth="yes"/>
      <point x="241" y="299"/>
      <point x="281" y="345"/>
      <point x="281" y="400" type="curve" smooth="yes"/>
      <point x="281" y="452"/>
      <point x="228" y="493"/>
      <point x="173" y="493" type="curve" smooth="yes"/>
      <point x="159" y="493"/>
      <point x="143" y="490"/>
      <point x="135" y="480" type="curve"/>
      <point x="148" y="458" type="line"/>
      <point x="168" y="466"/>
      <point x="195" y="472"/>
      <point x="224" y="472" type="curve" smooth="yes"/>
      <point x="275" y="472"/>
      <point x="342" y="458"/>
      <point x="420" y="388" type="curve"/>
    </contour>
    <contour>
      <point x="468" y="145" type="line"/>
      <point x="383" y="219"/>
      <point x="309" y="246"/>
      <point x="226" y="246" type="curve" smooth="yes"/>
      <point x="121" y="246"/>
      <point x="58" y="192"/>
      <point x="58" y="106" type="curve" smooth="yes"/>
      <point x="58" y="38"/>
      <point x="108" y="-10"/>
      <point x="173" y="-10" type="curve" smooth="yes"/>
      <point x="240" y="-10"/>
      <point x="281" y="36"/>
      <point x="281" y="91" type="curve" smooth="yes"/>
      <point x="281" y="142"/>
      <point x="228" y="185"/>
      <point x="175" y="185" type="curve" smooth="yes"/>
      <point x="160" y="185"/>
      <point x="144" y="180"/>
      <point x="135" y="171" type="curve"/>
      <point x="148" y="149" type="line"/>
      <point x="168" y="157"/>
      <point x="195" y="163"/>
      <point x="224" y="163" type="curve" smooth="yes"/>
      <point x="275" y="163"/>
      <point x="342" y="149"/>
      <point x="420" y="80" type="curve"/>
    </contour>
  </outline>
</glyph>
<glyph name="_ai_phk" format="2">
  <unicode hex="109D"/>
  <outline>
    <contour>
      <point x="-210" y="782" type="curve"/>
      <point x="-260" y="841" type="line"/>
      <point x="-260" y="795"/>
      <point x="-288" y="776"/>
      <point x="-339" y="776" type="curve" smooth="yes"/>
      <point x="-381" y="776"/>
      <point x="-405" y="812"/>
      <point x="-405" y="859" type="curve" smooth="yes"/>
      <point x="-405" y="919"/>
      <point x="-358" y="954"/>
      <point x="-285" y="954" type="curve" smooth="yes"/>
      <point x="-206" y="954"/>
      <point x="-149" y="911"/>
      <point x="-149" y="804" type="curve" smooth="yes"/>
      <point x="-149" y="721"/>
      <point x="-169" y="612"/>
      <point x="-216" y="493" type="curve"/>
      <point x="-144" y="479" type="line"/>
      <point x="-83" y="614"/>
      <point x="-55" y="722"/>
      <point x="-55" y="837" type="curve" smooth="yes"/>
      <point x="-55" y="997"/>
      <point x="-129" y="1098"/>
      <point x="-275" y="1098" type="curve" smooth="yes"/>
      <point x="-423" y="1098"/>
      <point x="-496" y="1008"/>
      <point x="-496" y="876" type="curve" smooth="yes"/>
      <point x="-496" y="779"/>
      <point x="-437" y="691"/>
      <point x="-328" y="691" type="curve" smooth="yes"/>
      <point x="-253" y="691"/>
      <point x="-201" y="731"/>
      <point x="-201" y="821" type="curve" smooth="yes"/>
      <point x="-201" y="879"/>
      <point x="-238" y="916"/>
      <point x="-290" y="916" type="curve" smooth="yes"/>
      <point x="-342" y="916"/>
      <point x="-379" y="880"/>
      <point x="-379" y="826" type="curve" smooth="yes"/>
      <point x="-379" y="773"/>
      <point x="-342" y="736"/>
      <point x="-290" y="736" type="curve" smooth="yes"/>
      <point x="-254" y="736"/>
      <point x="-225" y="754"/>
    </contour>
  </outline>
</glyph>
<glyph name="exclam_shn" format="2">
  <advance width="828"/>
  <unicode hex="109F"/>
  <outline>
    <contour>
      <point x="778" y="10" type="line"/>
      <point x="684" y="10" type="line"/>
      <point x="684" y="-335" type="line" smooth="yes"/>
      <point x="684" y="-375"/>
      <point x="660" y="-385"/>
      <point x="633" y="-385" type="curve" smooth="yes"/>
      <point x="606" y="-385"/>
      <point x="583" y="-375"/>
      <point x="583" y="-335" type="curve" smooth="yes"/>
      <point x="583" y="273" type="line" smooth="yes"/>
      <point x="583" y="358"/>
      <point x="567" y="420"/>
      <point x="529" y="468" type="curve" smooth="yes"/>
      <point x="487" y="521"/>
      <point x="416" y="556"/>
      <point x="325" y="556" type="curve" smooth="yes"/>
      <point x="303" y="556" type="line" smooth="yes"/>
      <point x="212" y="556"/>
      <point x="142" y="521"/>
      <point x="99" y="468" type="curve" smooth="yes"/>
      <point x="61" y="420"/>
      <point x="45" y="358"/>
      <point x="45" y="273" type="curve" smooth="yes"/>
      <point x="45" y="188"/>
      <point x="61" y="126"/>
      <point x="102" y="73" type="curve" smooth="yes"/>
      <point x="139" y="25"/>
      <point x="190" y="-10"/>
      <point x="267" y="-10" type="curve" smooth="yes"/>
      <point x="369" y="-10"/>
      <point x="404" y="64"/>
      <point x="404" y="173" type="curve"/>
      <point x="379" y="133"/>
      <point x="352" y="114"/>
      <point x="271" y="114" type="curve" smooth="yes"/>
      <point x="163" y="114"/>
      <point x="126" y="215"/>
      <point x="126" y="260" type="curve" smooth="yes"/>
      <point x="126" y="264" type="line" smooth="yes"/>
      <point x="126" y="353"/>
      <point x="214" y="365"/>
      <point x="308" y="365" type="curve" smooth="yes"/>
      <point x="399" y="365"/>
      <point x="489" y="349"/>
      <point x="489" y="214" type="curve" smooth="yes"/>
      <point x="489" y="-399" type="line" smooth="yes"/>
      <point x="489" y="-495"/>
      <point x="537" y="-552"/>
      <point x="626" y="-552" type="curve" smooth="yes"/>
      <point x="641" y="-552" type="line" smooth="yes"/>
      <point x="730" y="-552"/>
      <point x="778" y="-488"/>
      <point x="778" y="-399" type="curve" smooth="yes"/>
    </contour>
    <contour>
      <point x="270" y="52" type="curve" smooth="yes"/>
      <point x="352" y="52"/>
      <point x="404" y="99"/>
      <point x="404" y="173" type="curve" smooth="yes"/>
      <point x="404" y="260"/>
      <point x="352" y="314"/>
      <point x="270" y="314" type="curve" smooth="yes"/>
      <point x="188" y="314"/>
      <point x="136" y="263"/>
      <point x="136" y="182" type="curve" smooth="yes"/>
      <point x="136" y="103"/>
      <point x="188" y="52"/>
    </contour>
    <contour>
      <point x="270" y="138" type="curve" smooth="yes"/>
      <point x="218" y="138"/>
      <point x="196" y="156"/>
      <point x="196" y="182" type="curve" smooth="yes"/>
      <point x="196" y="209"/>
      <point x="218" y="228"/>
      <point x="270" y="228" type="curve" smooth="yes"/>
      <point x="322" y="228"/>
      <point x="344" y="209"/>
      <point x="344" y="182" type="curve" smooth="yes"/>
      <point x="344" y="156"/>
      <point x="322" y="138"/>
    </contour>
    <component base="asatstem" xOffset="634"/>
  </outline>
</glyph>
<glyph name="quoteright" format="2">
  <advance width="384"/>
  <unicode hex="2019"/>
  <outline>
    <contour>
      <point x="326" y="866" type="curve"/>
      <point x="181" y="748" type="line"/>
      <point x="164" y="697"/>
      <point x="137" y="651"/>
      <point x="91" y="590" type="curve"/>
      <point x="149" y="546" type="line"/>
      <point x="224" y="603"/>
      <point x="326" y="730"/>
    </contour>
    <contour>
      <point x="192" y="736" type="curve" smooth="yes"/>
      <point x="274" y="736"/>
      <point x="326" y="787"/>
      <point x="326" y="866" type="curve" smooth="yes"/>
      <point x="326" y="947"/>
      <point x="274" y="998"/>
      <point x="192" y="998" type="curve" smooth="yes"/>
      <point x="110" y="998"/>
      <point x="58" y="947"/>
      <point x="58" y="866" type="curve" smooth="yes"/>
      <point x="58" y="787"/>
      <point x="110" y="736"/>
    </contour>
    <contour>
      <point x="192" y="822" type="curve" smooth="yes"/>
      <point x="140" y="822"/>
      <point x="118" y="840"/>
      <point x="118" y="866" type="curve" smooth="yes"/>
      <point x="118" y="893"/>
      <point x="140" y="912"/>
      <point x="192" y="912" type="curve" smooth="yes"/>
      <point x="244" y="912"/>
      <point x="266" y="893"/>
      <point x="266" y="866" type="curve" smooth="yes"/>
      <point x="266" y="840"/>
      <point x="244" y="822"/>
    </contour>
  </outline>
</glyph>
<glyph name="ellipsis" format="2">
  <advance width="1152"/>
  <unicode hex="2026"/>
  <outline>
    <contour>
      <point x="192" y="-4" type="curve" smooth="yes"/>
      <point x="274" y="-4"/>
      <point x="326" y="47"/>
      <point x="326" y="126" type="curve" smooth="yes"/>
      <point x="326" y="207"/>
      <point x="274" y="258"/>
      <point x="192" y="258" type="curve"/>
      <point x="110" y="258"/>
      <point x="58" y="207"/>
      <point x="58" y="126" type="curve" smooth="yes"/>
      <point x="58" y="47"/>
      <point x="110" y="-4"/>
    </contour>
    <contour>
      <point x="192" y="82" type="curve" smooth="yes"/>
      <point x="140" y="82"/>
      <point x="118" y="100"/>
      <point x="118" y="126" type="curve" smooth="yes"/>
      <point x="118" y="153"/>
      <point x="140" y="172"/>
      <point x="192" y="172" type="curve" smooth="yes"/>
      <point x="244" y="172"/>
      <point x="266" y="153"/>
      <point x="266" y="126" type="curve" smooth="yes"/>
      <point x="266" y="100"/>
      <point x="244" y="82"/>
    </contour>
    <contour>
      <point x="576" y="-4" type="curve" smooth="yes"/>
      <point x="658" y="-4"/>
      <point x="710" y="47"/>
      <point x="710" y="126" type="curve" smooth="yes"/>
      <point x="710" y="207"/>
      <point x="658" y="258"/>
      <point x="576" y="258" type="curve"/>
      <point x="494" y="258"/>
      <point x="442" y="207"/>
      <point x="442" y="126" type="curve" smooth="yes"/>
      <point x="442" y="47"/>
      <point x="494" y="-4"/>
    </contour>
    <contour>
      <point x="576" y="82" type="curve" smooth="yes"/>
      <point x="524" y="82"/>
      <point x="502" y="100"/>
      <point x="502" y="126" type="curve" smooth="yes"/>
      <point x="502" y="153"/>
      <point x="524" y="172"/>
      <point x="576" y="172" type="curve" smooth="yes"/>
      <point x="628" y="172"/>
      <point x="650" y="153"/>
      <point x="650" y="126" type="curve" smooth="yes"/>
      <point x="650" y="100"/>
      <point x="628" y="82"/>
    </contour>
    <contour>
      <point x="960" y="-4" type="curve" smooth="yes"/>
      <point x="1042" y="-4"/>
      <point x="1094" y="47"/>
      <point x="1094" y="126" type="curve" smooth="yes"/>
      <point x="1094" y="207"/>
      <point x="1042" y="258"/>
      <point x="960" y="258" type="curve"/>
      <point x="878" y="258"/>
      <point x="826" y="207"/>
      <point x="826" y="126" type="curve" smooth="yes"/>
      <point x="826" y="47"/>
      <point x="878" y="-4"/>
    </contour>
    <contour>
      <point x="960" y="82" type="curve" smooth="yes"/>
      <point x="908" y="82"/>
      <point x="886" y="100"/>
      <point x="886" y="126" type="curve" smooth="yes"/>
      <point x="886" y="153"/>
      <point x="908" y="172"/>
      <point x="960" y="172" type="curve" smooth="yes"/>
      <point x="1012" y="172"/>
      <point x="1034" y="153"/>
      <point x="1034" y="126" type="curve" smooth="yes"/>
      <point x="1034" y="100"/>
      <point x="1012" y="82"/>
    </contour>
  </outline>
</glyph>
<glyph name="uni25CC" format="2">
  <advance width="594"/>
  <unicode hex="25CC"/>
  <note>
uni25CC
</note>
  <outline>
    <contour>
      <point x="455" y="404" type="curve" smooth="yes"/>
      <point x="470" y="404"/>
      <point x="480" y="415"/>
      <point x="480" y="430" type="curve" smooth="yes"/>
      <point x="480" y="446"/>
      <point x="470" y="457"/>
      <point x="455" y="457" type="curve" smooth="yes"/>
      <point x="439" y="457"/>
      <point x="428" y="446"/>
      <point x="428" y="430" type="curve" smooth="yes"/>
      <point x="428" y="415"/>
      <point x="439" y="404"/>
    </contour>
    <contour>
      <point x="383" y="452" type="curve" smooth="yes"/>
      <point x="398" y="452"/>
      <point x="408" y="463"/>
      <point x="408" y="478" type="curve" smooth="yes"/>
      <point x="408" y="494"/>
      <point x="398" y="505"/>
      <point x="383" y="505" type="curve" smooth="yes"/>
      <point x="366" y="505"/>
      <point x="355" y="494"/>
      <point x="355" y="478" type="curve" smooth="yes"/>
      <point x="355" y="463"/>
      <point x="366" y="452"/>
    </contour>
    <contour>
      <point x="502" y="331" type="curve" smooth="yes"/>
      <point x="518" y="331"/>
      <point x="529" y="342"/>
      <point x="529" y="358" type="curve" smooth="yes"/>
      <point x="529" y="373"/>
      <point x="518" y="384"/>
      <point x="503" y="384" type="curve" smooth="yes"/>
      <point x="487" y="384"/>
      <point x="476" y="373"/>
      <point x="476" y="358" type="curve" smooth="yes"/>
      <point x="476" y="342"/>
      <point x="487" y="331"/>
    </contour>
    <contour>
      <point x="521" y="247" type="curve" smooth="yes"/>
      <point x="536" y="247"/>
      <point x="546" y="258"/>
      <point x="546" y="273" type="curve" smooth="yes"/>
      <point x="546" y="288"/>
      <point x="536" y="299"/>
      <point x="521" y="299" type="curve" smooth="yes"/>
      <point x="505" y="299"/>
      <point x="494" y="288"/>
      <point x="494" y="273" type="curve" smooth="yes"/>
      <point x="494" y="258"/>
      <point x="505" y="247"/>
    </contour>
    <contour>
      <point x="297" y="469" type="curve" smooth="yes"/>
      <point x="312" y="469"/>
      <point x="323" y="480"/>
      <point x="323" y="496" type="curve" smooth="yes"/>
      <point x="323" y="511"/>
      <point x="312" y="522"/>
      <point x="297" y="522" type="curve" smooth="yes"/>
      <point x="282" y="522"/>
      <point x="271" y="511"/>
      <point x="271" y="496" type="curve" smooth="yes"/>
      <point x="271" y="480"/>
      <point x="282" y="469"/>
    </contour>
    <contour>
      <point x="212" y="452" type="curve" smooth="yes"/>
      <point x="228" y="452"/>
      <point x="239" y="463"/>
      <point x="239" y="478" type="curve" smooth="yes"/>
      <point x="239" y="494"/>
      <point x="228" y="505"/>
      <point x="212" y="505" type="curve" smooth="yes"/>
      <point x="197" y="505"/>
      <point x="186" y="494"/>
      <point x="186" y="478" type="curve" smooth="yes"/>
      <point x="186" y="463"/>
      <point x="197" y="452"/>
    </contour>
    <contour>
      <point x="502" y="162" type="curve" smooth="yes"/>
      <point x="518" y="162"/>
      <point x="529" y="173"/>
      <point x="529" y="188" type="curve" smooth="yes"/>
      <point x="529" y="204"/>
      <point x="518" y="215"/>
      <point x="502" y="215" type="curve" smooth="yes"/>
      <point x="487" y="215"/>
      <point x="476" y="204"/>
      <point x="476" y="188" type="curve" smooth="yes"/>
      <point x="476" y="173"/>
      <point x="487" y="162"/>
    </contour>
    <contour>
      <point x="140" y="404" type="curve" smooth="yes"/>
      <point x="156" y="404"/>
      <point x="167" y="415"/>
      <point x="167" y="430" type="curve" smooth="yes"/>
      <point x="167" y="446"/>
      <point x="156" y="457"/>
      <point x="140" y="457" type="curve" smooth="yes"/>
      <point x="125" y="457"/>
      <point x="114" y="446"/>
      <point x="114" y="429" type="curve" smooth="yes"/>
      <point x="114" y="414"/>
      <point x="125" y="404"/>
    </contour>
    <contour>
      <point x="455" y="89" type="curve" smooth="yes"/>
      <point x="470" y="89"/>
      <point x="480" y="100"/>
      <point x="480" y="115" type="curve" smooth="yes"/>
      <point x="480" y="131"/>
      <point x="470" y="142"/>
      <point x="455" y="142" type="curve" smooth="yes"/>
      <point x="439" y="142"/>
      <point x="428" y="131"/>
      <point x="428" y="115" type="curve" smooth="yes"/>
      <point x="428" y="100"/>
      <point x="439" y="89"/>
    </contour>
    <contour>
      <point x="383" y="42" type="curve" smooth="yes"/>
      <point x="398" y="42"/>
      <point x="408" y="52"/>
      <point x="408" y="67" type="curve" smooth="yes"/>
      <point x="408" y="83"/>
      <point x="398" y="94"/>
      <point x="383" y="94" type="curve" smooth="yes"/>
      <point x="366" y="94"/>
      <point x="355" y="83"/>
      <point x="355" y="67" type="curve" smooth="yes"/>
      <point x="355" y="52"/>
      <point x="366" y="42"/>
    </contour>
    <contour>
      <point x="93" y="331" type="curve" smooth="yes"/>
      <point x="108" y="331"/>
      <point x="118" y="342"/>
      <point x="118" y="358" type="curve" smooth="yes"/>
      <point x="118" y="373"/>
      <point x="107" y="384"/>
      <point x="92" y="384" type="curve" smooth="yes"/>
      <point x="76" y="384"/>
      <point x="65" y="373"/>
      <point x="65" y="358" type="curve" smooth="yes"/>
      <point x="65" y="342"/>
      <point x="76" y="331"/>
    </contour>
    <contour>
      <point x="75" y="247" type="curve" smooth="yes"/>
      <point x="90" y="247"/>
      <point x="101" y="258"/>
      <point x="101" y="273" type="curve" smooth="yes"/>
      <point x="101" y="288"/>
      <point x="90" y="299"/>
      <point x="75" y="299" type="curve" smooth="yes"/>
      <point x="59" y="299"/>
      <point x="48" y="288"/>
      <point x="48" y="273" type="curve" smooth="yes"/>
      <point x="48" y="258"/>
      <point x="59" y="247"/>
    </contour>
    <contour>
      <point x="297" y="24" type="curve" smooth="yes"/>
      <point x="312" y="24"/>
      <point x="323" y="35"/>
      <point x="323" y="51" type="curve" smooth="yes"/>
      <point x="323" y="66"/>
      <point x="312" y="77"/>
      <point x="297" y="77" type="curve" smooth="yes"/>
      <point x="282" y="77"/>
      <point x="271" y="66"/>
      <point x="271" y="51" type="curve" smooth="yes"/>
      <point x="271" y="35"/>
      <point x="282" y="24"/>
    </contour>
    <contour>
      <point x="92" y="162" type="curve" smooth="yes"/>
      <point x="107" y="162"/>
      <point x="118" y="173"/>
      <point x="118" y="188" type="curve" smooth="yes"/>
      <point x="118" y="204"/>
      <point x="107" y="215"/>
      <point x="92" y="215" type="curve" smooth="yes"/>
      <point x="76" y="215"/>
      <point x="65" y="204"/>
      <point x="65" y="188" type="curve" smooth="yes"/>
      <point x="65" y="173"/>
      <point x="76" y="162"/>
    </contour>
    <contour>
      <point x="212" y="42" type="curve" smooth="yes"/>
      <point x="228" y="42"/>
      <point x="239" y="53"/>
      <point x="239" y="69" type="curve" smooth="yes"/>
      <point x="239" y="84"/>
      <point x="228" y="94"/>
      <point x="212" y="94" type="curve" smooth="yes"/>
      <point x="197" y="94"/>
      <point x="186" y="83"/>
      <point x="186" y="67" type="curve" smooth="yes"/>
      <point x="186" y="52"/>
      <point x="197" y="42"/>
    </contour>
    <contour>
      <point x="140" y="89" type="curve" smooth="yes"/>
      <point x="156" y="89"/>
      <point x="167" y="100"/>
      <point x="167" y="115" type="curve" smooth="yes"/>
      <point x="167" y="131"/>
      <point x="156" y="142"/>
      <point x="140" y="142" type="curve" smooth="yes"/>
      <point x="125" y="142"/>
      <point x="114" y="131"/>
      <point x="114" y="115" type="curve" smooth="yes"/>
      <point x="114" y="100"/>
      <point x="125" y="89"/>
    </contour>
  </outline>
</glyph>
<glyph name="uniA92E" format="2">
  <advance width="762"/>
  <unicode hex="A92E"/>
  <outline>
    <contour>
      <point x="381" y="331" type="curve" smooth="yes"/>
      <point x="193" y="331"/>
      <point x="73" y="242"/>
      <point x="20" y="51" type="curve"/>
      <point x="100" y="51" type="line"/>
      <point x="150" y="134"/>
      <point x="228" y="182"/>
      <point x="381" y="182" type="curve" smooth="yes"/>
      <point x="533" y="182"/>
      <point x="612" y="134"/>
      <point x="662" y="51" type="curve"/>
      <point x="742" y="51" type="line"/>
      <point x="689" y="242"/>
      <point x="569" y="331"/>
    </contour>
  </outline>
</glyph>
